<svg xmlns="http://www.w3.org/2000/svg" fill="none" viewBox="0 0 16 16"><path fill="currentColor" d="M15 9.5a2.501 2.501 0 0 0-2.128-2.473 1.121 1.121 0 0 1-.932-.864A4.035 4.035 0 0 0 8 3a4.034 4.034 0 0 0-3.94 3.163 1.12 1.12 0 0 1-.932.864A2.501 2.501 0 0 0 3.5 12h9A2.5 2.5 0 0 0 15 9.5Zm1 0a3.5 3.5 0 0 1-3.5 3.5h-9a3.5 3.5 0 0 1-.52-6.962.137.137 0 0 0 .07-.033.1.1 0 0 0 .033-.052A5.034 5.034 0 0 1 8 2c2.4 0 4.432 1.692 4.917 3.953a.1.1 0 0 0 .032.052c.02.017.044.03.07.033A3.501 3.501 0 0 1 16 9.5Z"/><path fill="currentColor" d="M6.531 6.001a.5.5 0 0 1 .416.275l1.615 3.229 1.522-2.282.04-.053a.5.5 0 0 1 .823.106L11.81 9h1.69a.5.5 0 0 1 0 1h-2a.5.5 0 0 1-.447-.276l-.616-1.23-1.521 2.283a.5.5 0 0 1-.863-.053l-1.616-3.23-1.521 2.283A.5.5 0 0 1 4.5 10h-2a.5.5 0 1 1 0-1h1.732l1.852-2.777.04-.053A.5.5 0 0 1 6.531 6Z"/></svg>
