<svg xmlns="http://www.w3.org/2000/svg" fill="none" viewBox="0 0 16 16"><g clip-path="url(#a)"><path stroke="currentColor" stroke-linecap="round" stroke-linejoin="round" d="M9.5 8c0-2.5 3-2 3-4.5V3a.5.5 0 0 0-.5-.5H4a.5.5 0 0 0-.5.5v.5c0 2.5 3 2 3 4.5s-3 2-3 4.5v.5a.5.5 0 0 0 .5.5h8a.5.5 0 0 0 .5-.5v-.5c0-2.5-3-2-3-4.5Z"/><path stroke="currentColor" stroke-linecap="round" stroke-linejoin="round" d="M14 .5H2A1.5 1.5 0 0 0 .5 2v12A1.5 1.5 0 0 0 2 15.5h12a1.5 1.5 0 0 0 1.5-1.5V2A1.5 1.5 0 0 0 14 .5Z"/></g><defs><clipPath id="a"><path fill="#fff" d="M0 0h16v16H0z"/></clipPath></defs></svg>
