<svg xmlns="http://www.w3.org/2000/svg" fill="none" viewBox="0 0 16 16"><g clip-path="url(#a)"><path stroke="currentColor" stroke-linecap="round" stroke-linejoin="round" d="m1.06 6.94 5.88-5.88a1.5 1.5 0 0 1 2.12 0l5.88 5.88a1.5 1.5 0 0 1 0 2.12l-5.88 5.88a1.5 1.5 0 0 1-2.12 0L1.06 9.06a1.5 1.5 0 0 1 0-2.12Z"/><path stroke="currentColor" stroke-linecap="round" stroke-linejoin="round" d="M10 4.5H6c-.276 0-.506.226-.465.499C5.76 6.512 7 6.636 7 8c0 1.364-1.24 1.488-1.465 3.001-.04.273.189.499.465.499h4c.276 0 .506-.226.465-.499C10.239 9.488 9 9.364 9 8c0-1.364 1.24-1.488 1.465-3.001.04-.273-.189-.499-.465-.499Z"/></g><defs><clipPath id="a"><path fill="#fff" d="M0 0h16v16H0z"/></clipPath></defs></svg>