<svg xmlns="http://www.w3.org/2000/svg" fill="none" viewBox="0 0 16 16"><circle cx="6" cy="8" r="1" fill="currentColor"/><circle cx="10" cy="8" r="1" fill="currentColor"/><circle cx="8" cy="9" r="5.5" stroke="currentColor"/><path stroke="currentColor" stroke-linecap="round" d="M6.5 11c1 .667 2 .667 3 0"/><path fill="currentColor" d="M8.78 1.72a.5.5 0 0 0 .707-.707l-.707.707ZM7.72 2.78a.75.75 0 0 1 0-1.06l-.707-.707a1.75 1.75 0 0 0 0 2.474l.707-.707Zm0-1.06a.75.75 0 0 1 1.06 0l.707-.707a1.75 1.75 0 0 0-2.474 0l.707.707ZM8.25 3a.746.746 0 0 1-.53-.22l-.707.707c.341.342.79.513 1.237.513V3Z"/></svg>
