<svg xmlns="http://www.w3.org/2000/svg" fill="none" viewBox="0 0 16 16"><g clip-path="url(#a)"><path stroke="currentColor" stroke-linecap="round" stroke-linejoin="round" d="M4.5 15.5c0-4 1-9 5-9v-4A2 2 0 0 1 11.005.562c.268-.068.495.162.495.438v1a.5.5 0 0 0 .5.5h1c.5 0 1 0 1.5.5.498.498 1 1 1 1.5a2 2 0 0 1-2 2v8a1 1 0 0 1-1 1h-2m-6 0h6m-6 0h-2c-1.105 0-2-1.12-2-2.5C.5 11 3 10.5 3 8.5S1 5 1 5m6.5 6.5h1a2 2 0 0 1 2 2v2"/></g><defs><clipPath id="a"><path fill="#fff" d="M0 0h16v16H0z"/></clipPath></defs></svg>
