<svg xmlns="http://www.w3.org/2000/svg" fill="none" viewBox="0 0 16 16"><g clip-path="url(#a)"><path stroke="currentColor" d="M12 1.5C7.9-.257 3.614.353 1.5 4c-.713 1.23-1 2-1 3.5 0 1.408 1.634 2.342 3 2 1.5-.375 2.148-.29 2.5 0 .607.5.757 1.03 1 2 .5 2 1.5 4 3.5 4 2.351 0 3.854-1.74 4.5-4 1-3.5.56-8.474-3-10Z"/><circle cx="7" cy="3" r="1" fill="currentColor"/><circle cx="10" cy="4" r="1" fill="currentColor"/><circle cx="12" cy="6" r="1" fill="currentColor"/><circle cx="13" cy="9" r="1" fill="currentColor"/><circle cx="10.5" cy="12.5" r="1" stroke="currentColor"/></g><defs><clipPath id="a"><path fill="#fff" d="M0 0h16v16H0z"/></clipPath></defs></svg>
