<svg xmlns="http://www.w3.org/2000/svg" fill="none" viewBox="0 0 16 16"><path stroke="currentColor" stroke-linecap="round" stroke-linejoin="round" d="m13.768 13.768-5.06-5.06a1 1 0 0 0-1.415 0l-5.06 5.06m11.535 0A2.492 2.492 0 0 1 12 14.5H4c-.69 0-1.315-.28-1.768-.732m11.536 0A2.492 2.492 0 0 0 14.5 12V4A2.5 2.5 0 0 0 12 1.5H4A2.5 2.5 0 0 0 1.5 4v8c0 .69.28 1.315.732 1.768"/><path fill="currentColor" fill-rule="evenodd" d="M10.5 6a.5.5 0 1 0 0-1 .5.5 0 0 0 0 1Zm0 1a1.5 1.5 0 1 0 0-3 1.5 1.5 0 0 0 0 3Z" clip-rule="evenodd"/></svg>
