<svg xmlns="http://www.w3.org/2000/svg" fill="none" viewBox="0 0 16 16"><path stroke="currentColor" stroke-linecap="round" stroke-linejoin="round" d="M9 15.5c.613-.134.949-.381 1.5-1.5-.72 1.44-2.218 1.325-3 .587m0 0c0-2.5 2.123-.087 2-5.175.41.25.762.612 1 1.088 1.5-1.5 2.5-2 4-1 0-1.5 0-3 1-6-1.26 1.26-3.226 2.52-5.008 2.891-.54.112-.992-.339-.992-.891v-1h1C10 3 10 2 10.5.5c-1 0-2 0-2 1-2 0-4 1.5-4 2s1 1 2 1h1l-.379 1.515A.64.64 0 0 1 6.5 6.5v0c-2 0-4.5-1.5-6-3 1 3 1 4.5 1 6 1.5-1 2.5-.5 4 1 .238-.476.59-.839 1-1.088C8.5 10.5 7 12 7 13.5c0 .42.196.8.5 1.087Z"/></svg>
