<svg xmlns="http://www.w3.org/2000/svg" fill="none" viewBox="0 0 16 16"><path fill="currentColor" fill-rule="evenodd" d="M0 2.5A1.5 1.5 0 0 1 1.5 1H5c1.713 0 3.224.862 4.125 2.173.44-.113.9-.173 1.375-.173h4A1.5 1.5 0 0 1 16 4.5v4a5.5 5.5 0 0 1-9.02 4.227l-2.126 2.127a.5.5 0 0 1-.708-.708l2.127-2.127a5.51 5.51 0 0 1-.69-1.053A5 5 0 0 1 0 6V2.5Zm5.206 7.495a5.504 5.504 0 0 1 .02-3.061l-2.08-2.08a.5.5 0 1 1 .708-.708L5.637 5.93a5.521 5.521 0 0 1 2.508-2.4A3.993 3.993 0 0 0 5 2H1.5a.5.5 0 0 0-.5.5V6a4 4 0 0 0 4.206 3.995Zm2.485 2.021 3.163-3.162a.5.5 0 0 0-.708-.708L6.984 11.31A4.498 4.498 0 0 1 10.5 4h4a.5.5 0 0 1 .5.5v4a4.5 4.5 0 0 1-7.309 3.516Z" clip-rule="evenodd"/></svg>
