<svg xmlns="http://www.w3.org/2000/svg" fill="none" viewBox="0 0 16 16"><path fill="currentColor" d="M0 5v3h1V5H0Zm15 3V5h-1v3h1Zm-1.5 1h.5V8h-.5v1Zm-.5-.5V14h1V8.5h-1ZM1 9h.5V8H1v1Zm.5 0h12V8h-12v1Zm.5 5V8.5H1V14h1ZM1 5h13V4H1v1Zm11 10H7.5v1H12v-1Zm-4.5 0H3v1h4.5v-1ZM7 2.5v13h1v-13H7ZM1 14a2 2 0 0 0 2 2v-1a1 1 0 0 1-1-1H1Zm14-9a1 1 0 0 0-1-1v1h1Zm-1 3v1a1 1 0 0 0 1-1h-1ZM0 8a1 1 0 0 0 1 1V8H0Zm13 6a1 1 0 0 1-1 1v1a2 2 0 0 0 2-2h-1ZM1 5V4a1 1 0 0 0-1 1h1Z"/><path stroke="currentColor" d="M9.5 4.5a2 2 0 1 0-2-2 2 2 0 1 0-2 2"/></svg>
