<svg xmlns="http://www.w3.org/2000/svg" fill="none" viewBox="0 0 16 16"><path fill="currentColor" d="M6.725 3.2 7.6 2.033a.5.5 0 0 1 .8 0L9.275 3.2a.5.5 0 0 1 0 .6L8.4 4.967a.5.5 0 0 1-.8 0L6.725 3.8a.5.5 0 0 1 0-.6Z"/><path stroke="currentColor" stroke-linecap="round" stroke-linejoin="round" d="m5.5 12.5-1-1 6.59-5.649a.5.5 0 0 0 .028-.733L9.5 3.5h-3L4.882 5.118a.5.5 0 0 0 .028.733L11.5 11.5l-1 1"/><circle cx="8" cy="13" r="1" fill="currentColor"/><path stroke="currentColor" stroke-linecap="round" stroke-linejoin="round" d="M12 .5H4A1.5 1.5 0 0 0 2.5 2v12A1.5 1.5 0 0 0 4 15.5h8a1.5 1.5 0 0 0 1.5-1.5V2A1.5 1.5 0 0 0 12 .5Z"/></svg>
