<svg xmlns="http://www.w3.org/2000/svg" fill="none" viewBox="0 0 16 16"><path stroke="currentColor" stroke-linejoin="round" d="M14.293 8.5H12a.5.5 0 0 0-.5.5v2.293a.5.5 0 0 1-.146.353l-3 3a.5.5 0 0 1-.708 0l-3-3a.5.5 0 0 1-.146-.353V9a.5.5 0 0 0-.5-.5H1.707a.5.5 0 0 1-.353-.854L8 1l6.646 6.646a.5.5 0 0 1-.353.854Z"/><path fill="currentColor" d="M6 10.293V8a.5.5 0 0 1 .5-.5A.5.5 0 0 0 7 7V6c0-.5.5-1 1-1s1 .5 1 1v1a.5.5 0 0 0 .5.5.5.5 0 0 1 .5.5v2.293a.5.5 0 0 1-.146.353l-1.5 1.5a.5.5 0 0 1-.708 0l-1.5-1.5A.5.5 0 0 1 6 10.293Z"/></svg>
