<svg xmlns="http://www.w3.org/2000/svg" fill="none" viewBox="0 0 16 16"><path fill="currentColor" fill-rule="evenodd" d="M3 2.5a1.5 1.5 0 1 1 3 0v.65a7.502 7.502 0 0 1 8.925 6.282c.127.896-.62 1.568-1.425 1.568H13v3a1 1 0 0 1-1 1H3a1 1 0 0 1-1-1v-3h-.5C.694 11-.052 10.329.075 9.433A7.496 7.496 0 0 1 3 4.499V2.5Zm1 1.365a7.46 7.46 0 0 1 1-.438V2.5a.5.5 0 0 0-1 0v1.365ZM2.022 10a5.5 5.5 0 0 1 10.956 0h.522c.299 0 .463-.229.434-.426a6.502 6.502 0 0 0-12.869 0c-.028.197.136.426.435.426h.522ZM7.5 6A4.5 4.5 0 0 0 3 10.5V14h3v-3a1 1 0 0 1 1-1h1a1 1 0 0 1 1 1v3h3v-3.5A4.5 4.5 0 0 0 7.5 6Zm.5 8v-3H7v3h1Z" clip-rule="evenodd"/></svg>
