<svg xmlns="http://www.w3.org/2000/svg" fill="none" viewBox="0 0 16 16"><path fill="currentColor" fill-rule="evenodd" d="M12.707 4.708a1 1 0 1 0-1.414-1.415 1 1 0 0 0 1.414 1.415ZM8.111.518A5.45 5.45 0 0 1 10.5 0C13.58 0 16 2.42 16 5.5a5.58 5.58 0 0 1-.469 2.258 5.53 5.53 0 0 0-.796-.707A4.6 4.6 0 0 0 15 5.501C15 2.98 13.02 1 10.5 1S6 2.98 6 5.5c0 .33.03.66.09.96.12.52.03 1.13-.4 1.56l-4.54 4.54a.5.5 0 0 0-.15.35v1.59a.5.5 0 0 0 .5.5h2a.5.5 0 0 0 .5-.5V14a1 1 0 0 1 1-1h1v-1c0-.05.004-.1.011-.149.045.711.225 1.386.515 1.999A1 1 0 0 1 6 14H5v.5c0 .83-.67 1.5-1.5 1.5h-2C.67 16 0 15.33 0 14.5v-1.59a1.5 1.5 0 0 1 .44-1.06l4.54-4.54c.14-.14.2-.37.14-.64A5.45 5.45 0 0 1 8.111.518Z" clip-rule="evenodd"/><path fill="currentColor" d="M16 11.5a4.5 4.5 0 1 1-9 0 4.5 4.5 0 0 1 9 0Zm-4-2a.5.5 0 0 0-1 0V11H9.5a.5.5 0 0 0 0 1H11v1.5a.5.5 0 0 0 1 0V12h1.5a.5.5 0 0 0 0-1H12V9.5Z"/></svg>
