<svg xmlns="http://www.w3.org/2000/svg" fill="none" viewBox="0 0 16 16"><path fill="currentColor" d="M13 4a1 1 0 1 1-2 0 1 1 0 0 1 2 0Zm-2.5-4a5.45 5.45 0 0 0-5.38 6.67c.06.27 0 .5-.14.64L.44 11.85A1.5 1.5 0 0 0 0 12.91v1.59c0 .83.67 1.5 1.5 1.5h2c.83 0 1.5-.67 1.5-1.5V14h1a1 1 0 0 0 1-1v-1h1a1 1 0 0 0 1-1v-.18c.5.13 1 .18 1.5.18 3.08 0 5.5-2.42 5.5-5.5S13.58 0 10.5 0ZM6 5.5C6 2.98 7.98 1 10.5 1S15 2.98 15 5.5 13.02 10 10.5 10c-.66 0-1.27-.1-1.78-.35a.5.5 0 0 0-.72.45v.9H7a1 1 0 0 0-1 1v1H5a1 1 0 0 0-1 1v.5a.5.5 0 0 1-.5.5h-2a.5.5 0 0 1-.5-.5v-1.59a.5.5 0 0 1 .15-.35l4.54-4.54c.43-.43.52-1.04.4-1.56-.06-.3-.09-.63-.09-.96Z"/></svg>
