<svg xmlns="http://www.w3.org/2000/svg" fill="none" viewBox="0 0 16 16"><g clip-path="url(#a)"><path fill="currentColor" d="M5.146 10.146a.5.5 0 0 0 .708.708l-.708-.708Zm5.708-4.292a.5.5 0 0 0-.708-.708l.708.708Zm-.415-4.293-.353-.354.353.354Zm4 1.878-.353.354.353-.354Zm0 2.122-.353-.354.353.354Zm-8.878 8.878-.354-.353.354.353Zm-4-1.878-.354.353.354-.353Zm0-2.122-.354-.353.354.353Zm-.354 2.475 1.879 1.879.707-.707-1.879-1.879-.707.707Zm4.647-2.06 5-5-.708-.708-5 5 .708.708Zm.06 3.939 2.44-2.44-.708-.707-2.439 2.44.707.707ZM3.646 7.646l-2.439 2.44.707.707 2.44-2.44-.708-.707Zm11.147-4.56-1.879-1.879-.707.707 1.879 1.879.707-.707Zm-4.707-1.879-2.44 2.44.708.707 2.439-2.44-.707-.707Zm2.268 7.147 2.439-2.44-.707-.707-2.44 2.44.708.707Zm-.708-.708a.914.914 0 0 1-1.292 0l-.708.708c.748.747 1.96.747 2.708 0l-.708-.708Zm-4-4a1.914 1.914 0 0 0 0 2.708l.708-.708a.914.914 0 0 1 0-1.292l-.708-.708Zm5.268-2.439a2 2 0 0 0-2.828 0l.707.707a1 1 0 0 1 1.414 0l.707-.707Zm-4.56 11.147a1.914 1.914 0 0 0 0-2.708l-.708.708a.914.914 0 0 1 0 1.292l.708.708Zm5.732-8.561a1 1 0 0 1 0 1.414l.707.707a2 2 0 0 0 0-2.828l-.707.707Zm-11 11a2 2 0 0 0 2.828 0l-.707-.707a1 1 0 0 1-1.414 0l-.707.707Zm1.268-6.44a.914.914 0 0 1 1.292 0l.708-.707a1.914 1.914 0 0 0-2.708 0l.708.708Zm-2.44 3.854a1 1 0 0 1 0-1.414l-.707-.707a2 2 0 0 0 0 2.828l.707-.707Z"/></g><defs><clipPath id="a"><path fill="#fff" d="M0 0h16v16H0z"/></clipPath></defs></svg>