<svg xmlns="http://www.w3.org/2000/svg" fill="none" viewBox="0 0 16 16"><path fill="currentColor" fill-rule="evenodd" d="M6.6 3.09A4.502 4.502 0 0 0 3 7.5V13a1 1 0 0 0 1 1h2v-3.5h-.25a1.75 1.75 0 1 1 0-3.5h3.5a1.75 1.75 0 0 1 0 3.5H9V14h2a1 1 0 0 0 1-1V7.5a4.502 4.502 0 0 0-3.6-4.41l.2-.98c2.51.51 4.4 2.729 4.4 5.39V13a2 2 0 0 1-2 2H8.5a.5.5 0 0 1-.5-.5V10a.5.5 0 0 1 .5-.5h.75a.75.75 0 1 0 0-1.5h-3.5a.75.75 0 0 0 0 1.5h.75a.5.5 0 0 1 .5.5v4.5a.5.5 0 0 1-.5.5H4a2 2 0 0 1-2-2V7.5c0-2.661 1.89-4.88 4.4-5.39l.2.98Z" clip-rule="evenodd"/><path stroke="currentColor" stroke-linecap="round" stroke-linejoin="round" d="M8.5.5h-2v3h2v-3Z"/></svg>
