<svg xmlns="http://www.w3.org/2000/svg" fill="none" viewBox="0 0 16 16"><g clip-path="url(#a)"><path fill="currentColor" d="M3.616 10.406c.183 1.285.576 2.445 1.125 3.372C5.511 15.078 6.648 16 8 16c1.25 0 2.316-.788 3.079-1.935-.403.014-.815.005-1.234-.029C9.279 14.674 8.638 15 8 15c-.857 0-1.721-.59-2.398-1.732a6.999 6.999 0 0 1-.574-1.246 5.023 5.023 0 0 1-1.412-1.616Zm5.318 2.507c1.278.223 2.503.207 3.554-.028 1.475-.331 2.703-1.127 3.12-2.413.387-1.19-.034-2.446-.889-3.526-.11.387-.247.777-.408 1.165.431.735.543 1.446.346 2.052-.264.815-1.092 1.455-2.388 1.746a6.999 6.999 0 0 1-1.362.16 4.974 4.974 0 0 1-1.973.844Zm-4.575-8.34c-1.166.572-2.149 1.304-2.86 2.113-1 1.135-1.525 2.5-1.107 3.786.386 1.19 1.465 1.96 2.792 2.33a10.659 10.659 0 0 1-.355-1.182c-.78-.341-1.29-.85-1.486-1.457-.265-.815.028-1.819.906-2.816.283-.322.62-.634 1.006-.929A4.997 4.997 0 0 1 4.36 4.573Zm2.485-2.245c-1.22-.526-2.265-.495-2.959.009-.515.375-.843 1.016-.926 1.864-.358.22-.698.454-1.014.702-.058-1.376.34-2.64 1.353-3.375C4.392.733 5.852.81 7.24 1.41c.989.427 1.988 1.134 2.892 2.066A4.98 4.98 0 0 0 8.04 3a7 7 0 0 0-1.196-.672Zm3.211-.296a10.74 10.74 0 0 0-.981-.748c1.291-.48 2.617-.491 3.628.244 1.094.795 1.471 2.208 1.33 3.713-.1 1.073-.464 2.243-1.072 3.39a5.036 5.036 0 0 0-.192-2.14c.14-.465.229-.917.269-1.343.124-1.323-.23-2.307-.923-2.811-.515-.375-1.226-.488-2.059-.305Z"/><circle cx="8" cy="8" r="4.5" stroke="currentColor"/><path stroke="currentColor" stroke-linecap="round" stroke-linejoin="round" d="M9 6.5H7l-.5 1 1.5 2 1.5-2-.5-1Z"/></g><defs><clipPath id="a"><path fill="#fff" d="M0 0h16v16H0z"/></clipPath></defs></svg>