<svg xmlns="http://www.w3.org/2000/svg" fill="none" viewBox="0 0 16 16"><path stroke="currentColor" stroke-linecap="round" stroke-linejoin="round" d="M13.5 7.842c1.333-1.143 2-3.076 2-6.342-2.5 0-6 2-7.5 4.5C6.5 3.5 3 1.5.5 1.5c0 3.266.667 5.199 2 6.342m11 0a4.87 4.87 0 0 1-1 .658h-1m2-.658v4.244a1 1 0 0 1-.293.707L10.5 15.5V13A1.25 1.25 0 1 0 8 13a1.25 1.25 0 1 0-2.5 0v2.5l-2.707-2.707a1 1 0 0 1-.293-.707V7.842m0 0c.3.257.633.474 1 .658h1m7 0c-1 1-1 1-2 1 1-1 .5-1 2-1Zm-7 0c1 1 1 1 2 1-1-1-.5-1-2-1Z"/></svg>