<svg xmlns="http://www.w3.org/2000/svg" fill="none" viewBox="0 0 16 16"><path stroke="currentColor" stroke-linecap="round" stroke-linejoin="round" d="M2.5 8.5v-4a4 4 0 0 1 4-4h3a4 4 0 0 1 4 4v5.882a1 1 0 0 1-1.447.894L11.5 11v2.6a1.9 1.9 0 0 1-1.9 1.9h-.1v-2a1 1 0 0 0-1-1h-1a1 1 0 0 0-1 1v2h-.1a1.9 1.9 0 0 1-1.9-1.9V11l-.553.276a1 1 0 0 1-1.447-.894V8.5Z"/><path fill="currentColor" d="M7 6.25a1.25 1.25 0 0 0-2.368-.56l-.5 1a1.25 1.25 0 1 0 2.237 1.118l.5-.999A1.26 1.26 0 0 0 7 6.25Zm2 0a1.25 1.25 0 0 1 2.368-.56l.5 1a1.25 1.25 0 1 1-2.237 1.118l-.5-.999A1.245 1.245 0 0 1 9 6.25Zm-2.223 3.827.744-2.48a.5.5 0 0 1 .958 0l.744 2.48a.5.5 0 0 1-.637.618l-.428-.142a.5.5 0 0 0-.316 0l-.428.142a.5.5 0 0 1-.637-.618Z"/></svg>