<svg xmlns="http://www.w3.org/2000/svg" fill="none" viewBox="0 0 16 16"><g clip-path="url(#a)"><path fill="currentColor" fill-rule="evenodd" d="M7.223.084a.5.5 0 0 1 .554 0l3 2A.5.5 0 0 1 11 2.5v.9l1.223-.816a.5.5 0 0 1 .706.159l1.5 2.5a.5.5 0 0 1 .042.425l-2.428 6.8.904 1.808a.5.5 0 0 1-.326.71l-4 1a.5.5 0 0 1-.183.01l-4-.5a.5.5 0 0 1-.318-.821l.299-.349-2.38-5.631a.5.5 0 0 1-.013-.353l1-3a.5.5 0 0 1 .556-.335l.819.136-.395-2.567a.5.5 0 0 1 .217-.492l3-2ZM4.906 6.241a.512.512 0 0 0 .023.004l1.142.19.894 4.92-1.819 2.123-2.112-4.999.805-2.416 1.067.178Zm.579 8.378 2.984.373 3.305-.826-.685-1.37-1.688-1.688-1.587.794-2.33 2.717Zm2.388-3.864L6.992 5.91a.5.5 0 0 0-.41-.404l-1.143-.19-.396-2.578L7.5 1.101 10 2.768v1.298l-.777.518a.5.5 0 0 0-.216.334l-.958 5.749-.176.088Zm1.282-.641.121-.061a.5.5 0 0 1 .578.093l1.44 1.442 2.156-6.033-1.109-1.848-1.558 1.039a.48.48 0 0 1-.012.008l-.813.542-.803 4.818Z" clip-rule="evenodd"/></g><defs><clipPath id="a"><path fill="#fff" d="M0 0h16v16H0z"/></clipPath></defs></svg>
