<svg xmlns="http://www.w3.org/2000/svg" fill="none" viewBox="0 0 16 16"><circle cx="8" cy="4" r="4" fill="currentColor"/><path fill="currentColor" d="M14.24 10.89A2.5 2.5 0 1 0 12 10.5v3.86c0 .09.03.18.1.24l1.16 1.24c.14.15.37.15.51.01l1.17-1.13a.36.36 0 0 0 .03-.47L14 13l.9-.77a.36.36 0 0 0 .04-.5l-.7-.84Zm.01-3.14a.75.75 0 1 1-1.5 0 .75.75 0 0 1 1.5 0Z"/><path fill="currentColor" fill-rule="evenodd" d="M10.035 9A3.49 3.49 0 0 0 11 10.95v4.648c-.94.272-1.97.402-3 .402-3.5 0-7-1.5-7-5a2 2 0 0 1 2-2h7.035Z" clip-rule="evenodd"/></svg>
