<svg xmlns="http://www.w3.org/2000/svg" fill="none" viewBox="0 0 16 16"><g clip-path="url(#a)"><path stroke="currentColor" stroke-linejoin="round" d="m14.979 12.784-4.5 2.455a1 1 0 0 1-.958 0l-4.5-2.455a1 1 0 0 1-.521-.878V6.094a1 1 0 0 1 .521-.878l4.5-2.455a1 1 0 0 1 .958 0l4.5 2.455a1 1 0 0 1 .521.878v5.812a1 1 0 0 1-.521.878Z"/><path fill="currentColor" d="M11.5 0A1.5 1.5 0 0 1 13 1.5v.927l-1-.545V1.5a.5.5 0 0 0-.5-.5h-10a.5.5 0 0 0-.5.5v9a.5.5 0 0 0 .5.5H3v1H1.5A1.5 1.5 0 0 1 0 10.5v-9A1.5 1.5 0 0 1 1.5 0h10Z"/></g><defs><clipPath id="a"><path fill="#fff" d="M0 0h16v16H0z"/></clipPath></defs></svg>
