<svg xmlns="http://www.w3.org/2000/svg" fill="none" viewBox="0 0 16 16"><g clip-path="url(#a)"><path stroke="currentColor" stroke-linecap="round" d="M3 14.5h1.293a.5.5 0 0 0 .353-.146L11.71 7.29a.5.5 0 0 1 .631-.063l.899.6a.5.5 0 0 0 .53.015l.378-.222a.5.5 0 0 0 .101-.785l-.938-.938a.5.5 0 0 1 0-.708l1.934-1.934a.5.5 0 0 0 .094-.577l-.264-.529a.5.5 0 0 0-.224-.224l-.529-.264a.5.5 0 0 0-.577.094l-1.934 1.934a.5.5 0 0 1-.707 0l-.94-.938a.5.5 0 0 0-.784.1l-.222.38a.5.5 0 0 0 .015.53l.6.898a.5.5 0 0 1-.063.63l-7.064 7.065a.5.5 0 0 0-.146.353V14a.5.5 0 0 0 .5.5Z"/><path fill="currentColor" d="M1.963 8.255a1 1 0 0 0 1.082-.018l.893-.594.65.648.707-.707-.652-.65a1 1 0 0 0-1.26-.123l-.893.594-.397-.247.95-.949a1 1 0 0 0 0-1.414l-1.93-1.93.26-.498.536-.29 1.927 1.925A1 1 0 0 0 5.25 4l.933-.93.23.408-.6.902a1 1 0 0 0 .125 1.264l.65.646.707-.707-.65-.648.601-.903a1 1 0 0 0 .037-1.048l-.231-.408a1 1 0 0 0-1.577-.215l-.932.932-1.926-1.926a1.001 1.001 0 0 0-1.183-.172l-.538.291a.999.999 0 0 0-.41.417l-.26.498a1 1 0 0 0 .18 1.17l1.93 1.93-.95.95a1 1 0 0 0 .18 1.557l.397.246ZM13 14.959a1 1 0 0 0 1-1l.001-1.292c0-.266-.107-.522-.296-.71l-3.28-3.26-.707.706L13 12.667v1.292h-1.294l-3.281-3.263-.707.707L11 14.668c.187.186.441.29.705.291H13Z"/></g><defs><clipPath id="a"><path fill="#fff" d="M0 16h16V0H0z"/></clipPath></defs></svg>