<svg xmlns="http://www.w3.org/2000/svg" fill="none" viewBox="0 0 16 16"><g clip-path="url(#a)"><path fill="currentColor" d="M6.11 9.416a2.501 2.501 0 0 1 3.78 0l2.12 2.446c1.403 1.62.252 4.138-1.89 4.138H5.88c-2.142 0-3.293-2.519-1.89-4.138l2.12-2.446Zm3.024.655a1.5 1.5 0 0 0-2.268 0l-2.12 2.447C3.904 13.488 4.595 15 5.88 15h4.24c1.285 0 1.976-1.511 1.134-2.482l-2.12-2.447ZM9 3.5c0-.615-.15-1.148-.368-1.51C8.408 1.616 8.17 1.5 8 1.5c-.17 0-.408.117-.632.49C7.151 2.351 7 2.884 7 3.5s.15 1.148.368 1.51c.224.373.462.49.632.49.17 0 .408-.117.632-.49C8.849 4.649 9 4.116 9 3.5Zm1 0c0 .765-.185 1.483-.51 2.025-.32.533-.831.975-1.49.975s-1.17-.442-1.49-.975C6.186 4.983 6 4.265 6 3.5c0-.765.185-1.483.51-2.025C6.83.942 7.342.5 8 .5s1.17.442 1.49.975c.325.542.51 1.26.51 2.025Zm3.466 3.259c.16-.595.152-1.148.035-1.555-.12-.417-.32-.592-.483-.636-.164-.044-.425.008-.737.31-.304.293-.588.769-.747 1.363-.16.595-.152 1.148-.035 1.555.12.417.32.592.483.636.164.044.425-.008.737-.31.304-.293.588-.769.747-1.363Zm.966.259c-.198.739-.563 1.384-1.018 1.824-.446.431-1.054.726-1.69.556-.637-.17-1.016-.73-1.187-1.327-.174-.608-.167-1.35.031-2.089.198-.739.563-1.384 1.018-1.824.446-.431 1.054-.726 1.69-.556.637.17 1.016.73 1.187 1.327.174.608.167 1.35-.031 2.089Zm-9.966-.777c-.16-.594-.443-1.07-.747-1.364-.312-.301-.573-.353-.737-.309-.163.044-.364.219-.483.636-.117.407-.124.96.035 1.555.16.594.443 1.07.747 1.364.312.301.573.353.737.309.163-.044.364-.219.483-.636.117-.407.124-.96-.035-1.555Zm.966-.259c.198.74.205 1.48.03 2.089-.17.597-.55 1.156-1.186 1.327-.636.17-1.244-.125-1.69-.556-.455-.44-.82-1.085-1.018-1.824-.198-.74-.205-1.48-.03-2.089.17-.597.55-1.156 1.186-1.327.636-.17 1.244.125 1.69.556.455.44.82 1.085 1.018 1.824Z"/></g><defs><clipPath id="a"><path fill="#fff" d="M0 0h16v16H0z"/></clipPath></defs></svg>
