<svg xmlns="http://www.w3.org/2000/svg" fill="none" viewBox="0 0 16 16"><path fill="currentColor" fill-rule="evenodd" d="M1.207 1a1.207 1.207 0 0 0-.853 2.06L5 7.708v4.484a1 1 0 0 0 .553.894l.82.41a5.464 5.464 0 0 1-.327-1.281L6 12.19v-.655a5.52 5.52 0 0 1 0-.072V7.707A1 1 0 0 0 5.707 7L1.061 2.354A.207.207 0 0 1 1.207 2h10.586a.207.207 0 0 1 .146.354L7.293 7A1 1 0 0 0 7 7.707v.63a5.522 5.522 0 0 1 2.209-1.838l3.437-3.438A1.207 1.207 0 0 0 11.793 1H1.207Z" clip-rule="evenodd"/><path fill="currentColor" fill-rule="evenodd" d="M11.5 8a3.5 3.5 0 0 0-2.803 5.596l2.45-2.45a.5.5 0 0 1 .707.708l-2.45 2.45A3.5 3.5 0 0 0 15 11.5V8.499a.5.5 0 0 0-.5-.5h-3Zm-2.809 7.016A4.5 4.5 0 0 0 16 11.5v-3A1.5 1.5 0 0 0 14.5 7h-3a4.5 4.5 0 0 0-3.516 7.309l-.838.837a.5.5 0 0 0 .708.708l.837-.838Z" clip-rule="evenodd"/></svg>
