<svg xmlns="http://www.w3.org/2000/svg" fill="none" viewBox="0 0 16 16"><g clip-path="url(#a)"><path fill="currentColor" d="M7.796.794a.5.5 0 0 1 .472.033l7.5 4.75.051.038A.5.5 0 0 1 16 6c0 .68-.36 1.292-.833 1.808-.48.52-1.126.998-1.82 1.415-.766.458-1.618.858-2.423 1.173l.206-1.167a14.934 14.934 0 0 0 1.702-.864c.65-.39 1.209-.81 1.599-1.234.295-.322.467-.616.535-.877L8 1.842 1.033 6.254c.068.262.24.555.536.877.39.424.949.844 1.599 1.234.538.323 1.124.615 1.702.866l.206 1.168a16.599 16.599 0 0 1-2.423-1.176c-.694-.417-1.341-.894-1.82-1.415C.36 7.292 0 6.68 0 6a.5.5 0 0 1 .232-.423l7.5-4.75.064-.033Z"/><path stroke="currentColor" stroke-linecap="round" stroke-linejoin="round" d="M4 6.5c1.42.758 2.39 1 4 1 1.61 0 2.58-.242 4-1m-6 .801L7.5 15.5h1L10 7.301 8 4 6 7.301Z"/></g><defs><clipPath id="a"><path fill="#fff" d="M0 0h16v16H0z"/></clipPath></defs></svg>
