<svg xmlns="http://www.w3.org/2000/svg" fill="none" viewBox="0 0 16 16"><path fill="url(#a)" d="M0 1h3v8l-3 1V1Z"/><path fill="url(#b)" d="M3 .5h3v6H4.5v2H3v-8Z"/><path fill="url(#c)" d="M6 0h3v6.5l-1.5 1-1.5-1V0Z"/><path fill="url(#d)" d="M9 .5h3v8h-1.5v-2H9v-6Z"/><path fill="url(#e)" d="M15 1h-3v8l3 1V1Z"/><path stroke="currentColor" d="M4.5 9V7a.5.5 0 0 1 .5-.5h1a.5.5 0 0 1 .5.5v2a.5.5 0 0 1-.5.5H5a.5.5 0 0 1-.5-.5Zm4 0V7a.5.5 0 0 1 .5-.5h1a.5.5 0 0 1 .5.5v2a.5.5 0 0 1-.5.5H9a.5.5 0 0 1-.5-.5Zm-1.832 5.752-1.65-2.475a.5.5 0 0 1 .416-.777h4.132a.5.5 0 0 1 .416.777l-1.65 2.475a1 1 0 0 1-1.664 0Z"/><path stroke="currentColor" d="M8.5 14.5H11a.5.5 0 0 0 .5-.5.5.5 0 0 1 .5-.5h2a.5.5 0 0 0 .5-.5v-3a.5.5 0 0 0-.5-.5h-1a.5.5 0 0 1-.5-.5.5.5 0 0 0-.5-.5h-2m-1-1H6m-1 1H3a.5.5 0 0 0-.5.5.5.5 0 0 1-.5.5H1a.5.5 0 0 0-.5.5v3a.5.5 0 0 0 .5.5h2a.5.5 0 0 1 .5.5.5.5 0 0 0 .5.5h2.5"/><defs><linearGradient id="a" x1="1.5" x2="1.5" y1="1" y2="9" gradientUnits="userSpaceOnUse"><stop stop-color="red" stop-opacity="0"/><stop offset="1" stop-color="red"/></linearGradient><linearGradient id="b" x1="4.5" x2="4.5" y1=".5" y2="8" gradientUnits="userSpaceOnUse"><stop stop-color="#FF0" stop-opacity="0"/><stop offset="1" stop-color="#FF0"/></linearGradient><linearGradient id="c" x1="7.5" x2="7.5" y1="0" y2="7" gradientUnits="userSpaceOnUse"><stop stop-color="#0F0" stop-opacity="0"/><stop offset="1" stop-color="#0F0"/></linearGradient><linearGradient id="d" x1="10.5" x2="10.5" y1=".5" y2="8" gradientUnits="userSpaceOnUse"><stop stop-color="#00F" stop-opacity="0"/><stop offset="1" stop-color="#00F"/></linearGradient><linearGradient id="e" x1="13.5" x2="13.5" y1="1" y2="9" gradientUnits="userSpaceOnUse"><stop stop-color="#F0F" stop-opacity="0"/><stop offset="1" stop-color="#F0F"/></linearGradient></defs></svg>
