<svg xmlns="http://www.w3.org/2000/svg" fill="none" viewBox="0 0 16 16"><circle cx="8" cy="8" r="2.5" stroke="currentColor"/><path stroke="currentColor" stroke-linejoin="round" d="M2.706 2.687A7.492 7.492 0 0 0 .756 6.05S3.003 6.84 3 8C2.997 9.16.753 9.94.753 9.94a7.493 7.493 0 0 0 1.949 3.368s1.801-1.552 2.805-.973c1.004.58.563 2.914.563 2.914a7.53 7.53 0 0 0 3.883-.006s-.449-2.327.55-2.908c1-.58 2.8.968 2.8.968a7.492 7.492 0 0 0 1.945-3.366S13.002 9.159 13 8c-.002-1.16 2.246-1.943 2.246-1.943a7.492 7.492 0 0 0-1.94-3.358s-1.797 1.551-2.8.973C9.5 3.093 9.949.756 9.949.756A7.51 7.51 0 0 0 8 .5a7.51 7.51 0 0 0-1.93.25s.443 2.334-.56 2.913c-1.004.58-2.804-.976-2.804-.976Z"/></svg>
