<svg xmlns="http://www.w3.org/2000/svg" fill="none" viewBox="0 0 16 16"><path fill="currentColor" d="M14 7a3 3 0 0 0-3-3H4a3 3 0 1 0 3 3h1a3 3 0 0 0 6 0Zm1 0a4 4 0 0 1-7.5 1.937A4 4 0 1 1 4 3h7a4 4 0 0 1 4 4Z"/><path fill="currentColor" d="M15 11a5 5 0 0 1-8.535 3.535.5.5 0 0 1 0-.707l1.414-1.414a.5.5 0 0 1 .707 0 1.998 1.998 0 0 0 3.177-.473 4.96 4.96 0 0 0 1.174-.33A3 3 0 0 1 10 14a2.985 2.985 0 0 1-1.736-.558l-.716.716A4 4 0 0 0 14 11v-.001a5.024 5.024 0 0 0 1-1V11ZM13.5 0A1.5 1.5 0 0 1 15 1.5V4a5.026 5.026 0 0 0-1-1V1.5a.5.5 0 0 0-1 0v.916a4.962 4.962 0 0 0-1-.316v-.6A1.5 1.5 0 0 1 13.5 0Z"/></svg>
