<svg xmlns="http://www.w3.org/2000/svg" fill="none" viewBox="0 0 16 16"><path fill="currentColor" d="M2 3v1h6V3H2Zm1 10.5a.5.5 0 0 0 .5.5H6v-.5a.5.5 0 0 1 .686-.464l2.41.964h4.408a.496.496 0 0 0 .496-.496 3.483 3.483 0 0 0-2.526-3.349L7.362 8.98A.5.5 0 0 1 7 8.5V5H3v8.5ZM9 4a1 1 0 0 1-1 1v3.123l3.749 1.071A4.483 4.483 0 0 1 15 13.504C15 14.33 14.33 15 13.504 15H9a.5.5 0 0 1-.186-.036L7 14.237v.263a.5.5 0 0 1-.5.5h-3A1.5 1.5 0 0 1 2 13.5V5a1 1 0 0 1-1-1V3a1 1 0 0 1 1-1h6a1 1 0 0 1 1 1v1Z"/></svg>
