<svg xmlns="http://www.w3.org/2000/svg" fill="none" viewBox="0 0 16 16"><g clip-path="url(#a)"><path fill="currentColor" d="M6.7 5C5.76 5 5 5.76 5 6.7 5 7.42 5.58 8 6.3 8h3.4c.72 0 1.3-.58 1.3-1.3 0-.94-.76-1.7-1.7-1.7H6.7ZM6 6.7c0-.39.31-.7.7-.7h2.6c.39 0 .7.31.7.7a.3.3 0 0 1-.3.3H6.3a.3.3 0 0 1-.3-.3ZM8 0a2.5 2.5 0 0 0-2.5 2.5v.04A6 6 0 0 0 2 8v5a3 3 0 0 0 3 3h6a3 3 0 0 0 3-3V8a6 6 0 0 0-3.5-5.46V2.5A2.5 2.5 0 0 0 8 0Zm5 10H3V8a5 5 0 0 1 10 0v2Zm-8 2.5a.5.5 0 0 0 1 0V11h7v2a2 2 0 0 1-2 2H5a2 2 0 0 1-2-2v-2h2v1.5ZM8 2c-.5 0-1 .06-1.47.18a1.5 1.5 0 0 1 2.94 0A6.01 6.01 0 0 0 8 2Z"/></g><defs><clipPath id="a"><path fill="#fff" d="M0 0h16v16H0z"/></clipPath></defs></svg>