<svg xmlns="http://www.w3.org/2000/svg" fill="none" viewBox="0 0 16 16"><path fill="currentColor" d="M12.5 1a.5.5 0 0 1 .498.462l1 13A.5.5 0 0 1 13.5 15h-4a.5.5 0 0 1-.494-.426L8 7.871l-1.006 6.703A.5.5 0 0 1 6.5 15h-4a.5.5 0 0 1-.498-.538l1-13 .016-.095A.5.5 0 0 1 3.5 1h9ZM3.04 14h3.03l.94-6.277c.171-1.136 1.809-1.136 1.98 0L9.93 14h3.03l-.923-12H3.963l-.924 12Z"/><path fill="currentColor" d="M10.332 4.124a1 1 0 0 0 .992.876H13v1h-1.676A2 2 0 0 1 9.34 4.248l-.336-2.686.992-.125.336 2.687ZM6.996 1.563 6.66 4.248A2 2 0 0 1 4.676 6H3V5h1.676a1 1 0 0 0 .992-.876l.336-2.686.992.125Z"/></svg>
