<svg xmlns="http://www.w3.org/2000/svg" fill="none" viewBox="0 0 16 16"><path fill="currentColor" fill-rule="evenodd" d="M7.5 0a.5.5 0 0 1 .482.368l.97 3.554 2.372-.89a.5.5 0 0 1 .644.644l-.89 2.373 3.554.969a.5.5 0 0 1 0 .964l-3.554.97.89 2.372a.5.5 0 0 1-.644.644l-2.373-.89-.969 3.554a.5.5 0 0 1-.964 0l-.97-3.554-2.372.89a.5.5 0 0 1-.644-.644l.89-2.373-3.554-.969a.5.5 0 0 1 0-.964l3.554-.97-.89-2.372a.5.5 0 0 1 .644-.644l2.373.89.969-3.554A.5.5 0 0 1 7.5 0ZM5.784 4.89l-1.43-.536.537 1.43.426-.116a.5.5 0 0 0 .351-.35l.116-.427Zm-.893 4.326-.537 1.43 1.43-.537-.116-.426a.5.5 0 0 0-.35-.351l-.427-.116Zm4.325.893 1.43.537-.537-1.43-.426.116a.5.5 0 0 0-.351.35l-.116.427Zm.893-4.325.537-1.43-1.43.537.116.426a.5.5 0 0 0 .35.351l.427.116ZM7.5 2.4l-.867 3.18A1.5 1.5 0 0 1 5.58 6.633L2.4 7.5l3.18.867A1.5 1.5 0 0 1 6.633 9.42L7.5 12.6l.867-3.18A1.5 1.5 0 0 1 9.42 8.367L12.6 7.5l-3.18-.867A1.5 1.5 0 0 1 8.367 5.58L7.5 2.4Z" clip-rule="evenodd"/></svg>
