<svg xmlns="http://www.w3.org/2000/svg" fill="none" viewBox="0 0 16 16"><g clip-path="url(#a)"><path stroke="currentColor" stroke-linecap="round" stroke-linejoin="round" d="M11.207 6.207 13.5 8.5l1-1v-1h1v-2l-1.293-1.293m-3 3L9.823 7.591m1.384-1.384.5-.5m2.5-2.5-1.414-1.414-4.494 4.494m5.908-3.08-.5.5m-5.408 2.58C7.726 5.837 7.136 5.417 6.5 5L9 2.5l-2-2v1.086L5.043 3.543 2 .5.5 2l3.043 3.043L1.586 7H.5l2 2L5 6.5c.414.63.84 1.23 1.287 1.8m2.012-2.013c.532.417 1.039.851 1.524 1.304m0 0c2.257 2.11 4.041 4.638 5.677 7.909-3.271-1.636-5.8-3.42-7.909-5.677m0 0a23.362 23.362 0 0 1-1.304-1.524M7.59 9.823l-1.383 1.383a3.001 3.001 0 1 1-1.414-1.414L6.287 8.3"/><circle cx="3.5" cy="12.5" r="1.25" fill="currentColor"/></g><defs><clipPath id="a"><path fill="#fff" d="M0 0h16v16H0z"/></clipPath></defs></svg>