<svg xmlns="http://www.w3.org/2000/svg" fill="none" viewBox="0 0 16 16"><path fill="currentColor" d="M11.5 7H11v.5h.5V7Zm-7 0v.5H5V7h-.5Zm4.354 2.854a.5.5 0 1 0-.708-.708l.708.708ZM6.5 11.5l-.354-.354A.5.5 0 0 0 6.5 12v-.5Zm3 0 .384.32A.5.5 0 0 0 9.5 11v.5Zm-2.884 2.68a.5.5 0 0 0 .768.64l-.768-.64ZM5 7a3 3 0 0 1 3-3V3a4 4 0 0 0-4 4h1Zm3-3a3 3 0 0 1 3 3h1a4 4 0 0 0-4-4v1Zm-4.25 7A1.75 1.75 0 0 1 2 9.25H1A2.75 2.75 0 0 0 3.75 12v-1ZM2 9.25c0-.966.784-1.75 1.75-1.75v-1A2.75 2.75 0 0 0 1 9.25h1ZM4.5 6.5h-.75v1h.75v-1Zm7.75 5.5A2.75 2.75 0 0 0 15 9.25h-1A1.75 1.75 0 0 1 12.25 11v1ZM15 9.25a2.75 2.75 0 0 0-2.75-2.75v1c.966 0 1.75.784 1.75 1.75h1ZM12.25 6.5h-.75v1h.75v-1Zm0 4.5H11v1h1.25v-1Zm-8.5 1H5v-1H3.75v1Zm4.396-2.854-2 2 .708.708 2-2-.708-.708ZM6.5 12h3v-1h-3v1Zm2.616-.82-2.5 3 .768.64 2.5-3-.768-.64Z"/></svg>
