<svg xmlns="http://www.w3.org/2000/svg" fill="none" viewBox="0 0 16 16"><path stroke="currentColor" stroke-linecap="round" stroke-linejoin="round" d="M7.5 13.5h-.697a1 1 0 0 1-.555-.168l-2.303-1.535a1 1 0 0 1-.445-.832V9.5m4 4h.697a1 1 0 0 0 .555-.168l2.303-1.535a1 1 0 0 0 .445-.832V9.5m-4 4V8m3.874-2.5 3.126-3c0 4.5-.5 6.5-3 7m0 0v-3a4 4 0 1 0-8 0v3m.126-4L.5 2.5c0 4.5.5 6.5 3 7"/><path fill="currentColor" d="M7.386 6.514a.5.5 0 0 1 .338.039l2 1 .066.04a.5.5 0 0 1-.169.892l-2 .5a.5.5 0 0 1-.242 0l-2-.5a.5.5 0 0 1-.103-.932l2-1 .11-.04Z"/></svg>