<svg xmlns="http://www.w3.org/2000/svg" fill="none" viewBox="0 0 16 16"><g clip-path="url(#a)"><path stroke="currentColor" d="M4.5 5.5 3.354 6.646a.5.5 0 0 1-.708 0L.854 4.854a.5.5 0 0 1 0-.708l2.5-2.5a.5.5 0 0 1 .353-.146h3.586a.5.5 0 0 1 .353.854L6 4M4.5 5.5 6 7M4.5 5.5 6 4m0 0 1.5 1.5M9 10l3.25 3.25a1.06 1.06 0 0 0 1.5-1.5L10.5 8.5"/><path stroke="currentColor" stroke-linecap="round" d="M14 2.5h-1.293a.5.5 0 0 0-.353.146L5.56 9.44a.5.5 0 0 1-.708 0l-.792-.792a.5.5 0 0 0-.708 0l-.706.707a.5.5 0 0 0 0 .707l1.042 1.043a.5.5 0 0 1 0 .707l-1.835 1.835a.5.5 0 0 0 0 .708l.792.793a.5.5 0 0 0 .708 0l1.835-1.836a.5.5 0 0 1 .708 0l1.042 1.043a.5.5 0 0 0 .708 0l.706-.707a.5.5 0 0 0 0-.708l-.792-.793a.5.5 0 0 1 0-.707l6.793-6.793a.5.5 0 0 0 .146-.353V3a.5.5 0 0 0-.5-.5Z"/></g><defs><clipPath id="a"><path fill="#fff" d="M0 0h16v16H0z"/></clipPath></defs></svg>
