<svg xmlns="http://www.w3.org/2000/svg" fill="none" viewBox="0 0 16 16"><path fill="currentColor" d="M7.939.26a.5.5 0 0 0-.878 0L3.815 6.22a1.5 1.5 0 1 1-.202-1.726l.495-.908A2.5 2.5 0 1 0 4.692 6.7L7.5 1.544 9.134 4.54c.114-.401.298-.773.538-1.101L7.939.26ZM12.658 11H9.949c.293.287.536.625.714 1H13.5a.5.5 0 0 0 .439-.74l-2.756-5.042a1.5 1.5 0 1 1 1.56.762l.496.909a2.5 2.5 0 1 0-2.934-1.192L12.658 11ZM1.5 12a.5.5 0 0 1-.439-.74l1.236-2.266a3.558 3.558 0 0 0 1.218-.143L2.342 11H7.5a2.5 2.5 0 1 1-2.45 2h1.035A1.5 1.5 0 1 0 7.5 12h-6Z"/></svg>
