<svg xmlns="http://www.w3.org/2000/svg" fill="none" viewBox="0 0 16 16"><path fill="currentColor" d="M8.43 1.246a.5.5 0 0 0-.86 0L4.488 6.46a1 1 0 1 1-.38-1.322l.509-.86a2 2 0 1 0 .678 2.783L8 2.483l1.607 2.72c.108-.391.292-.75.536-1.06L8.43 1.247ZM13.624 12h-3.388c.258.289.462.627.593 1H14.5a.5.5 0 0 0 .43-.754l-3.364-5.693a1 1 0 1 1 1.343.308l.51.86A1.999 1.999 0 0 0 12.399 4a2 2 0 0 0-1.695 3.061L13.624 12ZM1.5 13a.5.5 0 0 1-.43-.754L3.01 8.96a3.021 3.021 0 0 0 1.187-.041L2.377 12H8a2 2 0 1 1-2 2h1a1 1 0 1 0 1-1H1.5Z"/></svg>
