<svg xmlns="http://www.w3.org/2000/svg" fill="none" viewBox="0 0 16 16"><path stroke="currentColor" d="M2.5 3.707v.484c0 .19.108.362.26.476.296.222.74.666.74 1.333 0 .667-.444 1.111-.74 1.333a.61.61 0 0 0-.26.476V14a.5.5 0 0 0 .5.5h10a.5.5 0 0 0 .5-.5V7.809a.61.61 0 0 0-.26-.476c-.296-.222-.74-.666-.74-1.333 0-.667.444-1.111.74-1.333a.61.61 0 0 0 .26-.476v-.484a.45.45 0 0 0-.153-.345C12.818 2.909 10.937 1.5 8 1.5c-2.937 0-4.818 1.409-5.347 1.862a.45.45 0 0 0-.153.345Z"/><path stroke="currentColor" d="M5.5 14.5V9A1.5 1.5 0 0 1 7 7.5h2A1.5 1.5 0 0 1 10.5 9v5.5"/><path stroke="currentColor" stroke-linecap="round" d="M5.5 5.5h5"/></svg>