<svg xmlns="http://www.w3.org/2000/svg" fill="none" viewBox="0 0 16 16"><g clip-path="url(#a)"><path fill="currentColor" d="M12.183 11.922c.26-.354.49-.73.683-1.123.19-.39.344-.798.454-1.222 1.708.26 2.294-.254 2.18-3.23-1.114.403-1.625 1-2.136 3.05.105-.46.16-.94.155-1.435a6.505 6.505 0 0 0-.226-1.616C14.8 5.38 15.397 4.69 15 2.576c-1.683 1.064-1.83 1.98-1.707 3.77-.127-.479-.56-1.466-.56-1.466.554-1.7.322-2.454-1.233-3.38-.328 1.879-.044 2.61 1.232 3.38 0 0 .434.987.561 1.466.148.554.22 1.093.226 1.616a6.13 6.13 0 0 1-.199 1.615 6.54 6.54 0 0 1-.454 1.222c-.193.394-.423.77-.683 1.123.817 1.424 2.317 1.424 3.317-.73-1.5-.538-2 0-3.317.73Z"/><path stroke="currentColor" stroke-linecap="round" stroke-linejoin="round" d="M5.5 15.5c1.79 0 3.895-.852 5.5-2.284.437-.39.837-.823 1.183-1.294m0 0c.26-.354.49-.73.683-1.123.19-.39.344-.798.454-1.222m-1.137 2.345c1.317-.73 1.817-1.268 3.317-.73-1 2.154-2.5 2.154-3.317.73Zm1.137-2.345c1.708.26 2.294-.254 2.18-3.23-1.146.414-1.653 1.035-2.18 3.23Zm0 0a6.136 6.136 0 0 0 .199-1.615 6.505 6.505 0 0 0-.226-1.616m0 0C14.8 5.38 15.397 4.69 15 2.576c-1.683 1.064-1.83 1.98-1.707 3.77Zm0 0c-.127-.479-.56-1.466-.56-1.466m0 0c-1.277-.77-1.56-1.501-1.233-3.38 1.555.926 1.787 1.68 1.232 3.38Z"/><path fill="currentColor" d="M3.817 11.922c-.26-.354-.49-.73-.683-1.123a6.534 6.534 0 0 1-.454-1.222C.972 9.837.386 9.323.5 6.347c1.114.403 1.625 1 2.136 3.05a6.13 6.13 0 0 1-.155-1.435 6.508 6.508 0 0 1 .226-1.616C1.202 5.38.603 4.69 1 2.576c1.683 1.064 1.83 1.98 1.707 3.77.128-.479.56-1.466.56-1.466-.554-1.7-.322-2.454 1.233-3.38.328 1.879.045 2.61-1.232 3.38 0 0-.433.987-.561 1.466a6.508 6.508 0 0 0-.226 1.616 6.13 6.13 0 0 0 .199 1.615c.11.424.264.832.454 1.222.193.394.423.77.683 1.123C3 13.346 1.5 13.346.5 11.192c1.5-.538 2 0 3.317.73Z"/><path stroke="currentColor" stroke-linecap="round" stroke-linejoin="round" d="M10.5 15.5c-1.79 0-3.895-.852-5.5-2.284a8.457 8.457 0 0 1-1.183-1.294m0 0c-.26-.354-.49-.73-.683-1.123a6.534 6.534 0 0 1-.454-1.222m1.137 2.345C2.5 11.192 2 10.654.5 11.192c1 2.154 2.5 2.154 3.317.73ZM2.68 9.577C.972 9.837.386 9.323.5 6.347c1.146.414 1.653 1.035 2.18 3.23Zm0 0a6.138 6.138 0 0 1-.199-1.615 6.508 6.508 0 0 1 .226-1.616m0 0C1.202 5.38.603 4.69 1 2.576c1.683 1.064 1.83 1.98 1.707 3.77Zm0 0c.128-.479.56-1.466.56-1.466m0 0C4.546 4.11 4.828 3.38 4.5 1.5c-1.555.926-1.787 1.68-1.232 3.38Z"/><path stroke="currentColor" stroke-linejoin="round" d="m8 4 1 2.5h2.5L9.453 8.472l.898 2.764L8 9.528l-2.351 1.708.898-2.764L4.5 6.5H7L8 4Z"/></g><defs><clipPath id="a"><path fill="#fff" d="M0 0h16v16H0z"/></clipPath></defs></svg>
