<svg xmlns="http://www.w3.org/2000/svg" fill="none" viewBox="0 0 16 16"><g clip-path="url(#a)"><path fill="currentColor" d="m10.88 12-1.007-.973c-.324.305-.72.567-1.19.786-.468.214-1.015.322-1.64.322-.848 0-1.541-.207-2.08-.621-.535-.418-.803-1.022-.803-1.81 0-.579.156-1.071.469-1.477.316-.407.76-.747 1.33-1.02-.297-.336-.508-.648-.633-.937a2.223 2.223 0 0 1-.187-.891c0-.617.21-1.092.632-1.424.426-.332.954-.498 1.583-.498.617 0 1.12.162 1.511.486.39.325.586.758.586 1.301 0 .457-.129.842-.387 1.154-.253.313-.79.645-1.61.997L9.89 9.727a3.44 3.44 0 0 0 .586-1.096c.117-.379.175-.834.175-1.365h.985c0 .601-.092 1.146-.276 1.634a5.08 5.08 0 0 1-.832 1.43L12.264 12H10.88ZM6.886 6.838c.625-.23 1.047-.457 1.265-.68.22-.222.329-.5.329-.832 0-.37-.122-.638-.364-.803a1.316 1.316 0 0 0-.761-.252c-.372 0-.67.102-.897.305-.223.2-.334.469-.334.809 0 .261.064.504.193.726.13.22.319.461.569.727Zm2.367 3.58L6.539 7.793c-.383.176-.7.406-.95.691-.245.286-.368.68-.368 1.184 0 .508.174.898.521 1.172.352.273.787.41 1.307.41.476 0 .894-.078 1.254-.234.36-.16.676-.36.949-.598Z"/><path stroke="currentColor" stroke-linecap="round" stroke-linejoin="round" d="M3.5.5H1C.5 2 .5 6 .5 8s0 6 .5 7.5h2.5m9 0H15c.5-1.5.5-5.5.5-7.5s0-6-.5-7.5h-2.5"/></g><defs><clipPath id="a"><path fill="#fff" d="M0 0h16v16H0z"/></clipPath></defs></svg>
