<svg xmlns="http://www.w3.org/2000/svg" fill="none" viewBox="0 0 16 16"><g clip-path="url(#a)"><circle cx="8" cy="8" r="7.5" stroke="currentColor"/><path stroke="currentColor" d="M8.794 3.564a4.5 4.5 0 0 0-1.525.002.464.464 0 0 0-.374.494l.019.317c.052.896-1.012 1.401-1.674.795l-.033-.03c-.197-.18-.505-.176-.673.032a4.5 4.5 0 0 0-.71 1.244c-.088.235.04.49.27.585l.178.074c.823.34.823 1.506 0 1.847l-.177.074a.463.463 0 0 0-.27.585c.168.45.408.87.71 1.243.168.208.475.213.672.033l.034-.03c.661-.607 1.725-.102 1.673.794l-.018.318a.464.464 0 0 0 .374.493 4.5 4.5 0 0 0 1.524.002.464.464 0 0 0 .374-.505l-.024-.288c-.072-.898.986-1.427 1.66-.83l.063.056c.198.175.5.168.667-.037.303-.375.544-.795.714-1.246a.463.463 0 0 0-.275-.587l-.179-.072c-.833-.337-.834-1.517 0-1.854L11.973 7a.463.463 0 0 0 .275-.587 4.5 4.5 0 0 0-.714-1.245c-.167-.206-.47-.213-.668-.038l-.062.056c-.674.597-1.733.069-1.66-.829l.023-.289a.464.464 0 0 0-.373-.504Z"/><circle cx="8" cy="8" r="1" fill="#000"/></g><defs><clipPath id="a"><path fill="#fff" d="M0 0h16v16H0z"/></clipPath></defs></svg>