<svg xmlns="http://www.w3.org/2000/svg" fill="none" viewBox="0 0 16 16"><g clip-path="url(#a)"><path stroke="currentColor" stroke-linejoin="round" d="M9.983 1.401 8.828.876a2 2 0 0 0-1.656 0l-1.155.525A6 6 0 0 0 2.5 6.863V7.5l4 1V11a1.5 1.5 0 0 0 3 0V8.5l4-1v-.637a6 6 0 0 0-3.517-5.462Z"/><path stroke="currentColor" stroke-linejoin="round" d="M4.5 8v7.5l-1.417-.472a2 2 0 0 1-1.347-2.18L2.5 7.5m9 .5v7.5l1.416-.472a2 2 0 0 0 1.348-2.18L13.5 7.5"/></g><defs><clipPath id="a"><path fill="#fff" d="M0 0h16v16H0z"/></clipPath></defs></svg>