<svg xmlns="http://www.w3.org/2000/svg" fill="none" viewBox="0 0 16 16"><g clip-path="url(#a)"><path stroke="currentColor" stroke-linejoin="round" d="m11.632 12.19-2.12-2.446a2 2 0 0 0-3.023 0l-2.12 2.446c-1.123 1.295-.203 3.31 1.51 3.31h4.241c1.714 0 2.634-2.015 1.512-3.31Z"/><path stroke="currentColor" d="M6.449 3.612c.357 1.333-.002 2.588-.802 2.803-.8.214-1.739-.693-2.096-2.027-.357-1.333.002-2.588.802-2.803.8-.214 1.739.693 2.096 2.027Z"/><ellipse cx="10.5" cy="4" stroke="currentColor" rx="1.5" ry="2.5" transform="rotate(15 10.5 4)"/><ellipse cx="14.05" cy="8.338" stroke="currentColor" rx="1.212" ry="2" transform="rotate(30 14.05 8.338)"/><ellipse cx="2.05" cy="8.338" stroke="currentColor" rx="1.212" ry="2" transform="rotate(-30 2.05 8.338)"/></g><defs><clipPath id="a"><path fill="#fff" d="M0 0h16v16H0z"/></clipPath></defs></svg>