<svg xmlns="http://www.w3.org/2000/svg" fill="none" viewBox="0 0 16 16"><path fill="currentColor" d="M.5 11a.5.5 0 0 0 0 1v-1Zm15-6.5.354.354a.5.5 0 0 0 0-.708L15.5 4.5ZM.5 4a.5.5 0 0 0 0 1V4Zm15 7.5.354.354a.5.5 0 0 0 0-.708l-.354.354ZM8.796 8.97a.5.5 0 0 0-.592.807l.592-.806Zm5.058-6.824a.5.5 0 0 0-.708.708l.708-.708Zm-.708 4a.5.5 0 0 0 .708.708l-.708-.708Zm.708 3a.5.5 0 0 0-.708.708l.708-.708Zm-.708 4a.5.5 0 0 0 .708.708l-.708-.708ZM.5 5c2.763 0 4.111 1.57 6.034 3.366l.682-.732C5.39 5.93 3.736 4 .5 4v1Zm0 7c3.237 0 4.889-1.93 6.716-3.634l-.682-.732C4.61 9.43 3.264 11 .5 11v1Zm6.716-3.634c.926-.865 1.914-1.699 3.205-2.322C11.707 5.424 13.319 5 15.5 5V4c-2.319 0-4.082.452-5.514 1.143-1.428.69-2.503 1.606-3.452 2.491l.682.732Zm.988 1.41C9.904 11.026 12.094 12 15.5 12v-1c-3.181 0-5.167-.9-6.704-2.03l-.592.807Zm4.942-6.922 2 2 .708-.708-2-2-.708.708Zm.708 4 2-2-.708-.708-2 2 .708.708Zm-.708 3 2 2 .708-.708-2-2-.708.708Zm.708 4 2-2-.708-.708-2 2 .708.708Z"/></svg>
