<svg xmlns="http://www.w3.org/2000/svg" fill="none" viewBox="0 0 24 48"><path fill="#fff" d="M0 40h24v4H0z"/><path fill="#fff" fill-rule="evenodd" d="M24 32v4H0v-4h2.764a2 2 0 0 0 1.789-1.106l1.894-3.788A2 2 0 0 1 8.237 26h3.527a2 2 0 0 1 1.789 1.106l1.894 3.788A2 2 0 0 0 17.237 32H24ZM9.618 30a1 1 0 1 0 0 2h.764a1 1 0 0 0 0-2h-.764Z" clip-rule="evenodd"/><path fill="#fff" fill-rule="evenodd" d="M15.553 23.106A2 2 0 0 0 13.763 22H6.237a2 2 0 0 0-1.789 1.106l-.894 1.788A2 2 0 0 1 1.763 26H0v-6c.558 0 1.141-.304 1.957-1.316.855-1.062 1.572-2.37 2.67-4.016C6.703 11.554 9.72 8 15.5 8a7.5 7.5 0 0 1 6.976 10.259c-.303.766.202 1.741 1.026 1.741H24v6h-5.764a2 2 0 0 1-1.789-1.106l-.894-1.788ZM15.5 13a5.5 5.5 0 0 0-5.496 5.697C10.027 19.36 9.548 20 8.885 20h-4.16c.815-1.123 1.631-2.518 2.398-3.668C9.047 13.446 11.28 11 15.5 11a4.5 4.5 0 1 1 0 9 1.5 1.5 0 0 1 0-3 2 2 0 1 0 0-4Z" clip-rule="evenodd"/><circle cx="15" cy="3" r="2" fill="#fff"/><circle cx="3" cy="3" r="2" fill="#fff"/></svg>
