<svg xmlns="http://www.w3.org/2000/svg" fill="none" viewBox="0 0 210 80"><g clip-path="url(#a)"><path fill="#4CAF50" d="m198.147 79.277 10.121-20.234-17.205-1.252 7.084 21.486Z"/><path fill="#FFC107" d="m172.445 77.676 10.786-19.887-17.154-1.822 6.368 21.709Z"/><path fill="#3F51B5" d="m146.258 73.88 11.837-19.28-17.032-2.74 5.195 22.02Z"/><path fill="#4CAF50" d="m121.197 68.277 13.298-18.302-16.767-4.054 3.469 22.356Z"/><path fill="#FFC107" d="m96.261 62.01 14.667-17.226-16.406-5.331 1.74 22.556Z"/><path fill="#3F51B5" d="m71.921 52.427 15.992-16.002-15.929-6.621-.063 22.623Z"/><path fill="#4CAF50" d="m45.58 40.16 17.569-14.254-15.154-8.241-2.416 22.494Z"/><path fill="#FFC107" d="m23.483 28.014 18.094-13.58-14.833-8.807-3.261 22.387Z"/><path fill="#3F51B5" d="m3.708 16.216 17.69-14.102-15.082-8.37-2.608 22.472Z"/><path stroke="#fff" stroke-width="2" d="M16-2c61.362 40.548 105.545 56.388 195 61.365"/></g><defs><clipPath id="a"><path fill="#fff" d="M0 0h210v80H0z"/></clipPath></defs></svg>
