<?xml version="1.0" standalone="no"?>
<!DOCTYPE svg PUBLIC "-//W3C//DTD SVG 20010904//EN"
 "http://www.w3.org/TR/2001/REC-SVG-20010904/DTD/svg10.dtd">
<svg version="1.0" xmlns="http://www.w3.org/2000/svg"
 width="700.000000pt" height="700.000000pt" viewBox="0 0 700.000000 700.000000"
 preserveAspectRatio="xMidYMid meet">
<g transform="translate(0.000000,700.000000) scale(0.100000,-0.100000)"
fill="#000000" stroke="none">
<path d="M1590 6114 c-75 -17 -170 -68 -216 -116 -32 -33 -827 -1111 -1140
-1546 -66 -91 -95 -166 -99 -258 -5 -86 7 -141 45 -219 30 -62 39 -72 282
-328 78 -83 154 -163 168 -177 14 -15 84 -89 157 -166 176 -187 193 -205 363
-384 81 -85 166 -175 189 -200 24 -25 103 -108 176 -185 73 -77 152 -161 176
-186 24 -26 105 -111 180 -190 75 -79 151 -160 169 -179 18 -19 97 -102 175
-185 78 -82 157 -166 175 -185 18 -19 71 -76 119 -126 75 -78 341 -360 425
-449 297 -316 322 -337 432 -375 102 -35 213 -28 323 22 51 22 85 49 160 126
88 90 326 340 416 437 21 22 104 110 185 195 81 85 164 173 185 195 20 22 94
101 165 175 71 74 145 153 166 175 20 22 101 108 179 190 79 83 157 166 175
185 18 19 103 109 189 199 86 91 167 176 181 191 14 15 91 96 172 181 80 85
163 172 183 194 21 22 99 105 175 185 76 80 154 163 175 185 36 38 319 337
341 359 132 135 168 333 90 500 -13 28 -164 242 -335 476 -372 507 -295 401
-572 780 -127 173 -244 332 -260 353 -44 55 -128 113 -200 138 l-64 22 -1878
1 c-1339 1 -1892 -2 -1927 -10z"/>
</g>
</svg>
