<svg xmlns="http://www.w3.org/2000/svg" width="722" height="109" fill="none" viewBox="0 0 722 109">
  <path fill="#B7000D" d="M0 0h722v109H0z"/>
  <path fill="#fff" d="M144.64 91.488c-5.333 0-9.301-.704-11.904-2.112-2.603-1.408-3.904-3.499-3.904-6.272 0-2.133.725-3.925 2.176-5.376 1.493-1.408 3.669-2.581 6.528-3.52L137.408 76c-1.621-.128-2.944-.555-3.968-1.28s-1.536-1.685-1.536-2.88c0-.384.064-.79.192-1.216.128-.427.363-.96.704-1.6.341-.683.811-1.515 1.408-2.496.597-.981 1.344-2.219 2.24-3.712l.128 1.472c-2.133-.981-3.755-2.368-4.864-4.16-1.109-1.792-1.664-3.925-1.664-6.4 0-3.968 1.344-7.061 4.032-9.28 2.731-2.261 6.507-3.392 11.328-3.392 3.456 0 6.4.597 8.832 1.792l-2.048-.384 10.688-.384v4.8l-5.056 1.024.576-.96a8.196 8.196 0 0 1 1.472 2.688c.341 1.024.512 2.197.512 3.52 0 3.968-1.387 7.104-4.16 9.408-2.773 2.261-6.507 3.392-11.2 3.392a22.74 22.74 0 0 1-6.4-.896l1.472-.896-1.024 6.848-1.344-.64h12.8c4.309 0 7.573.832 9.792 2.496 2.219 1.664 3.328 4.096 3.328 7.296 0 3.67-1.6 6.464-4.8 8.384-3.157 1.963-7.893 2.944-14.208 2.944Zm.768-6.272c3.413 0 5.867-.363 7.36-1.088 1.536-.725 2.304-1.792 2.304-3.2 0-1.365-.512-2.368-1.536-3.008-1.024-.64-2.496-.96-4.416-.96h-11.136l2.112-.448c-2.304 1.45-3.456 3.093-3.456 4.928 0 1.237.704 2.176 2.112 2.816 1.408.64 3.627.96 6.656.96Zm-.384-25.28c2.091 0 3.691-.555 4.8-1.664 1.109-1.11 1.664-2.752 1.664-4.928s-.512-3.755-1.536-4.736c-1.024-1.024-2.56-1.536-4.608-1.536-2.091 0-3.669.533-4.736 1.6-1.067 1.067-1.6 2.667-1.6 4.8 0 2.09.512 3.69 1.536 4.8 1.024 1.11 2.517 1.664 4.48 1.664Zm59.411-17.856 13.632-.512v4.544l-3.968 1.28 1.152-.96-8.128 29.696h-9.665l-6.911-27.52 1.728.064-7.808 27.456h-9.664l-7.552-29.312.96.832-3.905-.96V42.08l15.105-.512v4.544l-4.672 1.28.96-.704 5.376 24.064h-1.472l7.616-28.736 9.152-.512 7.04 29.568h-1.344l5.888-24.192.832.832-4.352-1.024V42.08ZM220.053 76v-7.68c4.864-4.01 8.832-7.445 11.904-10.304 3.114-2.859 5.418-5.419 6.912-7.68 1.493-2.304 2.24-4.565 2.24-6.784 0-2.219-.704-3.861-2.112-4.928-1.408-1.067-3.2-1.6-5.376-1.6-1.024 0-2.134.128-3.328.384a26.458 26.458 0 0 0-3.712.96l1.024-1.536-1.152 7.232h-5.44l-.704-11.456a54.457 54.457 0 0 1 7.744-1.792c2.517-.427 4.885-.64 7.104-.64 3.029 0 5.717.405 8.064 1.216 2.346.81 4.181 2.112 5.504 3.904 1.322 1.792 1.983 4.117 1.983 6.976 0 3.115-.789 6.101-2.367 8.96-1.579 2.859-3.862 5.803-6.848 8.832-2.987 2.987-6.614 6.25-10.88 9.792v-1.024h21.056V76h-31.616Zm48.158.768c-2.944 0-5.184-.875-6.72-2.624-1.493-1.792-2.24-4.437-2.24-7.936V46.624l1.152 1.152h-6.144v-4.8l6.272-1.472-1.28 1.536v-8.704l9.024-1.6V43.04l-.96-1.216h9.728l-.128 5.952h-9.6l.96-1.152v18.368c0 1.835.299 3.157.896 3.968.597.81 1.493 1.216 2.688 1.216.683 0 1.429-.107 2.24-.32a35.933 35.933 0 0 0 2.752-.96l1.664 4.928c-3.584 1.963-7.019 2.944-10.304 2.944Zm12.77-.768v-4.608l5.184-1.472-.896 1.344V46.688l1.024 1.536-5.312-1.6v-4.608l11.264-.512 1.152 6.08-1.152-.256c1.92-2.005 3.819-3.541 5.696-4.608 1.877-1.11 3.883-1.664 6.016-1.664 1.365 0 2.816.213 4.352.64l-.576 11.84h-5.184l-.96-6.912.832 1.728a4.754 4.754 0 0 0-.832-.192 4.66 4.66 0 0 0-.768-.064c-1.323 0-2.645.405-3.968 1.216a12.22 12.22 0 0 0-3.328 3.136l.704-2.432v21.248l-1.024-1.344 6.336 1.472V76h-18.56Zm44.744.768c-3.115 0-5.845-.64-8.192-1.92-2.347-1.323-4.181-3.264-5.504-5.824-1.28-2.603-1.92-5.76-1.92-9.472 0-3.84.683-7.125 2.048-9.856 1.408-2.773 3.371-4.907 5.888-6.4 2.517-1.493 5.483-2.24 8.896-2.24 3.328 0 6.037.661 8.128 1.984s3.627 3.136 4.608 5.44c.981 2.261 1.472 4.821 1.472 7.68 0 .725-.043 1.45-.128 2.176a23.86 23.86 0 0 1-.256 2.304h-23.424v-5.312h15.744l-1.152.832c.043-1.707-.128-3.2-.512-4.48-.341-1.323-.939-2.347-1.792-3.072-.811-.725-1.941-1.088-3.392-1.088-1.664 0-3.008.49-4.032 1.472-1.024.939-1.771 2.219-2.24 3.84-.427 1.621-.64 3.435-.64 5.44 0 2.261.277 4.288.832 6.08.555 1.792 1.451 3.2 2.688 4.224 1.28 1.024 2.944 1.536 4.992 1.536 1.451 0 3.008-.256 4.672-.768 1.707-.555 3.477-1.365 5.312-2.432l3.008 4.8c-2.475 1.707-5.013 2.987-7.616 3.84-2.56.81-5.056 1.216-7.488 1.216Zm48.373-5.312-1.216-1.792 5.504 1.728v4.544l-11.2.576-1.216-6.144.64.192c-1.707 2.09-3.563 3.648-5.568 4.672-2.005 1.024-4.075 1.536-6.208 1.536-2.731 0-4.992-.875-6.784-2.624-1.792-1.75-2.688-4.267-2.688-7.552 0-2.432.512-4.352 1.536-5.76 1.067-1.45 2.603-2.496 4.608-3.136 2.005-.64 4.437-.96 7.296-.96h6.976l-.64.704v-4.224c0-2.005-.491-3.435-1.472-4.288-.939-.853-2.325-1.28-4.16-1.28-.896 0-1.856.085-2.88.256-1.024.17-2.133.427-3.328.768l.896-.96-.832 5.184h-5.568l-.512-9.344c2.901-.853 5.547-1.472 7.936-1.856 2.432-.427 4.651-.64 6.656-.64 3.968 0 6.997.853 9.088 2.56 2.091 1.707 3.136 4.352 3.136 7.936v19.904Zm-19.712-5.76c0 1.579.363 2.752 1.088 3.52.768.725 1.728 1.088 2.88 1.088 1.067 0 2.24-.32 3.52-.96 1.28-.683 2.496-1.6 3.648-2.752l-.384 1.536v-7.296l.64.64h-5.504c-2.219 0-3.755.341-4.608 1.024-.853.683-1.28 1.75-1.28 3.2Zm36.451-15.232c0 .981.427 1.77 1.28 2.368.853.597 1.941 1.11 3.264 1.536l4.288 1.344a20.35 20.35 0 0 1 4.288 1.856 9.24 9.24 0 0 1 3.328 2.944c.853 1.237 1.28 2.837 1.28 4.8 0 2.517-.683 4.63-2.048 6.336-1.365 1.707-3.221 2.987-5.568 3.84-2.347.853-4.992 1.28-7.936 1.28-1.707 0-3.52-.15-5.44-.448a64.61 64.61 0 0 1-5.824-1.216l.384-9.664h5.632l.704 5.632-.768-1.088c.853.256 1.792.47 2.816.64 1.024.128 1.92.192 2.688.192 1.109 0 2.133-.15 3.072-.448.981-.299 1.771-.725 2.368-1.28.64-.597.96-1.344.96-2.24 0-1.024-.427-1.835-1.28-2.432s-1.963-1.11-3.328-1.536a597.607 597.607 0 0 0-4.224-1.344 23.09 23.09 0 0 1-4.224-1.856 9.767 9.767 0 0 1-3.264-3.072c-.853-1.28-1.28-2.944-1.28-4.992 0-2.475.619-4.48 1.856-6.016 1.237-1.579 2.88-2.73 4.928-3.456 2.091-.725 4.373-1.088 6.848-1.088 1.749 0 3.605.17 5.568.512 1.963.299 3.968.747 6.016 1.344l-.32 8.576h-5.696l-1.024-5.056 1.216 1.344c-2.005-.555-3.776-.832-5.312-.832-1.579 0-2.859.32-3.84.96-.939.597-1.408 1.45-1.408 2.56ZM425.6 76.768c-2.859 0-5.248-.917-7.168-2.752-1.92-1.877-2.88-4.693-2.88-8.448V46.88l.832 1.28-5.056-1.536v-4.608l13.184-.448v22.528c0 2.005.448 3.499 1.344 4.48.896.939 2.09 1.408 3.584 1.408 1.152 0 2.41-.299 3.776-.896 1.408-.64 2.794-1.621 4.16-2.944l-.64 1.6V46.688l.832 1.472-5.056-1.536v-4.608l13.184-.448v29.696l-1.088-1.536 5.376 1.664v4.544l-11.264.512-1.216-6.272 1.28.448c-2.134 2.048-4.352 3.584-6.656 4.608-2.262 1.024-4.438 1.536-6.528 1.536ZM452.919 76v-4.608l5.184-1.472-.896 1.344V46.688l1.024 1.536-5.312-1.6v-4.608l11.264-.512 1.152 6.08-1.152-.256c1.92-2.005 3.818-3.541 5.695-4.608 1.878-1.11 3.883-1.664 6.017-1.664 1.365 0 2.816.213 4.352.64l-.576 11.84h-5.184l-.96-6.912.832 1.728a4.776 4.776 0 0 0-.832-.192 4.66 4.66 0 0 0-.768-.064c-1.323 0-2.646.405-3.968 1.216-1.28.81-2.39 1.856-3.328 3.136l.704-2.432v21.248l-1.024-1.344 6.336 1.472V76h-18.56Zm44.744.768c-3.115 0-5.846-.64-8.193-1.92-2.346-1.323-4.181-3.264-5.503-5.824-1.28-2.603-1.92-5.76-1.92-9.472 0-3.84.682-7.125 2.048-9.856 1.408-2.773 3.37-4.907 5.888-6.4 2.517-1.493 5.482-2.24 8.895-2.24 3.329 0 6.038.661 8.129 1.984 2.09 1.323 3.626 3.136 4.608 5.44.981 2.261 1.472 4.821 1.472 7.68 0 .725-.043 1.45-.129 2.176a23.534 23.534 0 0 1-.255 2.304h-23.424v-5.312h15.744l-1.152.832c.042-1.707-.128-3.2-.512-4.48-.342-1.323-.939-2.347-1.792-3.072-.811-.725-1.942-1.088-3.392-1.088-1.664 0-3.008.49-4.032 1.472-1.024.939-1.771 2.219-2.24 3.84-.427 1.621-.64 3.435-.64 5.44 0 2.261.277 4.288.832 6.08.554 1.792 1.45 3.2 2.688 4.224 1.28 1.024 2.944 1.536 4.992 1.536 1.45 0 3.008-.256 4.672-.768 1.706-.555 3.477-1.365 5.312-2.432l3.008 4.8c-2.475 1.707-5.014 2.987-7.616 3.84-2.56.81-5.056 1.216-7.488 1.216ZM526.9 50.464c0 .981.426 1.77 1.28 2.368.853.597 1.941 1.11 3.264 1.536l4.288 1.344a20.35 20.35 0 0 1 4.288 1.856 9.249 9.249 0 0 1 3.328 2.944c.853 1.237 1.28 2.837 1.28 4.8 0 2.517-.683 4.63-2.048 6.336-1.366 1.707-3.222 2.987-5.568 3.84-2.347.853-4.992 1.28-7.936 1.28-1.707 0-3.52-.15-5.441-.448a64.59 64.59 0 0 1-5.823-1.216l.384-9.664h5.632l.704 5.632-.768-1.088c.853.256 1.792.47 2.816.64 1.024.128 1.92.192 2.688.192 1.109 0 2.133-.15 3.072-.448.981-.299 1.77-.725 2.368-1.28.64-.597.96-1.344.96-2.24 0-1.024-.427-1.835-1.28-2.432-.854-.597-1.963-1.11-3.328-1.536a597.607 597.607 0 0 0-4.224-1.344 23.09 23.09 0 0 1-4.224-1.856 9.767 9.767 0 0 1-3.264-3.072c-.854-1.28-1.28-2.944-1.28-4.992 0-2.475.618-4.48 1.856-6.016 1.237-1.579 2.88-2.73 4.928-3.456 2.09-.725 4.373-1.088 6.848-1.088 1.749 0 3.605.17 5.568.512a46.49 46.49 0 0 1 6.016 1.344l-.32 8.576h-5.696l-1.024-5.056 1.216 1.344c-2.006-.555-3.776-.832-5.312-.832-1.579 0-2.859.32-3.84.96-.939.597-1.408 1.45-1.408 2.56Zm21.531 21.184c0-1.493.49-2.688 1.472-3.584 1.024-.939 2.218-1.408 3.584-1.408 1.578 0 2.816.47 3.712 1.408.938.896 1.408 2.09 1.408 3.584 0 1.493-.512 2.71-1.536 3.648-1.024.896-2.219 1.344-3.584 1.344-1.536 0-2.774-.448-3.712-1.344-.896-.939-1.344-2.155-1.344-3.648Zm28.979 5.12c-2.944 0-5.611-.683-8-2.048-2.347-1.408-4.203-3.413-5.568-6.016-1.366-2.603-2.048-5.76-2.048-9.472 0-3.37.49-6.208 1.472-8.512.981-2.304 2.304-4.16 3.968-5.568 1.664-1.45 3.52-2.496 5.568-3.136 2.048-.64 4.16-.96 6.336-.96 2.048 0 4.117.256 6.208.768 2.09.512 3.797 1.088 5.12 1.728l-.256 9.408h-5.76l-.96-5.248.704.512c-.64-.256-1.43-.448-2.368-.576a17.724 17.724 0 0 0-2.496-.192c-1.835 0-3.371.47-4.608 1.408-1.195.896-2.091 2.197-2.688 3.904-.598 1.664-.896 3.648-.896 5.952 0 2.475.341 4.565 1.024 6.272.682 1.707 1.642 3.008 2.88 3.904 1.28.853 2.752 1.28 4.416 1.28 1.322 0 2.773-.277 4.352-.832 1.578-.555 3.221-1.387 4.928-2.496l3.008 4.544c-2.39 1.835-4.779 3.2-7.168 4.096-2.39.853-4.779 1.28-7.168 1.28Zm33.409-35.712c5.035 0 8.96 1.493 11.776 4.48 2.816 2.987 4.224 7.232 4.224 12.736 0 3.84-.683 7.147-2.048 9.92-1.365 2.73-3.328 4.843-5.888 6.336-2.56 1.493-5.632 2.24-9.216 2.24-5.035 0-8.939-1.493-11.712-4.48-2.731-2.987-4.096-7.232-4.096-12.736 0-3.84.661-7.125 1.984-9.856 1.365-2.773 3.307-4.907 5.824-6.4 2.517-1.493 5.568-2.24 9.152-2.24Zm-.448 6.4c-2.432 0-4.245.96-5.44 2.88-1.195 1.877-1.792 4.8-1.792 8.768 0 3.968.576 6.848 1.728 8.64 1.152 1.75 2.901 2.624 5.248 2.624 1.707 0 3.093-.427 4.16-1.28 1.067-.853 1.877-2.155 2.432-3.904.555-1.75.832-3.904.832-6.464 0-3.883-.597-6.72-1.792-8.512-1.195-1.835-2.987-2.752-5.376-2.752Zm53.258-.448-1.28.32c2.048-2.09 4.224-3.648 6.528-4.672 2.304-1.067 4.501-1.6 6.592-1.6 2.688 0 4.928.896 6.72 2.688 1.834 1.75 2.752 4.459 2.752 8.128v19.264l-.832-1.28 5.12 1.536V76h-16.832v-4.608l4.672-1.408-1.088 1.344V53.856c0-2.048-.427-3.563-1.28-4.544-.811-.981-1.878-1.472-3.2-1.472-1.11 0-2.347.341-3.712 1.024-1.366.683-2.731 1.685-4.096 3.008l.64-1.984c.085.341.128.661.128.96v20.288l-.832-1.28 4.48 1.536V76h-16.256v-4.608l4.672-1.408-1.024 1.344V53.856c0-2.048-.427-3.563-1.28-4.544-.854-.981-1.92-1.472-3.2-1.472-1.11 0-2.347.32-3.712.96-1.366.64-2.688 1.6-3.968 2.88l.576-1.344v20.992l-.832-1.344 4.48 1.408V76h-16.896v-4.608l5.376-1.536-1.088 1.28V46.752l1.088 1.472-5.376-1.6v-4.608l11.264-.512 1.152 6.144-1.152-.448c2.005-2.005 4.138-3.52 6.4-4.544 2.304-1.067 4.501-1.6 6.592-1.6 1.962 0 3.712.49 5.248 1.472 1.536.939 2.688 2.432 3.456 4.48Z"/>
  <path fill="#fff" fill-rule="evenodd" d="M47.36 30h33.28a4 4 0 0 1 3.224 1.636l10.164 13.872a4 4 0 0 1-.32 5.116l-26.8 28.308a4.001 4.001 0 0 1-5.812 0l-26.8-28.308a4 4 0 0 1-.324-5.116l10.16-13.872A4 4 0 0 1 47.36 30Z" clip-rule="evenodd"/>
</svg>
