<svg xmlns="http://www.w3.org/2000/svg" width="200" height="40"><path fill="#fff" d="M44.342.008c-.03.02-.252.054-.494.08-.243.026-.536.06-.65.076l-.21.028.008.417c.007.39-.003.43-.154.66-.09.13-.26.41-.38.6-.2.33-.246.37-.667.61-.516.29-1.544.64-2.79.94-.43.1-1.142.29-1.585.43-.442.13-1.223.34-1.734.47-1.435.34-2.674.78-3.823 1.35-.567.28-.847.36-.603.17.177-.14 1.722-.98 2.102-1.14.173-.08.305-.15.292-.16-.054-.06-.734.21-1.035.41-.18.12-.64.37-1.01.55-1.16.59-1.61.92-2.69 2.01-.52.53-1.1 1.15-1.28 1.39-.22.29-.37.45-.46.47-.07.02-.21.11-.3.21-.19.2-.26.19-.16-.01.04-.1.04-.15 0-.19-.09-.09-.08-.19.04-.41.06-.11.08-.18.05-.16-.03.02-.25.36-.49.77-.44.73-1.1 1.75-1.18 1.8-.02.01-.03-.1-.02-.24.02-.22 0-.3-.09-.46-.06-.1-.13-.19-.15-.19-.04 0-.14.17-.54.89-.15.27-.75.9-.81.85-.02-.02 1.17-2.49 1.37-2.84.09-.16.18-.37.2-.48.06-.37.35-.84.83-1.36.25-.28.53-.56.63-.63.95-.72 1.28-.97 1.28-.99 0-.05-.32.15-.52.32-.12.1-.62.44-1.1.74-.72.45-.96.64-1.39 1.06-.29.28-.59.55-.68.6-.1.06-.2.2-.3.41-.08.17-.29.52-.46.78-.17.26-.37.58-.44.71s-.33.53-.58.87l-.45.63-.21.85c-.19.78-.36 2.05-.36 2.67 0 .11-.07.28-.22.5-.12.19-.3.48-.4.64-.17.3-.18.3-.37.29-.11-.01-.3-.07-.44-.16-.13-.08-.27-.15-.32-.15-.04 0-.09-.06-.12-.14-.02-.08-.08-.2-.13-.28-.05-.09-.06-.2-.04-.33.03-.2.23-2.46.22-2.55-.01-.21-.6 1.9-.85 3.04-.2.9-.25 1.43-.15 1.66.07.19.53.64.65.64.14 0 .13.12-.03.48-.13.29-.13.43-.01.43.03 0 .15.02.25.05.22.06.25.18.08.33-.18.16-.55.67-.52.72.01.02.13.07.25.1s.23.08.23.11c0 .06-.3.06-.47 0-.09-.04-.16-.03-.22.01-.08.06-.07.07.11.13.39.13.37.15-.39.69-.27.19-.66.51-.88.72l-.39.37.08.13c.05.09.08.25.08.48 0 .32-.01.35-.15.49-.09.08-.21.24-.26.35-.12.24-.54.78-.6.78-.03 0-.08-.07-.13-.16-.08-.16-.08-.16-.13-.05-.02.07-.23.35-.46.63s-.45.56-.49.62c-.14.22-.17.16-.52-1-.13-.43-.28-.84-.33-.93l-.09-.16v.19c0 .12-.04.22-.11.28-.12.11-.31.93-.52 2.22-.08.53-.16.86-.21.92-.07.08-.31.23-.37.23-.01 0-.11-.14-.23-.31-.12-.17-.24-.3-.26-.3-.06 0-.46-.92-.49-1.13-.04-.3-.11-.12-.19.5-.04.29-.08.54-.09.55-.04.04-.13-.13-.24-.46-.25-.76-.84-2.29-.92-2.38-.09-.1-.44-1.6-.44-1.91-.01-.11-.02-.24-.04-.29-.04-.1-.11 2.64-.11 4.35 0 .83.01.97.1 1.16.05.12.12.39.15.58.02.2.08.46.12.58.1.28.09.32-.02.22-.09-.08-.1-.08-.12.07-.02.1.02.25.09.41.16.35.15.51-.04.66l-.16.12.1.35c.05.19.11.41.13.48.05.23.59 1.1.86 1.38.14.15.33.36.42.47l.16.21-.12.04c-.11.04-.11.04.04.08.08.02.36.1.61.18.78.26 3.84 1 4.21 1.03.19.01.41.03.49.05.08.02.14 0 .14-.03 0-.07-.54-.4-1.1-.68-.37-.18-.52-.29-.72-.53-.14-.16-.24-.31-.22-.33.02-.02.28.03.57.11.3.08.71.17.91.19.45.06 1.29.04 1.29-.03 0-.02-.1-.08-.23-.12-.13-.04-.24-.09-.25-.11-.02-.02-.25-.15-.53-.3-.38-.2-.53-.3-.61-.44-.06-.1-.11-.2-.11-.21 0-.01.48-.03 1.07-.03.59 0 1.17-.02 1.29-.04l.23-.03-.25-.07c-.14-.04-.29-.07-.34-.07-.1 0-.59-.34-.59-.41 0-.03.08-.1.19-.16.17-.11.24-.12.94-.12h.75V31c0-.11-.01-.26-.02-.33-.02-.11.01-.143.24-.27.23-.12.26-.16.26-.28 0-.08.04-.21.08-.3l.09-.16.61.02c.34.02.78.05.98.08.21.03.44.045.52.03.13-.03.14-.036.07-.165-.04-.07-.09-.24-.11-.38-.03-.18-.07-.25-.14-.28-.09-.03-.06-.065.27-.24.2-.12.4-.21.43-.21.03 0 .13-.04.23-.087.16-.07.18-.07.46.05.17.07.42.15.57.18.15.03.35.1.46.16l.2.1.03-.14c.02-.09 0-.19-.07-.31l-.38-.67c-.16-.27-.28-.5-.28-.51 0-.04.63-.23.9-.26.28-.04.27-.02.25-.51-.01-.28 0-.32.11-.388.13-.08 1.31-.46 1.75-.56l.48-.114c.4-.095.74-.12.72-.05-.01.04-.09.1-.17.14-.23.12-.98.605-.98.64 0 .02.04.1.09.19.29.47.38 1.19.24 1.99-.04.24-.1.645-.13.91-.06.56-.24 1.33-.47 2.12-.1.31-.2.684-.23.83-.08.38-.45 1.28-.71 1.74-.14.245-.43.61-.75.955-.63.68-1.19 1.07-2.32 1.62-.43.21-.88.44-1.01.5-.13.07-.56.2-.96.3-.4.1-1.07.27-1.48.38-.42.11-.84.2-.93.2-.1 0-.5.06-.89.12-1.6.27-2.87.21-4.13-.2-1.16-.39-3.34-.94-3.41-.87-.01.01.24.08.56.16.32.08.94.26 1.37.41 1.07.36 2.08.64 2.74.75.79.14 2.51.12 3.4-.02.65-.11 1.6-.14 1.6-.06 0 .09-1.17.47-1.68.54-.27.04-.74.12-1.03.17-.69.13-1.04.12-1.88-.03-2.09-.37-3.61-.63-3.72-.63-.08 0-.12.03-.1.06.01.03.11.05.21.05.21 0 2.34.35 3.08.51.96.2 1.6.25 2.56.19 1.02-.06 2.14-.21 2.64-.35.43-.12 1.16-.39 2.64-.99 1.29-.53 2.01-.86 2.41-1.12.15-.1.35-.22.44-.27.44-.27.99-.7 1.47-1.13.71-.65 2.13-2.18 2.43-2.63.13-.2.36-.47.5-.61s.35-.37.47-.53c.26-.35.77-1.27 1.02-1.86.11-.25.22-.48.24-.51.02-.03.07-.18.1-.34.07-.36.15-.42.15-.1 0 .24.24 1.23.35 1.48.05.11.03.18-.13.53l-.21.45c-.02.05.38.01.57-.05.09-.03.12 0 .18.19.04.12.09.38.11.58l.02.36-.21.2c-.21.19-.42.37-.74.6l-.15.11.11.07c.21.14.404.15.72.04.52-.19.5-.19.54.08.02.19.01.27-.07.41-.05.09-.1.21-.1.27 0 .06-.19.27-.49.53-.27.238-.52.48-.566.54-.04.06-.17.2-.28.3l-.2.19.36-.02c.31-.02.76-.13 1.62-.4.12-.04.225-.06.234-.04.062.1.08.65.02.76-.078.15-1.007.73-1.458.92-.18.07-.62.24-.99.38-.41.15-.65.27-.63.31.035.05 1.92.02 3.26-.06.635-.04.78-.07 1.46-.28.89-.28 1.37-.47 1.49-.59.067-.06.08-.13.056-.28-.07-.41-.06-.42.27-.54.5-.18.63-.22 1.18-.32.79-.15 1.77-.21 2.03-.12.29.1.65.34.86.58.2.22.43.66.43.83 0 .05.01.11.03.13.02.02.71-.24.77-.3.04-.04-.37-.43-.67-.63-.41-.28-1.64-.88-2.14-1.03-.42-.13-.56-.22-.56-.34 0-.09.25-.1.43-.02.07.03.15.04.16.03.05-.05-.56-.59-.84-.75-.14-.08-.33-.2-.43-.28-.22-.18-.4-.27-.76-.42-.2-.08-.29-.15-.34-.27-.04-.08-.12-.21-.18-.28-.1-.12-.11-.19-.1-.94 0-.53.03-.88.08-1.02.22-.68 1.05-2.51 1.66-3.66.26-.49.26-.57.05-1-.1-.21-.18-.41-.18-.46 0-.05.08-.18.19-.3s.26-.32.35-.44l.17-.22-.19-.2c-.108-.11-.17-.2-.14-.2.02 0 .27.22.55.5.27.27.53.5.56.5.04 0 .07.024.07.054s.22.3.5.608c.43.46.59.59 1.02.84.28.16.55.31.59.32.05.02.24-.04.43-.14.19-.09.79-.32 1.34-.5.97-.33 1.01-.35 1.32-.63.17-.16.53-.47.79-.68.25-.21.49-.41.52-.44.13-.13-2.13.14-3.09.37-.93.22-1.1.19-.65-.12.27-.18.53-.25 1.45-.41.55-.09 1.52-.452 1.86-.69.41-.29 1.33-1.01 1.57-1.23l.24-.22.36.036c.2.01.49.05.64.07.15.02.28.03.29.03.01-.01-.17-.17-.4-.35-.22-.18-.57-.47-.76-.647-.19-.17-.486-.4-.65-.52-.3-.2-2.47-1.29-2.99-1.49-.33-.13-.47-.12-1.41.15-.38.11-.77.21-.88.23-.11.02-.34.08-.52.14-.35.11-.43.11-1.8-.14-.39-.07-.85-.142-1.03-.17-.32-.04-.31-.042.122-.022 1.65.07 2.38.12 2.45.15.05.02.1.02.12-.01.03-.05-.1-.59-.22-.88-.09-.21-.08-.23.23-.36.16-.07.43-.2.61-.28l.32-.16.5.14c.46.13.59.14 1.56.15 1 .01 1.05.01.94-.08-.11-.08-1.11-.52-1.55-.67-.12-.04-.44-.2-.7-.35-.26-.15-.52-.28-.57-.3-.23-.08-.01-.12.8-.12.486 0 .88-.02.88-.04s-.13-.09-.29-.16c-.16-.06-.434-.2-.614-.3-.53-.3-1.045-.55-1.15-.55-.11 0-.154-.09-.154-.33v-.18l-.39.04c-.42.03-1.3.21-1.82.37l-.32.1.15-.143c.26-.25 1.37-.68 2.26-.87.63-.13 2.84-.19 3.42-.09.58.1 1.65.41 1.85.53.1.06.41.23.7.38.6.29 1.36.79 1.73 1.12l.25.22h-1.3l.47.29c.25.16.61.41.8.55l.6.478c.37.29.98.868 1.27 1.218.21.258.245.32.246.53 0 .13.03.28.07.33.09.12.1.28.02.28-.03 0-.18-.11-.32-.242-.17-.16-.43-.324-.76-.48-.27-.13-.61-.29-.74-.36-.18-.09-.24-.1-.24-.05 0 .04.42.69.92 1.45 1.29 1.93 1.48 2.33 1.7 3.5l.13.71c.01.08.07.13.16.147.25.05.48.15.5.2.02.06-.42.27-.55.27-.11 0-.14.21-.19 1.65-.03.72-.07 1.38-.08 1.48l-.03.17.13-.13c.12-.12.14-.12.27-.05.17.09.19.27.11.82-.07.44-.2.91-.39 1.32-.07.15-.11.27-.09.27.08 0 .44-.68.67-1.28.32-.837.4-1.17.44-1.9.02-.417.05-.53.1-.51.14.05.18.36.15 1.24-.02.47-.05.94-.09 1.03-.04.12-.04.18 0 .23.1.12-.53 1.66-1.11 2.72-.45.81-.67 1.14-1.13 1.69-.21.24-.37.45-.37.47 0 .02.1-.04.22-.13.19-.13.3-.16.69-.2 1.08-.11 1-.11.98-.01-.01.063.03.1.16.14.33.1.28.22-.34.84-.44.44-.57.55-.67.53-.09-.01-.11-.04-.1-.14.02-.15.03-.16-.25.22-.12.16-.5.63-.84 1.03-.55.65-.63.73-.77.73-.15 0-.16-.01-.15-.2l.02-.21-.09.12c-.05.07-.19.26-.32.43-.13.167-.32.42-.43.57-.23.33-.89 1.03-1.17 1.24-.05.03-.09.07-.12.11H54c-.02-.04.08-.13.33-.27.19-.1.42-.24.52-.3.1-.07.23-.12.29-.12.14 0 .324.15.223.18-.04.01-.29.13-.57.27-.3.15-.515.22-.65.24h7.69c.11-.04.313-.12.39-.14.275-.08.64-.2.803-.26.17-.067.48-.18.7-.26.42-.15.44-.216.09-.26-.11-.02-.19-.05-.18-.07.07-.11-.21-.137-1.16-.096-.55.03-1.46.06-2.01.08-.75.02-1.24.07-1.93.18-.51.08-.99.15-1.07.15-.26 0-.14-.09.2-.14.34-.05.73-.17.98-.29.08-.04.26-.07.4-.07.45 0 2.4-.15 2.62-.2.12-.02.44-.06.72-.07 1.06-.06 1.47-.12 1.58-.2.21-.18.64-.62.73-.75.05-.08.17-.16.34-.21.14-.04.31-.113.39-.17.07-.05.37-.21.66-.36.71-.353 1.27-.68 1.38-.81.08-.08.08-.113.03-.2-.04-.07-.045-.12-.01-.19.03-.05.05-.14.05-.19 0-.51 1.45-1.74 2.5-2.123.26-.09.2-.14-.17-.14-.19 0-.61-.01-.95-.03-.53-.03-.615-.05-.69-.14-.08-.1-.15-.11-.88-.15-.435-.02-1.1-.05-1.47-.07l-.68-.04.25-.154c.34-.21.49-.25 1.33-.34.4-.04.875-.106 1.055-.14l.34-.07-.65-.028c-.73-.03-.88-.09-.88-.32 0-.21.28-.36 1.16-.65.8-.26 1.16-.34 1.16-.27 0 .02-.09.14-.2.26-.26.28-.26.42-.01.56.23.13.5.19 1.27.3.64.09.65.09 1.08.07l.3-.01-.31-.07c-.16-.04-.37-.07-.45-.07-.11 0-.17-.04-.21-.13-.03-.07-.14-.18-.25-.246-.26-.17-.33-.26-.3-.4.08-.31.3-.46 1.32-.87.22-.09.4-.19.4-.21 0-.08.55-.4.94-.55.2-.08.39-.16.42-.18.06-.05-2.08-.09-2.22-.04-.14.044-1.67.06-1.67.01 0-.07.26-.24.73-.478.48-.24.87-.34 1.35-.35.1-.007.1-.007 0-.07-.09-.06-.08-.07.1-.09.27-.03.28-.14.03-.31-.25-.175-.38-.41-.31-.57.05-.12.52-.325.74-.325.08 0 .19-.08.31-.21.21-.23.45-.36.84-.49l.26-.08-.78-.05c-.43-.03-1.15-.05-1.61-.05-.76 0-.85.02-1.15.13-.18.07-.42.18-.52.26-.18.12-.2.12-.33.06-.263-.14-.75-.82-.75-1.06 0-.09.18-.1.387-.02.11.05.13.05.08 0-.04-.03-.07-.11-.07-.16s-.04-.14-.08-.19c-.13-.14-.05-.32.18-.41.19-.08.45-.08 1.3-.012.28.02.29.02.48-.27.09-.14.18-.2.49-.31.21-.07.56-.16.79-.2.25-.04.4-.08.37-.11-.07-.07-1.03-.15-1.86-.15-.78-.01-.92-.053-.68-.21.08-.05.16-.12.18-.16.028-.04.078-.064.11-.064.04 0 .4-.1.79-.21.6-.16.88-.21 1.63-.28.5-.04 1.02-.09 1.16-.11l.25-.04-.28-.04c-.15-.02-.43-.09-.63-.16-.19-.06-.53-.14-.75-.16-.37-.03-.43-.05-.78-.29-.446-.3-.866-.52-.996-.52-.05 0-.29.07-.54.15-.65.22-1.32.35-2.07.41-.62.05-.674.05-.94-.05-.36-.13-.48-.26-.41-.41.03-.065.07-.15.09-.2.02-.07.09-.09.34-.1l.44-.02.41-.04c.15-.01.3-.03.32-.03.02 0 0-.03-.05-.07-.09-.05-.05-.07.32-.14l.43-.08v-.3c0-.17-.06-.45-.12-.63-.1-.29-.11-.36-.05-.51.08-.23.18-.28.62-.28h.36L69 19c-.355-.16-.32-.24.123-.27.285-.02.325-.03.22-.07-.19-.07-.613-.047-.924.05l-.28.09-.67-.165c-.37-.09-.88-.19-1.14-.23-.26-.04-.52-.104-.59-.15-.07-.04-.19-.08-.27-.08-.08 0-.24-.03-.34-.07-.25-.09-.97-.19-1.32-.183-.15.005-.31-.01-.35-.036-.09-.05.68-.17.86-.13.06.02.25.04.42.05.16.01.52.04.8.07.35.04.69.04 1.13 0 .34-.03.79-.04.98-.023.19.015.39.005.42-.02.05-.03.02-.045-.11-.046-.46-.005-1.1-.284-1.18-.513-.05-.13 0-.17.23-.2.4-.054.33-.13-.09-.1l-.4.025-.35-.22c-.95-.62-1.6-1.31-1.32-1.41.05-.02.05-.04 0-.1-.06-.07-.02-.11.29-.26.41-.21.43-.31.03-.26-.28.04-.29.04-1.55.01l-.84-.02-.38-.34c-.74-.66-.89-.95-.8-1.55.04-.22.08-.29.26-.45.17-.15.27-.19.4-.19.34-.01 1.23.18 1.62.34.45.18.48.18.39.08-.12-.15-.44-.27-1.14-.45-1.63-.41-3.13-.66-4.42-.73-.57-.03-.85-.07-.96-.12-.14-.07-.55-.18-1.41-.36-.17-.04-.35-.09-.4-.12-.09-.05-.09-.06.05-.1.25-.07 2.99-.05 3.19.02.14.04.25.05.53 0 .27-.05.49-.05.9-.01.3.03.55.05.56.04 0 0-.51-.2-1.14-.43-.63-.24-1.23-.47-1.33-.52-.21-.11-1.39-.39-2.27-.55-.78-.15-1.07-.33-.69-.45.3-.1.32-.16.04-.15-.35.01-.87-.14-.91-.26-.05-.14 0-.18.32-.28.16-.05.39-.13.51-.18.27-.12 1.25-.34 1.5-.35.17 0 .17-.01.06-.05-.18-.07-1.71-.03-2.52.07-1.98.24-2.74.37-3.9.68-1.23.33-1.43.36-1.43.25 0-.03.02-.05.05-.05s.14-.06.24-.14c.29-.22.74-.41 1.39-.59.33-.09.72-.21.86-.27.14-.06.48-.15.75-.21s.6-.15.74-.2c.13-.05.35-.12.49-.16.13-.03.25-.08.26-.1.06-.09-.29-.11-1.86-.09-1.3.01-1.63.01-1.61-.04.05-.15-1.36-.01-1.98.18-.17.05-.38.1-.46.1-.15 0-.24-.07-.14-.13.04-.02.03-.05-.01-.08-.05-.03-.01-.1.18-.27.14-.12.32-.25.4-.28.08-.03.44-.19.8-.35.76-.35 1.1-.45 1.67-.49.69-.05.41-.11-.49-.11-1.17 0-1.71.1-2.84.51-.69.25-1.6.45-2.29.49-.43.03-.53.04-.51.11.05.19.02.23-.23.36-.22.11-.36.13-.81.16-.3.02-.81.06-1.14.09l-.6.06-.46.31c-.25.16-.88.61-1.39.98-1.24.9-1.76 1.25-1.85 1.25-.11 0 .11-.22.77-.77.72-.61 1.54-1.23 2.08-1.57.24-.16.59-.4.78-.55.19-.15.41-.28.48-.3.07-.02.2-.08.3-.14.09-.06.28-.15.42-.2l.26-.09-.21.02c-.11.01-.36.09-.55.17-.19.08-.67.26-1.08.41-1.16.4-1.45.53-2.04.88-.66.39-.96.61-1.32.93-.31.28-.41.3-.41.09 0-.29.46-.73 1.1-1.06.14-.07.21-.14.21-.21 0-.19.1-.29.6-.68.48-.37.61-.49.4-.38-.05.03-.14.05-.19.05-.04 0-.4.21-.79.47s-.9.57-1.13.7c-.23.13-.82.49-1.3.81-.51.34-.89.56-.92.54-.04-.04-.18.03-.82.41-.11.07-.27.22-.34.34-.07.12-.24.34-.37.49-.13.15-.31.39-.39.53-.16.27-.31.34-.38.21-.03-.05-.08-.08-.12-.08-.1 0-.13-.08-.07-.23.04-.1.03-.13-.02-.13-.13 0-.02-.28.25-.61.15-.18.28-.4.3-.49.02-.09.17-.32.34-.52.32-.39.31-.39-.12-.07-.47.35-.6.4-.6.22 0-.19 1.64-1.78 2.19-2.11.1-.06.14-.07.17-.01.03.05.05.05.11-.02.04-.05.43-.32.88-.61.91-.6.85-.56.81-.6-.04-.04-.41.16-1.17.62-.36.22-.67.39-.7.36-.05-.05-.76.33-1.76.94-.92.56-1.08.67-1.57 1.06-1.16.95-1.7 1.53-2.03 2.19-.12.24-.23.44-.25.44-.02 0-.21.14-.41.3-.91.73-1.12.86-1.07.64.01-.07.14-.37.29-.67.48-1 2.02-3.01 2.71-3.54.3-.23.32-.26.23-.34-.03-.03-.04-.11-.02-.18.04-.17.97-1 1.41-1.25.19-.11.44-.26.54-.32.1-.07.3-.16.43-.21.13-.06.5-.21.83-.36.32-.14.61-.26.63-.26.07 0 1.75-.79 2.14-1 .23-.13.76-.32 1.53-.56 1.14-.35 1.9-.64 2.47-.96.9-.5 1.7-1.15 1.78-1.45.02-.07.1-.28.19-.48.2-.43.26-.6.18-.55zm-12.254 3.29l-.063.18c-.205.567-.99 1.05-2.615 1.612-.036.013-.05.046-.033.074.045.073.513.007.736-.105.23-.12 1.244-.5 1.32-.5.155 0 1.312-1.06 1.276-1.17-.02-.05-.13-.07-.32-.08l-.31-.02zm15.078 3.43c.037.005.016.036-.04.096-.05.056-.218.138-.372.182-.154.044-.428.158-.608.256-.18.097-.4.22-.49.275-.22.133-.204.053.045-.23.23-.26.52-.433.74-.434.08 0 .27-.033.42-.074.18-.05.28-.08.32-.07zm-9.902 2.376c.035-.01.06-.007.076.008.017.017-.076.138-.207.267-.13.13-.3.3-.377.39-.172.2-.414.27-.414.13 0-.19.675-.75.922-.8zm6.21.51c.066.065-.332.284-.775.427-.23.08-.38.16-1.32.72-.37.22-.68.42-.7.45-.02.03-.14.1-.27.15-.13.06-.34.21-.47.33-.13.12-.28.25-.34.29-.06.04-.32.27-.57.51-.39.37-.48.44-.62.44-.09 0-.18-.01-.2-.03-.02-.02-.22-.05-.45-.06l-.42-.03.68-.58.68-.59 1-.44c.55-.24 1.39-.61 1.87-.83.79-.36 1.82-.76 1.87-.72zm-7.36.103l.017.142c.01.07.01.17-.01.21-.01.04-.05.07-.08.07-.1 0-.11-.15-.01-.29l.09-.14zm-3.866.69c.018.017-.016.11-.074.204-.06.1-.108.25-.108.35 0 .1-.03.22-.068.27-.038.06-.087.2-.107.33-.04.25-.26.5-.67.77-.28.18-.34.18-.38.02-.03-.14.11-.4.43-.8.12-.14.25-.31.29-.39.26-.42.63-.8.7-.72zm-4.324.052c.05.05-.328.85-.58 1.22-.616.91-.78 1.35-.936 2.5-.085.62-.072.83.053.83.05 0 .08.02.08.06 0 .11-.22.39-.39.48-.14.07-.16.1-.13.23.03.12.02.14-.07.11-.07-.03-.16.04-.39.33-.16.2-.32.4-.36.44-.05.06-.06 0-.04-.38.03-.51.17-.99.46-1.56.32-.63.59-1.25.74-1.66.08-.22.31-.68.51-1.01.38-.63 1.05-1.65 1.08-1.62zm30.71 1.14c.13-.02.387.08.387.2 0 .05 0 .09-.01.09-.12-.03-.44-.19-.44-.23 0-.04.03-.06.08-.07zm1.018.1c.225.01.5.04.72.08.25.04.294.11.1.16-.072.02-.22.09-.326.17-.232.16-.34.16-.578.02-.182-.11-.374-.36-.328-.44.012-.02.187-.02.412 0zm-15.736.76c1.026.01 2.71.21 3.766.48.43.11.865.2.968.2h.188l-.227.05c-.12.02-.44.03-.7.02-.6-.03-2.31.04-3.49.14-1.3.11-2.13.23-3.28.5-.56.12-1.04.22-1.07.22-.03 0 .08-.14.24-.29.42-.4 1.75-1.09 2.27-1.17.19-.03.46-.09.6-.13.15-.05.42-.06.76-.06zm5.453.93c.34 0 .54.05.54.15 0 .05-.03.05-.54-.01-.2-.03-.37-.07-.37-.1s.16-.05.35-.05zm-11.98 1.54c.1.01.11.06.02.13-.05.04-.13.09-.17.1-.09.03-.35-.03-.48-.1-.09-.05-.08-.06.05-.08.27-.06.46-.08.57-.06zm-2.15 1.01c.17-.04.29.08.19.19-.1.11-.5.05-.5-.08 0-.05.05-.07.31-.13zm-.55.57c.02 0 .03.02.03.05 0 .03-.13.19-.3.37-.2.22-.34.42-.42.62-.06.16-.22.47-.35.68-.28.47-.36.67-.43 1.09-.03.18-.06.37-.08.44-.04.11-.03.11.33.11.2 0 .46-.02.57-.05.11-.03.49-.07.84-.08.67-.04.77-.01.51.16-.16.1-.54.87-.67 1.37-.11.41-.21 1.44-.21 2.27 0 .62.05.56-.61.65-.24.03-.75.11-1.13.17-.39.06-.91.14-1.16.17-.25.03-.92.16-1.5.3-1.03.24-1.19.27-1.14.22.05-.05 2.25-.64 3.11-.82.48-.11 1.01-.25 1.17-.31.26-.11.29-.14.31-.27 0-.08.04-.36.07-.62.03-.32.03-.49 0-.54-.07-.09.07-1.12.2-1.49.12-.35.29-.64.46-.8.07-.07.13-.14.13-.17 0-.07-.58-.01-1.6.15-.45.07-.83.11-.85.09-.04-.04.06-.31.43-1.2.19-.46.32-.69.59-1.04.19-.24.43-.5.53-.56.09-.07.36-.32.59-.56.28-.3.45-.44.52-.44zm31.19.55l.17.03c.17.03.25.09.25.21 0 .09-.06.07-.25-.09l-.18-.16zm-36.92.27c.03.01-.09.18-.28.37-.24.25-.37.42-.43.6-.04.13-.14.32-.22.41-.08.09-.14.18-.14.21 0 .02-.12.18-.26.36s-.28.37-.3.43c-.05.12-.87.59-1.44.82-.23.09-.63.23-.9.31-.27.08-.52.15-.54.15-.08 0 0-.21.16-.44.08-.12.16-.28.18-.36.01-.08.11-.23.21-.33.24-.26 1.07-.84 1.28-.9.19-.05 1.43-.71 1.74-.94.12-.09.32-.26.44-.39.23-.25.38-.35.48-.32zm34.23.19c.09 0 .14.02.12.05-.02.02-.09.05-.16.05s-.13-.03-.13-.05c0-.03.07-.05.15-.05zm-22.75 4.14c.03-.02.16-.02.39.01.29.03.41.09.36.17-.05.07-.15.06-.53-.06-.18-.06-.26-.11-.23-.13zm-1.72.1c.01-.01.24.06.51.15s.66.23.86.3c.2.07.38.15.39.18.04.14-.37.03-1.06-.29-.41-.18-.73-.34-.72-.35zm30.05.54c.1 0 .2.02.21.05.04.07-.23.07-.33 0-.06-.03-.03-.04.11-.04zm-1.96.01c.38-.01.46 0 .31.03-.11.02-.37.06-.58.08-.32.03-.37.02-.31-.03.04-.05.22-.07.57-.08zm.51.53l-.14.12c-.19.15-.37.58-.29.67.04.05.02.07-.17.07-.12 0-.27.01-.32.02-.29.05-.78-.18-.78-.38 0-.26.5-.45 1.31-.49l.37-.02zm-36.99 2.27c.08 0 .11 1.01.06 1.99-.06 1.09-.13 1.44-.5 2.36-.22.55-.66 1.47-.67 1.4-.01-.07.16-.57.52-1.49.33-.89.46-1.59.41-2.33-.1-1.41-.1-1.47.02-1.71.06-.13.13-.23.15-.23zm4.37.08v.44c0 .51-.05.6-.35.6-.11 0-.28.04-.39.08-.11.05-.26.13-.34.19l-.15.1.09-.16c.05-.09.33-.41.61-.7l.51-.54zm18.87 1.38c.16 0 .24.07.21.16-.02.04-.05.08-.07.08-.23-.03-.36-.25-.15-.25zm14.25.75c.32-.01.62-.01.66.02.1.06.01.12-.29.15-.16.02-.37.07-.46.11-.16.06-.17.07-.09.16.05.05.08.12.08.15 0 .09-.25.06-.58-.07-.17-.07-.33-.12-.36-.12-.22 0-.06-.28.18-.33.16-.04.51-.06.83-.07zm-33.4 1.23l.03.3c.05.47.05.98-.01.98-.03 0-.07-.04-.1-.08-.03-.06-.06-.07-.08-.03-.02.03-.11.05-.2.05-.09 0-.3.04-.46.1-.35.12-.33.11-.33.03 0-.14.4-.67.76-1.01l.37-.36zm-18.52.04c.03.01-.01.06-.09.11-.53.32-1.08.7-1.17.79-.06.06-.17.24-.24.41-.08.16-.18.35-.23.43-.06.07-.13.24-.16.38-.04.13-.09.27-.11.31-.03.03-.07.06-.09.06-.07 0-.09-.08-.12-.63l-.03-.5.34-.26c.19-.15.4-.29.47-.33.07-.04.27-.18.45-.31.36-.26.86-.51.96-.48zm51.99.86c.36.01.71.03.73.05.04.04-.05.13-.14.13-.05 0-.11.02-.13.05-.05.09-.39.23-.74.32-.19.05-.57.18-.84.3-.28.12-.5.21-.5.2 0-.02.15-.22.33-.46.18-.24.33-.46.33-.5 0-.03.06-.08.14-.09.07-.02.45-.02.82-.01zm-33.38 1.92c.05.03.05.43 0 .56-.01.04-.09.1-.18.15-.09.04-.19.11-.22.15-.04.03-.22.11-.41.17-.56.16-.97.1-.53-.08.24-.11.42-.23.88-.64.21-.18.41-.32.44-.31zm38.73 1.48c-.06-.01-.18.02-.25.05-.17.06-1.59.47-1.81.52-.15.03-.17.07-.27.36-.07.19-.28.58-.54.97-.24.35-.41.67-.4.7.07.12.33-.05 1.01-.66.15-.13.44-.34.64-.47.34-.22.39-.27.56-.61.22-.42.39-.62.55-.63.15 0 .64-.25.5-.25zm-38.8.26c.05-.02.06.07.06.38v.4l-.29.16c-.16.09-.34.2-.39.25-.06.05-.27.14-.48.19-.21.06-.52.1-.68.1h-.29l.12-.11c.07-.06.18-.14.25-.17s.46-.31.87-.62.78-.58.82-.59zm30.2.79c.26 0 .5.01.57.03.1.02.08.05-.19.22-.19.13-.36.2-.46.2-.1 0-.23.06-.34.13-.33.25-.83.52-1.11.6-.28.08-.29.09-.32.28l-.03.2h-.27c-.15 0-.28-.02-.3-.04-.04-.05.21-.23.76-.56.41-.25.65-.5.79-.83.05-.12.11-.16.26-.19.12-.02.38-.03.64-.03zm6.39 4.23c-.07-.01-.21.03-.32.09-.24.12-.25.12-.25.03 0-.06-.11-.08-.53-.09-.29-.01-.55-.01-.58 0-.05.02-.53.7-.74 1.07-.11.18-.43.47-.75.74h.39c.25-.15.55-.32.62-.39.2-.19.91-.69 1.07-.74.04-.01.34-.17.65-.36.46-.27.54-.33.44-.34zm7.55-26.09h14.84v.34q-.36 0-1.25 1.06h-4.65v12.69q0 .78 1.07 1.57v.18h-5.01v-.35q.56 0 1.07-.89v-13.2h-4.82q-.9-1.06-1.26-1.06v-.35zm15.7 1.26l1.12.17 1.54-.16h1.68q5.18 0 5.18 4.88 0 2.6-1.83 3.9l4.21 8.61-.14.16h-.13l-6.17-7.31-1.26.15-.28-.33q1.63-1.04 2.38-1.95.7-1.56.7-3.24 0-3.25-2.52-3.74h-1.55l-.43.48v11.21q0 1.14.84 1.79v.16H94.3l-.28-.33q.705-.65.705-1.47V16.26q0-2.207-.986-2.755l.14-.167h.41zm12.32.36h10.21q.49 0 .76 1.88.09 0 .09.45l-.22.09-1.21-1.12q-.48-.27-1.03-.27h-2.87q-2.06 0-2.06 1.03v10.21q.18.76.76.76h5.15q.48 0 2.24-1.21h.09l.04.04v.04q-.38 2.32-.9 2.32h-11.19l-.09-.09q.2-.22 1.03-.58.22-.27.22-.72V14.9q0-.425-.9-.895-.41-.12-.41-.23.04-.14.27-.14zm10.25 7.12l.18.14v2.55l-.13.13q-.69-.85-1.21-.85h-2.33l-1.34-.27v-.09q0-.35.58-.81h3.04q1.07 0 1.07-.68l.13-.14zm9.78-7.38q.68.75 6.27 13.39l.85.63v.16l-.34.31h-3.91v-.16l.33-.96q-.46-1.89-.84-1.89h-2.39l-1.36-.32q.33-.72.69-.79h2.7v-.16l-2.54-5.67h-.17l-3.23 8.97.51.79-.17.15h-3.22v-.31q1.57 0 4.57-9.3 1.94-4.8 2.2-4.89zm12.72-.34q3.23.39 3.23 1.13v2.9h-.46q-.33-2.9-2.77-2.9h-.46q-2.15.25-2.15 1.76 0 1.42 4.3 4.52 2 1.75 2 3.39v.64q-.62 3.39-4.15 3.39h-1.23l-.46-.65q3.38 0 3.38-2.57 0-1.36-4.75-4.85-1.39-2-1.39-3.07 0-3.21 3.84-3.7h1.07zm5.2.41h4.21v.31q-.81 0-.81 1.11V24q0 1.94 3.09 2.66 3.53 0 4.05-3.29v-8.94q-.34-.63-.82-.63v-.31h2.92v.31q-.8 0-.8 1.88v7.37q-.54 4.85-5.03 4.85h-.82q-5.19-.586-5.19-5.03V14.9q0-1.105-.81-1.105v-.31zm13.86-.17l1.12.16 1.54-.16h1.68q5.18 0 5.18 4.88 0 2.6-1.82 3.9l4.21 8.61-.15.17h-.14l-6.17-7.3-1.25.15-.28-.33q1.62-1.04 2.37-1.94.7-1.57.7-3.25 0-3.25-2.52-3.74h-1.55l-.43.48V26.2q0 1.14.84 1.79v.16h-3.35l-.28-.325q.7-.646.7-1.463v-10.1q0-2.207-.99-2.755l.14-.167h.42zm12.32.35h10.21q.49 0 .76 1.88.09 0 .09.45l-.23.09-1.21-1.12q-.48-.27-1.03-.27h-2.86q-2.06 0-2.06 1.03v10.2q.18.76.76.76h5.15q.48 0 2.24-1.21h.09l.04.04v.04q-.38 2.33-.9 2.33H170.6l-.09-.09q.2-.22 1.03-.58.23-.27.23-.72V14.9q0-.424-.89-.894-.4-.12-.4-.23.043-.14.267-.14zm10.25 7.12l.18.13v2.55l-.13.13q-.69-.85-1.21-.85h-2.33l-1.34-.27v-.09q0-.35.58-.81h3.04q1.07 0 1.07-.68l.13-.13zm7.91-7.72q3.24.39 3.24 1.13v2.9h-.46q-.33-2.9-2.77-2.9h-.46q-2.15.25-2.15 1.77 0 1.42 4.3 4.52 2 1.74 2 3.39v.64q-.63 3.39-4.16 3.39h-1.23l-.46-.65q3.38 0 3.38-2.58 0-1.36-4.76-4.85-1.38-2-1.38-3.07 0-3.21 3.83-3.7h1.08z"/></svg>