<?xml version="1.0" encoding="UTF-8"?>
<svg width="151px" height="94px" viewBox="0 0 151 94" version="1.1" xmlns="http://www.w3.org/2000/svg" xmlns:xlink="http://www.w3.org/1999/xlink">
    <!-- Generator: Sketch 48.1 (47250) - http://www.bohemiancoding.com/sketch -->
    <title>Half-Dragon</title>
    <desc>Created with Sketch.</desc>
    <defs></defs>
    <g id="Symbols" stroke="none" stroke-width="1" fill="none" fill-rule="evenodd">
        <g id="Half-Dragon" fill="#FFFFFF">
            <path d="M80.6711176,0.321869086 C80.6008737,0.368698354 80.0810689,0.44830811 79.5144347,0.509186159 C78.9454591,0.570064208 78.2594103,0.649673964 77.9924835,0.687137378 L77.5007762,0.752698354 L77.5195079,1.7290886 C77.5358981,2.64225933 77.5124835,2.73591787 77.1589225,3.27445445 C76.9481908,3.5788447 76.550142,4.23445445 76.2691664,4.6793325 C75.8008737,5.45201543 75.6931664,5.54567396 74.7074103,6.10762518 C73.4992152,6.78664957 71.0921908,7.60616177 68.1747274,8.30860079 C67.1678981,8.54274713 65.5007762,8.98762518 64.4635079,9.31543006 C63.4285811,9.61982031 61.5998981,10.1115276 60.4034103,10.4159179 C57.0434103,11.2120154 54.1423372,12.2422593 51.4519957,13.5768935 C50.1243859,14.2325032 49.4687762,14.4198203 50.0400933,13.9749423 C50.4545323,13.6471374 54.0720933,11.6803081 54.9618494,11.305674 C55.3669225,11.1183569 55.6759957,10.9544545 55.6455567,10.9310398 C55.5191176,10.790552 53.9269225,11.4227471 53.222142,11.8910398 C52.8006786,12.1720154 51.7236054,12.7573813 50.857264,13.1788447 C48.1411664,14.5603081 47.0875079,15.332991 44.5587274,17.8851862 C43.3411664,19.1261618 41.9831176,20.5778691 41.5616542,21.1398203 C41.0465323,21.8188447 40.6953128,22.1934788 40.4845811,22.2403081 C40.3206786,22.2871374 39.9928737,22.4978691 39.782142,22.7320154 C39.337264,23.2003081 39.1733615,23.1768935 39.4075079,22.7086008 C39.5011664,22.4744545 39.5011664,22.3573813 39.4075079,22.2637227 C39.1967762,22.052991 39.2201908,21.8188447 39.5011664,21.3037227 C39.6416542,21.0461618 39.6884835,20.8822593 39.6182396,20.9290886 C39.5479957,20.9759179 39.0328737,21.7720154 38.4709225,22.7320154 C37.4406786,24.4412837 35.8953128,26.8295764 35.7079957,26.9466496 C35.6611664,26.9700642 35.6377518,26.7125032 35.6611664,26.3846984 C35.7079957,25.8695764 35.6611664,25.6822593 35.4504347,25.3076252 C35.3099469,25.0734788 35.1460445,24.8627471 35.0992152,24.8627471 C35.0055567,24.8627471 34.7714103,25.2607959 33.834825,26.9466496 C33.4836054,27.5788447 32.0787274,29.0539666 31.9382396,28.9368935 C31.8914103,28.8900642 34.6777518,23.1066496 35.1460445,22.2871374 C35.3567762,21.9125032 35.5675079,21.4207959 35.6143372,21.1632349 C35.754825,20.2968935 36.4338494,19.1964057 37.5577518,17.9788447 C38.1431176,17.3232349 38.7987274,16.6676252 39.0328737,16.5037227 C41.257264,14.8178691 42.0299469,14.2325032 42.0299469,14.185674 C42.0299469,14.0686008 41.2806786,14.5368935 40.8123859,14.9349423 C40.5314103,15.1690886 39.3606786,15.9651862 38.2367762,16.6676252 C36.5509225,17.7212837 35.9889713,18.1661618 34.982142,19.1495764 C34.3031176,19.8051862 33.6006786,20.4373813 33.3899469,20.5544545 C33.1558006,20.6949423 32.9216542,21.0227471 32.6875079,21.5144545 C32.5001908,21.9125032 32.0084835,22.7320154 31.6104347,23.3407959 C31.2123859,23.9495764 30.7440933,24.6988447 30.5801908,25.0032349 C30.4162884,25.3076252 29.8075079,26.2442105 29.222142,27.0403081 L28.1684835,28.5154301 L27.6767762,30.505674 C27.2318981,32.3320154 26.8338494,35.305674 26.8338494,36.7573813 C26.8338494,37.0149423 26.6699469,37.412991 26.3187274,37.928113 C26.0377518,38.372991 25.6162884,39.0520154 25.382142,39.4266496 C24.9840933,40.1290886 24.9606786,40.1290886 24.5158006,40.105674 C24.2582396,40.0822593 23.8133615,39.9417715 23.4855567,39.7310398 C23.1811664,39.5437227 22.8533615,39.3798203 22.7362884,39.3798203 C22.6426298,39.3798203 22.5255567,39.2393325 22.4553128,39.0520154 C22.4084835,38.8646984 22.2679957,38.5837227 22.1509225,38.3964057 C22.0338494,38.185674 22.0104347,37.928113 22.057264,37.6237227 C22.1275079,37.1554301 22.5958006,31.8637227 22.5723859,31.652991 C22.5489713,31.1612837 21.1675079,36.1017715 20.582142,38.7710398 C20.1138494,40.8783569 19.9967762,42.1193325 20.2309225,42.6578691 C20.394825,43.1027471 21.4718981,44.1564057 21.7528737,44.1564057 C22.0806786,44.1564057 22.057264,44.4373813 21.6826298,45.2803081 C21.3782396,45.9593325 21.3782396,46.2871374 21.6592152,46.2871374 C21.7294591,46.2871374 22.0104347,46.3339666 22.2445811,46.4042105 C22.759703,46.5446984 22.8299469,46.825674 22.4318981,47.1768935 C22.0104347,47.5515276 21.1440933,48.745674 21.2143372,48.8627471 C21.2377518,48.9095764 21.5187274,49.0266496 21.799703,49.0968935 C22.0806786,49.1671374 22.3382396,49.2842105 22.3382396,49.3544545 C22.3382396,49.4949423 21.6358006,49.4949423 21.2377518,49.3544545 C21.0270201,49.2607959 20.8631176,49.2842105 20.7226298,49.3778691 C20.5353128,49.5183569 20.5587274,49.5417715 20.9801908,49.6822593 C21.8933615,49.9866496 21.8465323,50.0334788 20.0670201,51.2978691 C19.434825,51.7427471 18.5216542,52.4920154 18.0065323,52.9837227 L17.0933615,53.8500642 L17.2806786,54.1544545 C17.3977518,54.3651862 17.4679957,54.7398203 17.4679957,55.2783569 C17.4679957,56.0276252 17.4445811,56.0978691 17.1167762,56.425674 C16.9060445,56.612991 16.6250689,56.9876252 16.5079957,57.2451862 C16.2270201,57.8071374 15.2436054,59.0715276 15.1031176,59.0715276 C15.0328737,59.0715276 14.9158006,58.9076252 14.7987274,58.6968935 C14.6114103,58.3222593 14.6114103,58.3222593 14.4943372,58.5798203 C14.4475079,58.7437227 13.9558006,59.3993325 13.417264,60.0549423 C12.8787274,60.710552 12.3636054,61.3661618 12.2699469,61.5066496 C11.942142,62.0217715 11.8718981,61.8812837 11.0523859,59.1651862 C10.7479957,58.1583569 10.3967762,57.1983569 10.279703,56.9876252 L10.0689713,56.612991 L10.0689713,57.0578691 C10.0689713,57.3388447 9.97531277,57.572991 9.81141033,57.7134788 C9.53043472,57.9710398 9.08555667,59.8910398 8.59384935,62.9115276 C8.40653228,64.1525032 8.21921521,64.9251862 8.10214203,65.065674 C7.9382396,65.252991 7.37628838,65.6042105 7.23580057,65.6042105 C7.21238594,65.6042105 6.9782396,65.2764057 6.69726399,64.8783569 C6.41628838,64.4803081 6.13531277,64.1759179 6.0884835,64.1759179 C5.94799569,64.1759179 5.01141033,62.0217715 4.94116642,61.5300642 C4.84750789,60.8276252 4.68360545,61.2490886 4.49628838,62.7007959 C4.40262984,63.3798203 4.3089713,63.9651862 4.28555667,63.9886008 C4.19189813,64.0822593 3.98116642,63.6842105 3.72360545,62.9115276 C3.1382396,61.1320154 1.75677618,57.5495764 1.56945911,57.3388447 C1.3587274,57.1046984 0.539215205,53.5925032 0.539215205,52.8666496 C0.515800571,52.6090886 0.492385937,52.3046984 0.445556669,52.1876252 C0.351898132,51.9534788 0.187995693,58.3690886 0.187995693,62.372991 C0.187995693,64.3164057 0.211410327,64.6442105 0.422142035,65.0890886 C0.539215205,65.3700642 0.703117644,66.0022593 0.773361547,66.4471374 C0.820190815,66.9154301 0.96067862,67.5242105 1.05433716,67.8051862 C1.2884835,68.4607959 1.26506886,68.5544545 1.00750789,68.3203081 C0.796776181,68.132991 0.773361547,68.132991 0.726532278,68.4842105 C0.67970301,68.7183569 0.773361547,69.0695764 0.937263986,69.4442105 C1.31189813,70.2637227 1.2884835,70.6383569 0.843605449,70.9895764 L0.468971303,71.270552 L0.703117644,72.0900642 C0.820190815,72.5349423 0.96067862,73.0500642 1.00750789,73.2139666 C1.12458106,73.7525032 2.3889713,75.7895764 3.02116642,76.4451862 C3.3489713,76.7964057 3.79384935,77.288113 4.00458106,77.545674 L4.37921521,78.0373813 L4.0982396,78.1310398 C3.84067862,78.2246984 3.84067862,78.2246984 4.19189813,78.3183569 C4.37921521,78.3651862 5.03482496,78.5525032 5.62019082,78.7398203 C7.44653228,79.3486008 14.6114103,81.0812837 15.4777518,81.1515276 C15.9226298,81.1749423 16.4377518,81.2217715 16.6250689,81.2686008 C16.8123859,81.3154301 16.9528737,81.2686008 16.9528737,81.1983569 C16.9528737,81.0344545 15.6884835,80.2617715 14.377264,79.6061618 C13.5109225,79.1846984 13.159703,78.9271374 12.6914103,78.3651862 C12.3636054,77.990552 12.1294591,77.6393325 12.1762884,77.5925032 C12.2231176,77.545674 12.8318981,77.6627471 13.5109225,77.8500642 C14.2133615,78.0373813 15.1733615,78.248113 15.6416542,78.2949423 C16.6953128,78.4354301 18.662142,78.3886008 18.662142,78.2246984 C18.662142,78.1778691 18.4279957,78.0373813 18.1236054,77.9437227 C17.8192152,77.8500642 17.5616542,77.732991 17.5382396,77.6861618 C17.4914103,77.6393325 16.9528737,77.3349423 16.297264,76.9837227 C15.4075079,76.5154301 15.0562884,76.2812837 14.8689713,75.9534788 C14.7284835,75.7193325 14.6114103,75.4851862 14.6114103,75.4617715 C14.6114103,75.4383569 15.7353128,75.3915276 17.1167762,75.3915276 C18.4982396,75.3915276 19.8562884,75.3446984 20.137264,75.2978691 L20.6758006,75.2276252 L20.0904347,75.0637227 C19.7626298,74.9700642 19.4114103,74.8998203 19.2943372,74.8998203 C19.0601908,74.8998203 17.9128737,74.1037227 17.9128737,73.9398203 C17.9128737,73.8695764 18.1001908,73.705674 18.3577518,73.5651862 C18.7558006,73.3076252 18.919703,73.2842105 20.5587274,73.2842105 L22.314825,73.2842105 L22.314825,72.8885032 C22.314825,72.6309423 22.2914103,72.2797227 22.2679957,72.1158203 C22.2211664,71.8582593 22.2914103,71.780991 22.8299469,71.4836252 C23.3684835,71.2026496 23.4387274,71.108991 23.4387274,70.8280154 C23.4387274,70.6406984 23.5323859,70.3363081 23.6260445,70.1255764 L23.8367762,69.7509423 L25.2650689,69.7977715 C26.0611664,69.8446008 27.0914103,69.9148447 27.559703,69.9850886 C28.0514103,70.0553325 28.5899469,70.0904545 28.777264,70.0553325 C29.0816542,69.9850886 29.1050689,69.9710398 28.9411664,69.668991 C28.8475079,69.5050886 28.7304347,69.1070398 28.6836054,68.7792349 C28.6133615,68.3577715 28.519703,68.1938691 28.3558006,68.1236252 C28.1450689,68.0533813 28.2153128,67.9714301 28.9879957,67.561674 C29.4562884,67.2806984 29.9245811,67.0699666 29.994825,67.0699666 C30.0650689,67.0699666 30.2992152,66.9763081 30.5333615,66.8662593 C30.9079957,66.7023569 30.954825,66.7023569 31.6104347,66.9833325 C32.0084835,67.1472349 32.5938494,67.334552 32.9450689,67.4047959 C33.2962884,67.4750398 33.7645811,67.6389423 34.022142,67.7794301 L34.4904347,68.0135764 L34.5606786,67.6857715 C34.6075079,67.4750398 34.5606786,67.2408935 34.3967762,66.9599179 L33.5070201,65.3911374 C33.1323859,64.7589423 32.8514103,64.2204057 32.8514103,64.196991 C32.8514103,64.1033325 34.3265323,63.6584545 34.9587274,63.5882105 C35.6143372,63.494552 35.5909225,63.5413813 35.5440933,62.3940642 C35.5206786,61.7384545 35.5440933,61.6447959 35.8016542,61.4855764 C36.1060445,61.2982593 38.8689713,60.4085032 39.8992152,60.1743569 L41.0231176,59.9074301 C41.959703,59.684991 42.7558006,59.6264545 42.7089713,59.7903569 C42.6855567,59.8840154 42.4982396,60.0245032 42.3109225,60.1181618 C41.7723859,60.3991374 40.0162884,61.5347471 40.0162884,61.6166984 C40.0162884,61.6635276 40.1099469,61.8508447 40.2270201,62.0615764 C40.9060445,63.1620642 41.1167762,64.8479179 40.7889713,66.7210886 C40.6953128,67.2830398 40.554825,68.2313325 40.4845811,68.8518203 C40.3440933,70.1630398 39.9226298,71.9659666 39.3840933,73.8157227 C39.1499469,74.5415764 38.9158006,75.4172837 38.8455567,75.7591374 C38.6582396,76.6488935 37.7918981,78.7562105 37.1831176,79.8332837 C36.8553128,80.4069423 36.1762884,81.2615764 35.4270201,82.0693813 C33.9518981,83.6615764 32.6406786,84.5747471 29.994825,85.862552 C28.9879957,86.3542593 27.9343372,86.8927959 27.6299469,87.0332837 C27.3255567,87.1971862 26.3187274,87.5015764 25.382142,87.7357227 C24.4455567,87.9698691 22.8767762,88.3679179 21.9167762,88.6254788 C20.9333615,88.8830398 19.9499469,89.0937715 19.7392152,89.0937715 C19.5050689,89.0937715 18.5684835,89.2342593 17.6553128,89.3747471 C13.9089713,90.0069423 10.9353128,89.8664545 7.98506886,88.9064545 C5.2689713,87.9932837 0.164581059,86.7054788 0.000678619923,86.8693813 C-0.0227360142,86.8927959 0.562629839,87.0566984 1.31189813,87.2440154 C2.06116642,87.4313325 3.51287374,87.8527959 4.51970301,88.2040154 C7.02506886,89.0469423 9.38994691,89.702552 10.9353128,89.960113 C12.7850689,90.2879179 16.8123859,90.2410886 18.8962884,89.9132837 C20.4182396,89.6557227 22.6426298,89.5854788 22.6426298,89.7727959 C22.6426298,89.9835276 19.9031176,90.8732837 18.7089713,91.0371862 C18.0767762,91.1308447 16.9762884,91.3181618 16.297264,91.4352349 C14.6816542,91.7396252 13.862142,91.7162105 11.8953128,91.364991 C7.00165423,90.4986496 3.44262984,89.8898691 3.18506886,89.8898691 C2.99775179,89.8898691 2.90409325,89.960113 2.95092252,90.0303569 C2.97433716,90.1006008 3.2084835,90.1474301 3.44262984,90.1474301 C3.93433716,90.1474301 8.92165423,90.9669423 10.6543372,91.3415764 C12.902142,91.8098691 14.4006786,91.9269423 16.6484835,91.7864545 C19.0367762,91.6459666 21.6592152,91.2947471 22.8299469,90.9669423 C23.8367762,90.6859666 25.5460445,90.0537715 29.0114103,88.6488935 C32.0318981,87.4079179 33.7177518,86.6352349 34.6543372,86.0264545 C35.0055567,85.7923081 35.4738494,85.5113325 35.6845811,85.3942593 C36.714825,84.7620642 38.0026298,83.7552349 39.1265323,82.7484057 C40.7889713,81.2264545 44.1138494,77.6440154 44.8162884,76.5903569 C45.1206786,76.1220642 45.6592152,75.4898691 45.9870201,75.1620642 C46.314825,74.8342593 46.8065323,74.2957227 47.0875079,73.9210886 C47.6962884,73.1015764 48.8904347,70.9474301 49.4758006,69.5659666 C49.7333615,68.9806008 49.9909225,68.4420642 50.0377518,68.3718203 C50.0845811,68.3015764 50.2016542,67.9503569 50.2718981,67.5757227 C50.4358006,66.7327959 50.6231176,66.5923081 50.6231176,67.3415764 C50.6231176,67.9035276 51.1850689,70.2215764 51.4426298,70.8069423 C51.559703,71.0645032 51.5128737,71.2284057 51.1382396,72.0479179 L50.6465323,73.1015764 C50.599703,73.2186496 51.5362884,73.124991 51.9811664,72.9845032 C52.1918981,72.9142593 52.262142,72.9845032 52.4026298,73.4293813 C52.4962884,73.7103569 52.6133615,74.3191374 52.6601908,74.7874301 L52.7070201,75.6303569 L52.2153128,76.0986496 C51.7236054,76.5435276 51.2318981,76.964991 50.4826298,77.5035276 L50.1314103,77.7610886 L50.3889713,77.924991 C50.8806786,78.2527959 51.3349225,78.2762105 52.074825,78.0186496 C53.2923859,77.5737715 53.2455567,77.5737715 53.3392152,78.2059666 C53.3860445,78.6508447 53.3626298,78.8381618 53.1753128,79.1659666 C53.0582396,79.3766984 52.9411664,79.657674 52.9411664,79.7981618 C52.9411664,79.9386496 52.4962884,80.4303569 51.7938494,81.0391374 C51.1616542,81.5964057 50.5762884,82.1630398 50.4685811,82.3035276 C50.3749225,82.4440154 50.0705323,82.7718203 49.8129713,83.0059666 L49.3446786,83.4508447 L50.1876054,83.4040154 C50.9134591,83.3571862 51.9671176,83.0996252 53.9807762,82.4674301 C54.2617518,82.3737715 54.5076054,82.3269423 54.5286786,82.3737715 C54.6738494,82.6079179 54.7159957,83.8957227 54.5755079,84.1532837 C54.3928737,84.5045032 52.2176542,85.862552 51.1616542,86.3074301 C50.7401908,86.4713325 49.7099469,86.8693813 48.8436054,87.1971862 C47.8836054,87.5484057 47.3216542,87.8293813 47.3684835,87.9230398 C47.4504347,88.040113 51.8640933,87.9698691 55.0016542,87.782552 C56.4884835,87.6888935 56.8279957,87.6186496 58.4201908,87.1269423 C60.5040933,86.4713325 61.6279957,86.0264545 61.9089713,85.7454788 C62.0658494,85.604991 62.0962884,85.4410886 62.0400933,85.0898691 C61.8761908,84.1298691 61.8996054,84.1064545 62.6722884,83.8254788 C63.8430201,83.4040154 64.1474103,83.3103569 65.4352152,83.0762105 C67.2849713,82.724991 69.5796054,82.5845032 70.1883859,82.7952349 C70.8674103,83.0293813 71.7103372,83.5913325 72.2020445,84.1532837 C72.6703372,84.6684057 73.2088737,85.6986496 73.2088737,86.0966984 C73.2088737,86.2137715 73.2322884,86.3542593 73.2791176,86.4010886 C73.3259469,86.4479179 74.9415567,85.8391374 75.0820445,85.6986496 C75.175703,85.604991 74.215703,84.6918203 73.513264,84.2235276 C72.553264,83.5679179 69.673264,82.1630398 68.5025323,81.8118203 C67.5191176,81.5074301 67.1913128,81.2966984 67.1913128,81.0157227 C67.1913128,80.804991 67.7766786,80.7815764 68.198142,80.9688935 C68.3620445,81.0391374 68.5493615,81.062552 68.5727762,81.0391374 C68.6898494,80.9220642 67.2615567,79.657674 66.6059469,79.2830398 C66.278142,79.0957227 65.833264,78.8147471 65.5991176,78.6274301 C65.0839957,78.2059666 64.6625323,77.9952349 63.8196054,77.6440154 C63.3513128,77.4566984 63.1405811,77.2927959 63.0235079,77.0118203 C62.9298494,76.8245032 62.7425323,76.520113 62.6020445,76.3562105 C62.3678981,76.0752349 62.3444835,75.9113325 62.3678981,74.1552349 C62.3678981,72.9142593 62.438142,72.0947471 62.5552152,71.7669423 C63.0703372,70.1747471 65.0137518,65.8898691 66.4420445,63.1971862 C67.050825,62.0498691 67.050825,61.862552 66.5591176,60.8557227 C66.3249713,60.3640154 66.1376542,59.8957227 66.1376542,59.7786496 C66.1376542,59.6615764 66.3249713,59.3571862 66.5825323,59.0762105 C66.8400933,58.7952349 67.1913128,58.3269423 67.4020445,58.0459666 L67.8000933,57.5308447 L67.3552152,57.062552 C67.1023372,56.804991 66.9571664,56.5942593 67.0274103,56.5942593 C67.0742396,56.5942593 67.6596054,57.1093813 68.3152152,57.764991 C68.9474103,58.3971862 69.5561908,58.9357227 69.6264347,58.9357227 C69.7200933,58.9357227 69.7903372,58.9919179 69.7903372,59.0621618 C69.7903372,59.1324057 70.3054591,59.7646008 70.9610689,60.4857715 C71.9678981,61.5628447 72.3425323,61.8672349 73.3493615,62.4526008 C74.0049713,62.8272349 74.6371664,63.1784545 74.730825,63.2018691 C74.8478981,63.2486984 75.2927762,63.1082105 75.7376542,62.8740642 C76.1825323,62.6633325 77.5874103,62.1247959 78.8752152,61.7033325 C81.1464347,60.9306496 81.2400933,60.8838203 81.9659469,60.2282105 C82.3639957,59.8535764 83.2069225,59.1277227 83.815703,58.6360154 C84.4010689,58.1443081 84.9630201,57.6760154 85.033264,57.6057715 C85.3376542,57.3013813 80.0459469,57.9335764 77.798142,58.472113 C75.6205811,58.9872349 75.2225323,58.916991 76.2761908,58.1911374 C76.9083859,57.769674 77.5171664,57.6057715 79.6713128,57.2311374 C80.9591176,57.0204057 83.2303372,56.1727959 84.0264347,55.6155276 C84.9864347,54.9365032 87.1405811,53.2506496 87.7025323,52.7355276 L88.2644835,52.2204057 L89.1074103,52.3046984 C89.575703,52.328113 90.2547274,52.4217715 90.6059469,52.4686008 C90.9571664,52.5154301 91.2615567,52.5388447 91.2849713,52.5388447 C91.3083859,52.5154301 90.8869225,52.1407959 90.3483859,51.7193325 C89.833264,51.2978691 89.0137518,50.6188447 88.5688737,50.2044057 C88.1239957,49.8063569 87.4309225,49.2678203 87.0469225,48.9868447 C86.3444835,48.518552 81.2635079,45.9663569 80.0459469,45.4980642 C79.273264,45.193674 78.9454591,45.2170886 76.7444835,45.8492837 C75.8547274,46.1068447 74.9415567,46.340991 74.6839957,46.3878203 C74.4264347,46.4346496 73.8878981,46.5751374 73.4664347,46.7156252 C72.6469225,46.9731862 72.4596054,46.9731862 69.2518006,46.3878203 C68.3386298,46.2239179 67.2615567,46.0553325 66.8400933,45.9897715 C66.090825,45.896113 66.1142396,45.8914301 67.1257518,45.9382593 C70.9891664,46.1021618 72.6984347,46.2192349 72.8623372,46.2894788 C72.9794103,46.3363081 73.0964835,46.3363081 73.1433128,46.2660642 C73.2135567,46.148991 72.9091664,44.8846008 72.6281908,44.2055764 C72.4174591,43.7138691 72.4408737,43.6670398 73.1667274,43.3626496 C73.5413615,43.1987471 74.1735567,42.8943569 74.5950201,42.7070398 L75.3442884,42.3324057 L76.5150201,42.6602105 C77.5920933,42.9646008 77.8964835,42.9880154 80.167703,43.0114301 C82.5091664,43.0348447 82.6262396,43.0348447 82.3686786,42.824113 C82.1111176,42.6367959 79.7696542,41.606552 78.7394103,41.2553325 C78.4584347,41.161674 77.7091664,40.7870398 77.1003859,40.4358203 C76.4916054,40.0846008 75.882825,39.7802105 75.7657518,39.7333813 C75.2272152,39.5460642 75.7423372,39.4524057 77.6389225,39.4524057 C78.7768737,39.4524057 79.6994103,39.4055764 79.6994103,39.3587471 C79.6994103,39.3119179 79.3950201,39.1480154 79.0203859,38.984113 C78.6457518,38.8436252 78.0041908,38.5158203 77.5827274,38.281674 C76.3417518,37.5792349 75.1358981,36.9938691 74.8900445,36.9938691 C74.6324835,36.9938691 74.5294591,36.7831374 74.5294591,36.2211862 L74.5294591,35.7997227 L73.6162884,35.8933813 C72.6328737,35.9636252 70.5723859,36.3850886 69.354825,36.7597227 L68.6055567,36.9938691 L68.9567762,36.6590398 C69.5655567,36.073674 72.1645811,35.0668447 74.2484835,34.6219666 C75.7236054,34.3175764 80.8982396,34.1770886 82.2562884,34.4112349 C83.6143372,34.6453813 86.119703,35.3712349 86.5879957,35.6522105 C86.822142,35.7926984 87.5479957,36.1907471 88.2270201,36.5419666 C89.6318981,37.220991 91.4114103,38.3917227 92.2777518,39.1644057 L92.8631176,39.6795276 L89.8192152,39.6795276 L90.919703,40.358552 C91.5050689,40.7331862 92.3479957,41.318552 92.7928737,41.6463569 L94.1977518,42.7655764 C95.0640933,43.4446008 96.4923859,44.7979666 97.1714103,45.6174788 C97.6631176,46.2215764 97.7450689,46.3667471 97.7474103,46.8584545 C97.7474103,47.1628447 97.8176542,47.5140642 97.9113128,47.6311374 C98.1220445,47.912113 98.1454591,48.2867471 97.958142,48.2867471 C97.8878981,48.2867471 97.5366786,48.0291862 97.2088737,47.720113 C96.810825,47.3454788 96.2020445,46.9614788 95.4293615,46.5962105 C94.7971664,46.2918203 94.0010689,45.9171862 93.6966786,45.7532837 C93.2752152,45.542552 93.1347274,45.5191374 93.1347274,45.6362105 C93.1347274,45.7298691 94.118142,47.2518203 95.2888737,49.0313325 C98.3093615,53.5503569 98.7542396,54.4869423 99.2693615,57.2264545 L99.5737518,58.8888935 C99.5971664,59.0762105 99.7376542,59.1932837 99.9483859,59.2330886 C100.533752,59.3501618 101.072288,59.5843081 101.119118,59.7013813 C101.165947,59.8418691 100.135703,60.3335764 99.8313128,60.3335764 C99.5737518,60.3335764 99.5035079,60.8252837 99.3864347,64.196991 C99.3161908,65.8828447 99.2225323,67.4282105 99.1991176,67.6623569 L99.1288737,68.0604057 L99.433264,67.7560154 C99.7142396,67.4750398 99.7610689,67.4750398 100.065459,67.6389423 C100.463508,67.849674 100.510337,68.2711374 100.32302,69.5589423 C100.159118,70.5891862 99.8547274,71.689674 99.4098494,72.649674 C99.2459469,73.0008935 99.1522884,73.2818691 99.1991176,73.2818691 C99.3864347,73.2818691 100.229362,71.689674 100.767898,70.2847959 C101.517166,68.324991 101.704483,67.5452837 101.798142,65.8360154 C101.844971,64.8596252 101.915215,64.5950398 102.032288,64.6418691 C102.360093,64.7589423 102.453752,65.4847959 102.383508,67.5452837 C102.336679,68.6457715 102.266435,69.7462593 102.172776,69.956991 C102.079118,70.2379666 102.079118,70.3784545 102.172776,70.4955276 C102.406923,70.7765032 100.931801,74.3823569 99.5737518,76.8643081 C98.5200933,78.7608935 98.0049713,79.5335764 96.9278981,80.8213813 C96.4361908,81.3833325 96.0615567,81.8750398 96.0615567,81.9218691 C96.0615567,81.9686984 96.295703,81.8282105 96.5766786,81.6174788 C97.0215567,81.3130886 97.2791176,81.2428447 98.1922884,81.1491862 C100.721069,80.8916252 100.533752,80.8916252 100.486923,81.1257715 C100.463508,81.2732837 100.557166,81.3599179 100.861557,81.4535764 C101.63424,81.6877227 101.517166,81.9686984 100.065459,83.4204057 C99.0352152,84.4506496 98.730825,84.7082105 98.4966786,84.6613813 C98.2859469,84.6379666 98.2391176,84.5677227 98.2625323,84.3335764 C98.3093615,83.9823569 98.3327762,83.9589423 97.6771664,84.8486984 C97.3961908,85.2233325 96.5064347,86.3238203 95.7103372,87.2604057 C94.4225323,88.7823569 94.2352152,88.969674 93.9074103,88.969674 C93.5561908,88.969674 93.5327762,88.9462593 93.5561908,88.5013813 L93.6030201,88.009674 L93.3922884,88.2906496 C93.2752152,88.454552 92.9474103,88.8994301 92.6430201,89.2974788 C92.3386298,89.6885032 91.8937518,90.2808935 91.6361908,90.632113 C91.0976542,91.4047959 89.5522884,93.0438203 88.8966786,93.5355276 C88.7796054,93.6057715 88.6859469,93.6994301 88.615703,93.7930886 L103.284971,93.7930886 C103.238142,93.6994301 103.472288,93.4886984 104.057654,93.1608935 C104.502532,92.9267471 105.041069,92.5989423 105.275215,92.4584545 C105.509362,92.294552 105.813752,92.1774788 105.95424,92.1774788 C106.282044,92.1774788 106.712874,92.5286984 106.476386,92.5989423 C106.382727,92.6223569 105.797362,92.9033325 105.141752,93.2311374 C104.439313,93.5823569 103.935898,93.7462593 103.619801,93.7930886 L121.625654,93.7930886 C121.883215,93.6994301 122.358532,93.512113 122.538825,93.4652837 C123.182727,93.2779666 124.037362,92.996991 124.41902,92.8565032 C124.817069,92.6996252 125.542923,92.4350398 126.058044,92.2477227 C127.041459,91.8965032 127.088288,91.7419666 126.268776,91.6389423 C126.011215,91.592113 125.823898,91.5218691 125.847313,91.4750398 C126.011215,91.2174788 125.355605,91.1542593 123.131215,91.2502593 C121.84341,91.3205032 119.712679,91.3907471 118.424874,91.4375764 C116.668776,91.4844057 115.521459,91.6014788 113.905849,91.8590398 C112.711703,92.0463569 111.587801,92.2102593 111.400483,92.2102593 C110.791703,92.2102593 111.072679,91.9995276 111.868776,91.8824545 C112.664874,91.7653813 113.578044,91.4844057 114.16341,91.2034301 C114.350727,91.1097715 114.772191,91.0395276 115.099996,91.0395276 C116.153654,91.0395276 120.719508,90.6883081 121.23463,90.5712349 C121.515605,90.5244057 122.264874,90.4307471 122.920483,90.4073325 C125.402435,90.2668447 126.362435,90.1263569 126.619996,89.9390398 C127.111703,89.5175764 128.118532,88.4873325 128.329264,88.1829423 C128.446337,87.9956252 128.727313,87.8083081 129.125362,87.6912349 C129.453166,87.5975764 129.851215,87.4266496 130.038532,87.2931862 C130.202435,87.176113 130.904874,86.8014788 131.583898,86.4502593 C133.246337,85.6237227 134.557557,84.8580642 134.815118,84.553674 C135.002435,84.3663569 135.002435,84.2890886 134.885362,84.0853813 C134.791703,83.9214788 134.779996,83.8044057 134.861947,83.6405032 C134.932191,83.5234301 134.97902,83.3126984 134.97902,83.1956252 C134.97902,82.0014788 138.374142,79.1214788 140.832679,78.2246984 C141.441459,78.0139666 141.300971,77.8968935 140.43463,77.8968935 C139.989752,77.8968935 139.006337,77.8734788 138.21024,77.8266496 C136.969264,77.7564057 136.77024,77.7095764 136.59463,77.4988447 C136.407313,77.2646984 136.24341,77.2412837 134.534142,77.1476252 C133.515605,77.1007959 131.958532,77.030552 131.092191,76.9837227 L129.499996,76.8900642 L130.085362,76.5294788 C130.881459,76.0377715 131.232679,75.944113 133.199508,75.7333813 C134.136093,75.6397227 135.248288,75.4851862 135.669752,75.4055764 L136.465849,75.241674 L134.943898,75.176113 C133.23463,75.1058691 132.88341,74.9653813 132.88341,74.4268447 C132.88341,73.9351374 133.53902,73.5839179 135.599508,72.9048935 C137.472679,72.296113 138.315605,72.1087959 138.315605,72.2726984 C138.315605,72.3195276 138.104874,72.6005032 137.847313,72.8814788 C137.238532,73.5370886 137.238532,73.8648935 137.823898,74.1926984 C138.362435,74.4970886 138.99463,74.6375764 140.797557,74.8951374 C142.296093,75.1058691 142.319508,75.1058691 143.326337,75.0590398 L144.028776,75.0356252 L143.302923,74.8717227 C142.928288,74.7780642 142.436581,74.7078203 142.249264,74.7078203 C141.991703,74.7078203 141.851215,74.6141618 141.757557,74.4034301 C141.687313,74.2395276 141.429752,73.9819666 141.172191,73.8274301 C140.56341,73.4293813 140.399508,73.2186496 140.469752,72.8908447 C140.657069,72.164991 141.172191,71.8137715 143.560483,70.8537715 C144.075605,70.6430398 144.497069,70.4088935 144.497069,70.3620642 C144.497069,70.1747471 145.784874,69.4254788 146.698044,69.0742593 C147.166337,68.8869423 147.611215,68.6996252 147.681459,68.6527959 C147.821947,68.5357227 142.811215,68.4420642 142.48341,68.5591374 C142.155605,68.6621618 138.573166,68.6996252 138.573166,68.582552 C138.573166,68.4186496 139.181947,68.0206008 140.282435,67.4633325 C141.406337,66.9013813 142.319508,66.6672349 143.44341,66.6438203 C143.677557,66.6274301 143.677557,66.6274301 143.44341,66.4799179 C143.232679,66.3394301 143.256093,66.3160154 143.677557,66.2691862 C144.309752,66.1989423 144.333166,65.9413813 143.747801,65.5433325 C143.162435,65.1335764 142.858044,64.5833325 143.021947,64.2086984 C143.13902,63.9277227 144.239508,63.4477227 144.75463,63.4477227 C144.941947,63.4477227 145.199508,63.2604057 145.480483,62.9560154 C145.972191,62.4174788 146.534142,62.1130886 147.447313,61.8086984 L148.056093,61.6213813 L146.229752,61.5043081 C145.222923,61.4340642 143.537069,61.3872349 142.459996,61.3872349 C140.680483,61.3872349 140.469752,61.4340642 139.767313,61.6916252 C139.345849,61.8555276 138.783898,62.1130886 138.549752,62.3004057 C138.128288,62.5813813 138.081459,62.5813813 137.777069,62.4408935 C137.161264,62.1130886 136.020971,60.5208935 136.020971,59.9589423 C136.020971,59.7482105 136.442435,59.7247959 136.927118,59.912113 C137.184679,60.0291862 137.231508,60.0291862 137.114435,59.912113 C137.020776,59.8418691 136.950532,59.654552 136.950532,59.5374788 C136.950532,59.4204057 136.856874,59.209674 136.763215,59.0926008 C136.458825,58.7647959 136.646142,58.3433325 137.184679,58.1326008 C137.629557,57.9452837 138.238337,57.9452837 140.228581,58.1045032 C140.884191,58.1513325 140.907605,58.1513325 141.352483,57.4723081 C141.563215,57.1445032 141.773947,57.0040154 142.499801,56.7464545 C142.991508,56.582552 143.81102,56.3718203 144.349557,56.2781618 C144.934923,56.1845032 145.286142,56.0908447 145.215898,56.0206008 C145.051996,55.8566984 142.804191,55.6693813 140.860776,55.6693813 C139.034435,55.6459666 138.70663,55.5452837 139.268581,55.177674 C139.455898,55.0606008 139.643215,54.8966984 139.690044,54.8030398 C139.755605,54.7093813 139.872679,54.6531862 139.947605,54.6531862 C140.041264,54.6531862 140.884191,54.4190398 141.797362,54.1614788 C143.20224,53.7868447 143.857849,53.6697715 145.613947,53.5058691 C146.784679,53.4122105 148.00224,53.2951374 148.330044,53.2483081 L148.91541,53.1546496 L148.259801,53.060991 C147.908581,53.0141618 147.252971,52.8502593 146.784679,52.6863569 C146.339801,52.5458691 145.543703,52.358552 145.028581,52.3117227 C144.16224,52.2414788 144.021752,52.1946496 143.20224,51.6326984 C142.157947,50.9302593 141.174532,50.4151374 140.870142,50.4151374 C140.753069,50.4151374 140.191118,50.5790398 139.605752,50.7663569 C138.083801,51.2814788 136.51502,51.5858691 134.758923,51.7263569 C133.307215,51.8434301 133.180776,51.8434301 132.557947,51.6092837 C131.71502,51.3048935 131.434044,51.0005032 131.597947,50.6492837 C131.668191,50.4970886 131.761849,50.2980642 131.808679,50.180991 C131.855508,50.0170886 132.01941,49.9702593 132.604776,49.9468447 L133.63502,49.9000154 L134.59502,49.8063569 C134.94624,49.7829423 135.297459,49.736113 135.344288,49.736113 C135.391118,49.736113 135.344288,49.6658691 135.227215,49.5722105 C135.016483,49.4551374 135.110142,49.4083081 135.976483,49.2444057 L136.983313,49.0570886 L136.983313,48.3546496 C136.983313,47.9566008 136.842825,47.300991 136.702337,46.8795276 C136.468191,46.2005032 136.444776,46.0366008 136.585264,45.6853813 C136.772581,45.1468447 137.006727,45.0297715 138.036971,45.0297715 L138.879898,45.0297715 L138.406923,44.7909423 C137.575703,44.4163081 137.657654,44.228991 138.694923,44.1587471 C139.36224,44.1119179 139.455898,44.0885032 139.210044,43.9948447 C138.765166,43.8309423 137.774727,43.8847959 137.046532,44.1119179 L136.390923,44.3226496 L134.822142,43.9363081 C133.955801,43.7255764 132.761654,43.4914301 132.152874,43.3977715 C131.544093,43.304113 130.935313,43.1542593 130.77141,43.046552 C130.607508,42.9528935 130.326532,42.8592349 130.139215,42.8592349 C129.951898,42.8592349 129.577264,42.788991 129.343118,42.6953325 C128.757752,42.4846008 127.071898,42.2504545 126.252386,42.2668447 C125.901166,42.278552 125.526532,42.2434301 125.432874,42.182552 C125.222142,42.0654788 127.025069,41.7845032 127.446532,41.8781618 C127.58702,41.924991 128.031898,41.9718203 128.429947,41.9952349 C128.804581,42.0186496 129.647508,42.0888935 130.303118,42.1591374 C131.12263,42.2527959 131.918727,42.2527959 132.948971,42.1591374 C133.745069,42.0888935 134.798727,42.0654788 135.243605,42.1052837 C135.688483,42.1404057 136.156776,42.116991 136.22702,42.0584545 C136.344093,41.9882105 136.273849,41.9530886 135.969459,41.9507471 C134.892386,41.9390398 133.393849,41.2857715 133.206532,40.7495764 C133.089459,40.4451862 133.206532,40.3515276 133.745069,40.2812837 C134.681654,40.1548447 134.517752,39.9768935 133.534337,40.0471374 L132.597752,40.105674 L131.77824,39.590552 C129.553849,38.1388447 128.031898,36.5232349 128.687508,36.2890886 C128.804581,36.2422593 128.804581,36.1954301 128.687508,36.0549423 C128.54702,35.8910398 128.640679,35.7973813 129.366532,35.4461618 C130.326532,34.9544545 130.373362,34.7203081 129.436776,34.8373813 C128.781166,34.9310398 128.757752,34.9310398 125.807508,34.8607959 L123.840679,34.8139666 L122.950923,34.0178691 C121.21824,32.4725032 120.86702,31.7934788 121.077752,30.3886008 C121.17141,29.8734788 121.265069,29.7095764 121.686532,29.3349423 C122.084581,28.9837227 122.318727,28.8900642 122.623118,28.8900642 C123.419215,28.8666496 125.503118,29.3115276 126.416288,29.6861618 C127.469947,30.1076252 127.540191,30.1076252 127.329459,29.8734788 C127.048483,29.5222593 126.299215,29.2412837 124.660191,28.8198203 C120.843605,27.8598203 117.33141,27.2744545 114.310923,27.110552 C112.976288,27.0403081 112.320679,26.9466496 112.063118,26.8295764 C111.735313,26.665674 110.775313,26.408113 108.761654,25.9866496 C108.363605,25.892991 107.942142,25.7759179 107.825069,25.705674 C107.614337,25.5886008 107.614337,25.5651862 107.942142,25.4715276 C108.527508,25.3076252 114.943118,25.3544545 115.41141,25.5183569 C115.739215,25.6120154 115.996776,25.6354301 116.652386,25.5183569 C117.284581,25.4012837 117.799703,25.4012837 118.759703,25.4949423 C119.462142,25.5651862 120.047508,25.6120154 120.070923,25.5886008 C120.070923,25.5886008 118.876776,25.1203081 117.401654,24.5817715 C115.926532,24.0198203 114.521654,23.4812837 114.287508,23.3642105 C113.795801,23.1066496 111.032874,22.4510398 108.972386,22.0764057 C107.146044,21.7251862 106.46702,21.3037227 107.356776,21.0227471 C108.059215,20.7886008 108.106044,20.648113 107.450435,20.6715276 C106.630923,20.6949423 105.413362,20.3437227 105.319703,20.0627471 C105.20263,19.7349423 105.319703,19.6412837 106.068971,19.4071374 C106.443605,19.2900642 106.982142,19.1027471 107.263118,18.985674 C107.895313,18.7046984 110.189947,18.1895764 110.775313,18.1661618 C111.173362,18.1661618 111.173362,18.1427471 110.915801,18.0490886 C110.494337,17.8851862 106.911898,17.9788447 105.015313,18.212991 C100.379215,18.7749423 98.599703,19.0793325 95.8836054,19.8051862 C93.0036054,20.5778691 92.5353128,20.648113 92.5353128,20.390552 C92.5353128,20.3203081 92.582142,20.2734788 92.6523859,20.2734788 C92.7226298,20.2734788 92.9801908,20.132991 93.2143372,19.945674 C93.8933615,19.430552 94.9470201,18.985674 96.4689713,18.5642105 C97.2416542,18.3534788 98.154825,18.0725032 98.4826298,17.9320154 C98.8104347,17.7915276 99.6065323,17.5807959 100.238727,17.4403081 C100.870923,17.2998203 101.643605,17.0890886 101.97141,16.9720154 C102.275801,16.8549423 102.790923,16.6910398 103.118727,16.5973813 C103.423118,16.5271374 103.704093,16.4100642 103.727508,16.3632349 C103.867996,16.1525032 103.048483,16.105674 99.3723859,16.1525032 C96.3284835,16.1759179 95.5558006,16.1759179 95.6026298,16.0588447 C95.719703,15.7076252 92.4182396,16.0354301 90.9665323,16.4803081 C90.5684835,16.5973813 90.0767762,16.7144545 89.8894591,16.7144545 C89.5382396,16.7144545 89.3275079,16.550552 89.5616542,16.4100642 C89.6553128,16.3632349 89.6318981,16.292991 89.5382396,16.2227471 C89.4211664,16.1525032 89.514825,15.9886008 89.959703,15.590552 C90.2875079,15.3095764 90.7089713,15.0051862 90.8962884,14.9349423 C91.0836054,14.8646984 91.9265323,14.4900642 92.7694591,14.1154301 C94.5489713,13.2959179 95.3450689,13.0617715 96.679703,12.968113 C98.2953128,12.8510398 97.639703,12.710552 95.5323859,12.710552 C92.7928737,12.710552 91.5284835,12.9446984 88.8826298,13.9046984 C87.2670201,14.4900642 85.1362884,14.9583569 83.5206786,15.0520154 C82.5138494,15.1222593 82.279703,15.145674 82.3265323,15.3095764 C82.4436054,15.7544545 82.3733615,15.848113 81.7879957,16.1525032 C81.2728737,16.4100642 80.9450689,16.4568935 79.8914103,16.5271374 C79.1889713,16.5739666 77.994825,16.6676252 77.222142,16.7378691 L75.817264,16.8783569 L74.7401908,17.6042105 C74.154825,17.9788447 72.679703,19.0325032 71.4855567,19.8988447 C68.582142,22.0061618 67.3645811,22.825674 67.1538494,22.825674 C66.8962884,22.825674 67.4114103,22.310552 68.9567762,21.0227471 C70.6426298,19.5944545 72.5626298,18.1427471 73.8270201,17.3466496 C74.3889713,16.9720154 75.2084835,16.4100642 75.6533615,16.0588447 C76.0982396,15.7076252 76.6133615,15.4032349 76.777264,15.3564057 C76.9411664,15.3095764 77.2455567,15.1690886 77.479703,15.0286008 C77.6904347,14.888113 78.1353128,14.6773813 78.4631176,14.5603081 L79.0718981,14.3495764 L78.5801908,14.3964057 C78.3226298,14.4198203 77.737264,14.6071374 77.2923859,14.7944545 C76.8475079,14.9817715 75.7236054,15.4032349 74.7636054,15.7544545 C72.0475079,16.6910398 71.3684835,16.9954301 69.9870201,17.8149423 C68.4416542,18.728113 67.7392152,19.2432349 66.8962884,19.9925032 C66.1704347,20.648113 65.9362884,20.6949423 65.9362884,20.2032349 C65.9362884,19.5242105 67.0133615,18.4939666 68.5118981,17.7212837 C68.839703,17.5573813 69.0036054,17.3934788 69.0036054,17.2295764 C69.0036054,16.7846984 69.2377518,16.550552 70.4084835,15.6373813 C71.5323859,14.7710398 71.8367762,14.4900642 71.3450689,14.7476252 C71.2279957,14.8178691 71.017264,14.8646984 70.9001908,14.8646984 C70.8065323,14.8646984 69.9636054,15.3564057 69.0504347,15.9651862 C68.137264,16.5739666 66.9431176,17.2998203 66.4045811,17.6042105 C65.8660445,17.9086008 64.4845811,18.7515276 63.3606786,19.5007959 C62.1665323,20.2968935 61.2767762,20.8120154 61.2065323,20.7651862 C61.1128737,20.6715276 60.7850689,20.8354301 59.2865323,21.7251862 C59.0289713,21.8890886 58.6543372,22.2403081 58.4904347,22.5212837 C58.3265323,22.8022593 57.9284835,23.3173813 57.6240933,23.6686008 C57.319703,24.0198203 56.8982396,24.5817715 56.7109225,24.9095764 C56.3362884,25.5417715 55.9850689,25.705674 55.8211664,25.4012837 C55.7509225,25.2842105 55.6338494,25.2139666 55.5401908,25.2139666 C55.3060445,25.2139666 55.2358006,25.0266496 55.3762884,24.6754301 C55.4699469,24.4412837 55.4465323,24.3710398 55.3294591,24.3710398 C55.0250689,24.3710398 55.2826298,23.7154301 55.914825,22.9427471 C56.2660445,22.5212837 56.5704347,22.0061618 56.617264,21.7954301 C56.6640933,21.5846984 57.0153128,21.0461618 57.4133615,20.5778691 C58.1626298,19.6646984 58.1392152,19.6646984 57.1323859,20.4139666 C56.0318981,21.2334788 55.7275079,21.350552 55.7275079,20.9290886 C55.7275079,20.4842105 59.5675079,16.7612837 60.8553128,15.9886008 C61.0894591,15.848113 61.1831176,15.8246984 61.2533615,15.9651862 C61.3236054,16.0822593 61.3704347,16.0822593 61.5109225,15.9183569 C61.6045811,15.8012837 62.5177518,15.1690886 63.5714103,14.4900642 C65.702142,13.0851862 65.5616542,13.1788447 65.4679957,13.0851862 C65.3743372,12.9915276 64.5079957,13.4598203 62.7284835,14.5368935 C61.8855567,15.0520154 61.159703,15.4500642 61.0894591,15.3798203 C60.9723859,15.2627471 59.3099469,16.1525032 56.9684835,17.5807959 C54.8143372,18.8920154 54.439703,19.1495764 53.2923859,20.0627471 C50.5762884,22.2871374 49.3118981,23.6451862 48.5392152,25.190552 C48.2582396,25.7525032 48.0006786,26.2207959 47.9538494,26.2207959 C47.9070201,26.2207959 47.462142,26.5486008 46.9938494,26.9232349 C44.8631176,28.6325032 44.3714103,28.9368935 44.4884835,28.4217715 C44.5118981,28.2578691 44.8162884,27.5554301 45.1675079,26.852991 C46.2914103,24.5115276 49.897264,19.8051862 51.5128737,18.5642105 C52.2153128,18.025674 52.262142,17.9554301 52.0514103,17.768113 C51.9811664,17.6978691 51.9577518,17.510552 52.0045811,17.3466496 C52.0982396,16.9486008 54.2758006,15.0051862 55.3060445,14.4198203 C55.7509225,14.1622593 56.3362884,13.8110398 56.5704347,13.670552 C56.8045811,13.5066496 57.2728737,13.2959179 57.577264,13.1788447 C57.8816542,13.0383569 58.7479957,12.6871374 59.5206786,12.3359179 C60.2699469,12.008113 60.9489713,11.7271374 60.9958006,11.7271374 C61.159703,11.7271374 65.0933615,9.87738128 66.0065323,9.38567396 C66.5450689,9.08128372 67.7860445,8.63640567 69.5889713,8.07445445 C72.2582396,7.25494226 74.0377518,6.57591787 75.3723859,5.82664957 C77.479703,4.65591787 79.3528737,3.13396665 79.5401908,2.43152762 C79.5870201,2.26762518 79.7743372,1.77591787 79.9850689,1.30762518 C80.4533615,0.300795915 80.5938494,-0.0972528655 80.4065323,0.0198203052 L80.6711176,0.321869086 Z M54.978825,8.02528372 L54.8313128,8.44674713 C54.3513128,9.77435689 52.513264,10.9052837 48.7083859,12.2211862 C48.6240933,12.2516252 48.5913128,12.3288935 48.6311176,12.3944545 C48.7364835,12.5653813 49.8322884,12.4108447 50.3544347,12.1486008 C50.8929713,11.8676252 53.2672152,10.9778691 53.4451664,10.9778691 C53.8080933,10.9778691 56.5171664,8.49591787 56.4328737,8.23835689 C56.3860445,8.12128372 56.1284835,8.07445445 55.6836054,8.05103982 L54.9577518,8.00421055 L54.978825,8.02528372 Z M90.2834103,16.0565032 C90.3700445,16.0682105 90.3208737,16.1407959 90.1897518,16.2812837 C90.0726786,16.4124057 89.6793128,16.6044057 89.3187274,16.7074301 C88.958142,16.8104545 88.3165811,17.0773813 87.8951176,17.3068447 C87.4736542,17.5339666 86.9585323,17.8219666 86.7478006,17.9507471 C86.2326786,18.2621618 86.270142,18.0748447 86.8531664,17.4122105 C87.391703,16.8034301 88.0707274,16.3983569 88.5858494,16.3960154 C88.7731664,16.3960154 89.2180445,16.3187471 89.569264,16.2227471 C89.9907274,16.105674 90.2248737,16.0354301 90.3185323,16.0588447 L90.2834103,16.0565032 Z M67.0982396,21.6198203 C67.1801908,21.5964057 67.2387274,21.6034301 67.2761908,21.638552 C67.3159957,21.6783569 67.0982396,21.961674 66.7915079,22.2637227 C66.4871176,22.568113 66.0890689,22.9661618 65.9087762,23.1768935 C65.5060445,23.6451862 64.9394103,23.8090886 64.9394103,23.4812837 C64.9394103,23.0364057 66.5198981,21.7251862 67.0982396,21.608113 L67.0982396,21.6198203 Z M81.6387274,22.8139666 C81.793264,22.9661618 80.8613615,23.4789423 79.8240933,23.8137715 C79.2855567,24.0010886 78.9343372,24.1884057 76.7333615,25.4996252 C75.8670201,26.0147471 75.1411664,26.4830398 75.0943372,26.5532837 C75.0475079,26.6235276 74.7665323,26.7874301 74.462142,26.9045032 C74.1577518,27.044991 73.6660445,27.3962105 73.3616542,27.6771862 C73.057264,27.9581618 72.7060445,28.262552 72.5655567,28.3562105 C72.4250689,28.4498691 71.8162884,28.9884057 71.2309225,29.5503569 C70.3177518,30.4166984 70.1070201,30.5806008 69.7792152,30.5806008 C69.5684835,30.5806008 69.3577518,30.5571862 69.3109225,30.5103569 C69.2640933,30.4635276 68.7958006,30.3932837 68.257264,30.3698691 L67.2738494,30.2996252 L68.8660445,28.9415764 L70.4582396,27.560113 L72.799703,26.5298691 C74.0875079,25.9679179 76.0543372,25.1015764 77.1782396,24.5864545 C79.0279957,23.7435276 81.439703,22.8069423 81.5567762,22.9006008 L81.6387274,22.8139666 Z M64.4055567,23.0551374 L64.4453615,23.3876252 C64.4687762,23.5515276 64.4687762,23.785674 64.4219469,23.8793325 C64.3985323,23.972991 64.3048737,24.0432349 64.2346298,24.0432349 C64.0004835,24.0432349 63.9770689,23.6920154 64.2112152,23.3642105 L64.4219469,23.0364057 L64.4055567,23.0551374 Z M55.3534591,24.6707471 C55.3956054,24.710552 55.3159957,24.9283081 55.1801908,25.1484057 C55.039703,25.382552 54.9273128,25.7337715 54.9273128,25.9679179 C54.9273128,26.2020642 54.8570689,26.4830398 54.7680933,26.600113 C54.6791176,26.7406008 54.5643859,27.0684057 54.5175567,27.3727959 C54.4238981,27.9581618 53.9087762,28.5435276 52.9487762,29.1757227 C52.2931664,29.5971862 52.1526786,29.5971862 52.0590201,29.222552 C51.9887762,28.8947471 52.3165811,28.2859666 53.0658494,27.3493813 C53.346825,27.0215764 53.6512152,26.6235276 53.7448737,26.4362105 C54.3536542,25.4527959 55.2199957,24.5630398 55.3838981,24.7503569 L55.3534591,24.6707471 Z M45.2289713,24.7925032 C45.3460445,24.9095764 44.4609713,26.7827471 43.8709225,27.6490886 C42.4285811,29.7798203 42.0445811,30.8100642 41.6793128,33.5027471 C41.4802884,34.9544545 41.5107274,35.4461618 41.8034103,35.4461618 C41.9204835,35.4461618 41.9907274,35.492991 41.9907274,35.5866496 C41.9907274,35.8442105 41.4756054,36.4998203 41.0775567,36.710552 C40.7497518,36.8744545 40.7029225,36.9446984 40.7731664,37.2490886 C40.8434103,37.5300642 40.8199957,37.5768935 40.609264,37.5066496 C40.4453615,37.4364057 40.2346298,37.6003081 39.6960933,38.2793325 C39.3214591,38.7476252 38.946825,39.2159179 38.8531664,39.3095764 C38.7360933,39.4500642 38.7126786,39.3095764 38.7595079,38.4198203 C38.8297518,37.225674 39.1575567,36.1017715 39.8365811,34.7671374 C40.5858494,33.2920154 41.2180445,31.8403081 41.569264,30.8803081 C41.7565811,30.3651862 42.2951176,29.288113 42.7634103,28.5154301 C43.6531664,27.0403081 45.2219469,24.6520154 45.2921908,24.7222593 L45.2289713,24.7925032 Z M117.135313,27.4617715 C117.439703,27.4149423 118.041459,27.6490886 118.041459,27.9300642 C118.041459,28.0471374 118.041459,28.1407959 118.018044,28.1407959 C117.737069,28.070552 116.987801,27.6959179 116.987801,27.6022593 C116.987801,27.5086008 117.058044,27.4617715 117.175118,27.4383569 L117.135313,27.4617715 Z M119.518923,27.6959179 C120.045752,27.7193325 120.689654,27.7895764 121.204776,27.8832349 C121.790142,27.9768935 121.893166,28.1407959 121.438923,28.2578691 C121.270337,28.3046984 120.923801,28.4686008 120.675605,28.6559179 C120.132386,29.030552 119.879508,29.030552 119.32224,28.7027471 C118.896093,28.4451862 118.446532,27.8598203 118.55424,27.6725032 C118.582337,27.625674 118.992093,27.625674 119.518923,27.6725032 L119.518923,27.6959179 Z M82.6736542,29.4754301 C85.0759957,29.4988447 89.0190201,29.9671374 91.4916054,30.5993325 C92.4984347,30.8568935 93.5169713,31.0676252 93.758142,31.0676252 L94.1983372,31.0676252 L93.666825,31.1846984 C93.3858494,31.2315276 92.6365811,31.2549423 92.0278006,31.2315276 C90.6229225,31.1612837 86.6190201,31.3251862 83.8560933,31.5593325 C80.8121908,31.8168935 78.8687762,32.0978691 76.1760933,32.7300642 C74.8648737,33.0110398 73.7409713,33.2451862 73.6707274,33.2451862 C73.6004835,33.2451862 73.8580445,32.9173813 74.2326786,32.5661618 C75.2160933,31.6295764 78.3302396,30.0139666 79.5478006,29.8266496 C79.9926786,29.7564057 80.6248737,29.6159179 80.9526786,29.5222593 C81.3038981,29.4051862 81.9360933,29.3817715 82.7321908,29.3817715 L82.6736542,29.4754301 Z M95.4416542,31.652991 C96.2377518,31.652991 96.7060445,31.7700642 96.7060445,32.0042105 C96.7060445,32.1212837 96.6358006,32.1212837 95.4416542,31.9807959 C94.9733615,31.910552 94.5753128,31.8168935 94.5753128,31.7466496 C94.5753128,31.6764057 94.9499469,31.6295764 95.394825,31.6295764 L95.4416542,31.652991 Z M67.3909225,35.2588447 C67.6250689,35.2822593 67.6484835,35.3993325 67.4377518,35.5632349 C67.3206786,35.6568935 67.1333615,35.7739666 67.039703,35.7973813 C66.8289713,35.8676252 66.2201908,35.7271374 65.9158006,35.5632349 C65.7050689,35.4461618 65.7284835,35.4227471 66.0328737,35.3759179 C66.6650689,35.2354301 67.1099469,35.1886008 67.3675079,35.2354301 L67.3909225,35.2588447 Z M62.3567762,37.6237227 C62.754825,37.5300642 63.0358006,37.8110398 62.8016542,38.0686008 C62.5675079,38.3261618 61.6309225,38.185674 61.6309225,37.8812837 C61.6309225,37.7642105 61.7479957,37.7173813 62.3567762,37.5768935 L62.3567762,37.6237227 Z M61.0689713,38.9583569 C61.1158006,38.9583569 61.1392152,39.0051862 61.1392152,39.0754301 C61.1392152,39.145674 60.834825,39.5203081 60.4367762,39.9417715 C59.9684835,40.4568935 59.6406786,40.9251862 59.4533615,41.3934788 C59.3128737,41.768113 58.9382396,42.4939666 58.6338494,42.985674 C57.9782396,44.0861618 57.7909225,44.5544545 57.6270201,45.5378691 C57.5567762,45.9593325 57.4865323,46.4042105 57.439703,46.568113 C57.3460445,46.825674 57.3694591,46.825674 58.2123859,46.825674 C58.6806786,46.825674 59.2894591,46.7788447 59.5470201,46.7086008 C59.8045811,46.6383569 60.6943372,46.5446984 61.5138494,46.5212837 C63.0826298,46.4276252 63.3167762,46.4978691 62.7079957,46.8959179 C62.3333615,47.1300642 61.4436054,48.932991 61.1392152,50.1037227 C60.8816542,51.0637227 60.6475079,53.4754301 60.6475079,55.4188447 C60.6475079,56.870552 60.7645811,56.7300642 59.2192152,56.9407959 C58.657264,57.0110398 57.4631176,57.1983569 56.5733615,57.3388447 C55.6601908,57.4793325 54.4426298,57.6666496 53.857264,57.7368935 C53.2718981,57.8071374 51.7031176,58.1115276 50.3450689,58.4393325 C47.9333615,59.0012837 47.5587274,59.0715276 47.6758006,58.9544545 C47.7928737,58.8373813 52.9440933,57.4559179 54.9577518,57.0344545 C56.0816542,56.7768935 57.3226298,56.4490886 57.697264,56.3086008 C58.3060445,56.0510398 58.3762884,55.9807959 58.4231176,55.6764057 C58.4231176,55.4890886 58.5167762,54.8334788 58.5870201,54.2246984 C58.657264,53.4754301 58.657264,53.0773813 58.5870201,52.9603081 C58.4231176,52.7495764 58.7509225,50.3378691 59.0553128,49.4715276 C59.3362884,48.6520154 59.7343372,47.972991 60.1323859,47.5983569 C60.2962884,47.4344545 60.4367762,47.270552 60.4367762,47.2003081 C60.4367762,47.0364057 59.0787274,47.1768935 56.6904347,47.5515276 C55.6367762,47.7154301 54.7470201,47.8090886 54.7001908,47.7622593 C54.6065323,47.6686008 54.8406786,47.0364057 55.7070201,44.9525032 C56.1518981,43.8754301 56.4562884,43.3368935 57.0884835,42.5173813 C57.5333615,41.9554301 58.0953128,41.3466496 58.3294591,41.2061618 C58.5401908,41.0422593 59.1723859,40.4568935 59.7109225,39.8949423 C60.3665323,39.1925032 60.7645811,38.8646984 60.9284835,38.8646984 L61.0689713,38.9583569 Z M134.099215,40.2461618 L134.497264,40.3164057 C134.895313,40.3866496 135.08263,40.5271374 135.08263,40.808113 C135.08263,41.0188447 134.942142,40.9720154 134.497264,40.5973813 L134.075801,40.2227471 L134.099215,40.2461618 Z M47.6523859,40.8783569 C47.7226298,40.9017715 47.4416542,41.2998203 46.9967762,41.7446984 C46.434825,42.3300642 46.1304347,42.728113 45.9899469,43.1495764 C45.8962884,43.4539666 45.662142,43.8988447 45.474825,44.1095764 C45.2875079,44.3203081 45.1470201,44.5310398 45.1470201,44.6012837 C45.1470201,44.648113 44.8660445,45.0227471 44.5382396,45.4442105 C44.2104347,45.865674 43.8826298,46.310552 43.8358006,46.4510398 C43.7187274,46.7320154 41.7987274,47.8325032 40.4640933,48.3710398 C39.9255567,48.5817715 38.9889713,48.9095764 38.3567762,49.0968935 C37.7245811,49.2842105 37.1392152,49.448113 37.0923859,49.448113 C36.9050689,49.448113 37.0923859,48.9564057 37.4670201,48.4178691 C37.6543372,48.1368935 37.8416542,47.7622593 37.8884835,47.5749423 C37.9118981,47.3876252 38.1460445,47.0364057 38.3801908,46.8022593 C38.942142,46.1934788 40.8855567,44.8354301 41.377264,44.6949423 C41.822142,44.5778691 44.7255567,43.0325032 45.4514103,42.4939666 C45.7323859,42.2832349 46.2006786,41.8851862 46.4816542,41.5807959 C47.0201908,40.9954301 47.3714103,40.7612837 47.6055567,40.8315276 L47.6523859,40.8783569 Z M127.800679,41.3232349 C128.01141,41.3232349 128.128483,41.3700642 128.081654,41.4403081 C128.034825,41.4871374 127.870923,41.5573813 127.70702,41.5573813 C127.543118,41.5573813 127.40263,41.4871374 127.40263,41.4403081 C127.40263,41.3700642 127.566532,41.3232349 127.753849,41.3232349 L127.800679,41.3232349 Z M74.5323859,51.0168935 C74.6026298,50.9700642 74.9070201,50.9700642 75.4455567,51.0403081 C76.1245811,51.110552 76.4055567,51.2510398 76.2884835,51.4383569 C76.1714103,51.6022593 75.937264,51.5788447 75.0475079,51.2978691 C74.6260445,51.1573813 74.4387274,51.0403081 74.5089713,50.9934788 L74.5323859,51.0168935 Z M70.5050689,51.2510398 C70.5284835,51.2276252 71.0670201,51.3915276 71.6992152,51.6022593 C72.3314103,51.812991 73.2445811,52.1407959 73.7128737,52.3046984 C74.1811664,52.4686008 74.6026298,52.6559179 74.6260445,52.7261618 C74.719703,53.0539666 73.759703,52.7964057 72.1440933,52.0471374 C71.1840933,51.625674 70.434825,51.2510398 70.4582396,51.2276252 L70.5050689,51.2510398 Z M140.866044,52.5154301 C141.100191,52.5154301 141.334337,52.5622593 141.357752,52.6325032 C141.45141,52.7964057 140.819215,52.7964057 140.585069,52.6325032 C140.444581,52.5622593 140.514825,52.5388447 140.84263,52.5388447 L140.866044,52.5154301 Z M136.276776,52.5388447 C137.166532,52.5154301 137.353849,52.5388447 137.00263,52.6090886 C136.745069,52.6559179 136.136288,52.7495764 135.644581,52.7964057 C134.895313,52.8666496 134.77824,52.8432349 134.918727,52.7261618 C135.012386,52.6090886 135.433849,52.5622593 136.253362,52.5388447 L136.276776,52.5388447 Z M137.470923,53.7798203 L137.143118,54.0607959 C136.69824,54.4120154 136.276776,55.4188447 136.464093,55.6295764 C136.557752,55.7466496 136.510923,55.7934788 136.066044,55.7934788 C135.785069,55.7934788 135.433849,55.8168935 135.316776,55.8403081 C134.637752,55.9573813 133.490435,55.4188447 133.490435,54.950552 C133.490435,54.3417715 134.661166,53.8968935 136.557752,53.8032349 L137.424093,53.7564057 L137.470923,53.7798203 Z M50.8601908,59.0949423 C51.0475079,59.0949423 51.1177518,61.4598203 51.0006786,63.7544545 C50.8601908,66.3066496 50.6962884,67.1261618 49.8299469,69.2803081 C49.314825,70.568113 48.2845811,72.7222593 48.2611664,72.5583569 C48.2377518,72.3944545 48.6358006,71.2237227 49.4787274,69.0695764 C50.2514103,66.985674 50.5558006,65.3466496 50.4387274,63.6139666 C50.2045811,60.3125032 50.2045811,60.1720154 50.4855567,59.6100642 C50.6260445,59.305674 50.7899469,59.0715276 50.8367762,59.0715276 L50.8601908,59.0949423 Z M61.0923859,59.2822593 L61.0923859,60.3125032 C61.0923859,61.5066496 60.9753128,61.7173813 60.2728737,61.7173813 C60.0153128,61.7173813 59.617264,61.8110398 59.359703,61.9046984 C59.102142,62.0217715 58.7509225,62.2090886 58.5636054,62.3495764 L58.2123859,62.5837227 L58.4231176,62.2090886 C58.5401908,61.9983569 59.1958006,61.2490886 59.8514103,60.5700642 L61.0455567,59.305674 L61.0923859,59.2822593 Z M105.275801,62.5134788 C105.650435,62.5134788 105.837752,62.6773813 105.767508,62.888113 C105.720679,62.9817715 105.650435,63.0754301 105.603605,63.0754301 C105.065069,63.0051862 104.760679,62.4900642 105.252386,62.4900642 L105.275801,62.5134788 Z M138.641654,64.2695764 C139.390923,64.2461618 140.093362,64.2461618 140.18702,64.3164057 C140.421166,64.4568935 140.210435,64.5973813 139.507996,64.6676252 C139.133362,64.7144545 138.641654,64.8315276 138.430923,64.9251862 C138.056288,65.065674 138.032874,65.0890886 138.220191,65.2998203 C138.337264,65.4168935 138.407508,65.5807959 138.407508,65.6510398 C138.407508,65.8617715 137.822142,65.7915276 137.049459,65.4871374 C136.65141,65.3232349 136.276776,65.2061618 136.206532,65.2061618 C135.69141,65.2061618 136.066044,64.550552 136.627996,64.4334788 C137.00263,64.3398203 137.822142,64.292991 138.57141,64.2695764 L138.641654,64.2695764 Z M60.4367762,67.1495764 L60.5070201,67.8520154 C60.6240933,68.9525032 60.6240933,70.1466496 60.4836054,70.1466496 C60.4133615,70.1466496 60.319703,70.052991 60.2494591,69.9593325 C60.1792152,69.8188447 60.1089713,69.7954301 60.062142,69.8890886 C60.0153128,69.9593325 59.8045811,70.0061618 59.5938494,70.0061618 C59.3831176,70.0061618 58.8914103,70.0998203 58.5167762,70.2403081 C57.697264,70.5212837 57.7440933,70.4978691 57.7440933,70.310552 C57.7440933,69.9827471 58.6806786,68.7417715 59.5236054,67.945674 L60.3899469,67.1027471 L60.4367762,67.1495764 Z M17.0728737,67.2432349 C17.1431176,67.2666496 17.0494591,67.3837227 16.862142,67.5007959 C15.6211664,68.2500642 14.3333615,69.1398203 14.1226298,69.350552 C13.982142,69.4910398 13.7245811,69.9125032 13.5606786,70.310552 C13.3733615,70.6851862 13.1392152,71.1300642 13.022142,71.3173813 C12.8816542,71.4812837 12.7177518,71.8793325 12.6475079,72.2071374 C12.5538494,72.5115276 12.4367762,72.8393325 12.3899469,72.932991 C12.319703,73.0032349 12.2260445,73.0734788 12.1792152,73.0734788 C12.0153128,73.0734788 11.9684835,72.8861618 11.8982396,71.5983569 L11.8279957,70.4276252 L12.6240933,69.8188447 C13.0689713,69.4676252 13.5606786,69.1398203 13.7245811,69.0461618 C13.8884835,68.9525032 14.3567762,68.6246984 14.7782396,68.3203081 C15.6211664,67.7115276 16.7918981,67.1261618 17.0260445,67.1964057 L17.0728737,67.2432349 Z M138.805557,69.2568935 C139.648483,69.2803081 140.467996,69.3271374 140.514825,69.3739666 C140.608483,69.4676252 140.397752,69.6783569 140.18702,69.6783569 C140.069947,69.6783569 139.929459,69.7251862 139.88263,69.7954301 C139.765557,70.0061618 138.969459,70.3339666 138.149947,70.5446984 C137.705069,70.6617715 136.815313,70.9661618 136.183118,71.2471374 C135.527508,71.528113 135.012386,71.7388447 135.012386,71.7154301 C135.012386,71.6686008 135.363605,71.2003081 135.785069,70.6383569 C136.206532,70.0764057 136.557752,69.5612837 136.557752,69.4676252 C136.557752,69.3973813 136.69824,69.2803081 136.885557,69.2568935 C137.049459,69.2100642 137.939215,69.2100642 138.805557,69.2334788 L138.805557,69.2568935 Z M60.6475079,73.7525032 C60.7645811,73.8227471 60.7645811,74.7593325 60.6475079,75.0637227 C60.6240933,75.1573813 60.4367762,75.2978691 60.2260445,75.4149423 C60.0153128,75.5086008 59.7811664,75.6725032 59.7109225,75.7661618 C59.617264,75.8364057 59.1958006,76.0237227 58.7509225,76.1642105 C57.439703,76.5388447 56.479703,76.3983569 57.5099469,75.9768935 C58.0718981,75.7193325 58.4933615,75.4383569 59.5704347,74.4783569 C60.062142,74.0568935 60.5304347,73.7290886 60.6006786,73.7525032 L60.6475079,73.7525032 Z M151.332386,77.2178691 C151.191898,77.1944545 150.910923,77.2646984 150.74702,77.3349423 C150.348971,77.4754301 147.024093,78.4354301 146.508971,78.5525032 C146.157752,78.6227471 146.110923,78.7164057 145.876776,79.3954301 C145.712874,79.8403081 145.221166,80.7534788 144.612386,81.6666496 C144.050435,82.4861618 143.652386,83.2354301 143.675801,83.305674 C143.839703,83.5866496 144.448483,83.1886008 146.040679,81.7603081 C146.391898,81.4559179 147.070923,80.9642105 147.539215,80.6598203 C148.335313,80.1446984 148.452386,80.0276252 148.850435,79.2315276 C149.365557,78.248113 149.763605,77.7798203 150.13824,77.7564057 C150.489459,77.7564057 151.636776,77.1710398 151.308971,77.1710398 L151.332386,77.2178691 Z M60.4836054,77.8266496 C60.6006786,77.7798203 60.6240933,77.990552 60.6240933,78.7164057 L60.6240933,79.652991 L59.9450689,80.0276252 C59.5704347,80.2383569 59.1489713,80.4959179 59.0318981,80.612991 C58.8914103,80.7300642 58.399703,80.9407959 57.9079957,81.0578691 C57.4162884,81.1983569 56.6904347,81.2920154 56.3158006,81.2920154 L55.6367762,81.2920154 L55.9177518,81.0344545 C56.0816542,80.8939666 56.3392152,80.7066496 56.5031176,80.6364057 C56.6670201,80.5661618 57.5801908,79.910552 58.5401908,79.1846984 C59.5001908,78.4588447 60.3665323,77.8266496 60.4601908,77.8032349 L60.4836054,77.8266496 Z M131.195801,79.6764057 C131.804581,79.6764057 132.366532,79.6998203 132.530435,79.7466496 C132.764581,79.7934788 132.717752,79.8637227 132.085557,80.2617715 C131.640679,80.5661618 131.24263,80.7300642 131.008483,80.7300642 C130.774337,80.7300642 130.469947,80.870552 130.212386,81.0344545 C129.439703,81.6198203 128.268971,82.2520154 127.613362,82.4393325 C126.957752,82.6266496 126.934337,82.6500642 126.864093,83.0949423 L126.793849,83.5632349 L126.161654,83.5632349 C125.810435,83.5632349 125.506044,83.5164057 125.459215,83.4695764 C125.365557,83.3525032 125.950923,82.9310398 127.238727,82.1583569 C128.198727,81.572991 128.760679,80.9876252 129.088483,80.2149423 C129.205557,79.9339666 129.346044,79.8403081 129.697264,79.7700642 C129.97824,79.7232349 130.58702,79.6998203 131.195801,79.6998203 L131.195801,79.6764057 Z M146.157752,89.5807959 C145.993849,89.5573813 145.666044,89.6510398 145.408483,89.7915276 C144.846532,90.0725032 144.823118,90.0725032 144.823118,89.8617715 C144.823118,89.7212837 144.565557,89.6744545 143.582142,89.6510398 C142.903118,89.6276252 142.294337,89.6276252 142.224093,89.6510398 C142.10702,89.6978691 140.983118,91.2900642 140.49141,92.1564057 C140.233849,92.5778691 139.484581,93.2568935 138.735313,93.8890886 L139.648483,93.8890886 C140.233849,93.5378691 140.936288,93.1398203 141.100191,92.9759179 C141.568483,92.5310398 143.230923,91.3603081 143.605557,91.2432349 C143.699215,91.2198203 144.401654,90.8451862 145.127508,90.4003081 C146.204581,89.768113 146.391898,89.6276252 146.157752,89.6042105 L146.157752,89.5807959 Z" id="Shape"></path>
        </g>
    </g>
</svg>